<?xml version="1.0" encoding="UTF-8"?>
<!DOCTYPE svg PUBLIC "-//W3C//DTD SVG 1.1//EN" "http://www.w3.org/Graphics/SVG/1.1/DTD/svg11.dtd">
<svg xmlns="http://www.w3.org/2000/svg" version="1.1" width="256px" height="256px" style="shape-rendering:geometricPrecision; text-rendering:geometricPrecision; image-rendering:optimizeQuality; fill-rule:evenodd; clip-rule:evenodd" xmlns:xlink="http://www.w3.org/1999/xlink">
<g><path style="opacity:1" fill="#d6cad0" d="M 118.5,8.5 C 120.948,7.52693 123.615,7.1936 126.5,7.5C 126.788,10.8046 125.788,13.6379 123.5,16C 123.297,25.7003 125.297,34.867 129.5,43.5C 131.139,44.3219 132.805,44.9886 134.5,45.5C 132.03,46.8844 130.363,48.8844 129.5,51.5C 128.778,50.4489 127.778,49.7822 126.5,49.5C 122.187,46.8648 117.854,44.1981 113.5,41.5C 114.313,40.3473 115.313,40.3473 116.5,41.5C 116.833,40.6667 117.167,39.8333 117.5,39C 115.665,30.9839 114.999,22.9839 115.5,15C 116.667,13.8333 117.833,12.6667 119,11.5C 119.74,10.2506 119.573,9.25057 118.5,8.5 Z"/></g>
<g><path style="opacity:1" fill="#cebbc1" d="M 118.5,8.5 C 119.573,9.25057 119.74,10.2506 119,11.5C 117.833,12.6667 116.667,13.8333 115.5,15C 114.999,22.9839 115.665,30.9839 117.5,39C 117.167,39.8333 116.833,40.6667 116.5,41.5C 115.313,40.3473 114.313,40.3473 113.5,41.5C 108.088,41.6502 102.754,42.3169 97.5,43.5C 97.5,46.5 97.5,49.5 97.5,52.5C 96.0806,50.8489 94.7473,49.0156 93.5,47C 94.4506,46.2825 94.6172,45.4491 94,44.5C 93.0053,45.0659 92.172,45.7326 91.5,46.5C 88.8728,47.0916 86.2062,47.4249 83.5,47.5C 83.5,47.1667 83.5,46.8333 83.5,46.5C 87.3855,43.4799 91.7188,41.3132 96.5,40C 95.6793,34.4138 94.6793,28.9138 93.5,23.5C 95.7834,23.3921 97.7834,22.5588 99.5,21C 104.567,14.8069 110.9,10.6403 118.5,8.5 Z"/></g>
<g><path style="opacity:1" fill="#e4dfe8" d="M 198.5,19.5 C 197.068,21.1403 195.735,22.9736 194.5,25C 194.684,28.7236 194.684,32.3903 194.5,36C 191.518,36.498 188.518,36.6646 185.5,36.5C 184.5,36.5 183.5,36.5 182.5,36.5C 182.978,39.2776 181.978,41.2776 179.5,42.5C 177.516,37.6996 177.016,32.6996 178,27.5C 178.333,27.8333 178.667,28.1667 179,28.5C 180.368,25.2617 180.701,21.9283 180,18.5C 178.301,17.5939 176.467,17.2606 174.5,17.5C 179.561,15.5766 184.895,15.0766 190.5,16C 193.599,16.3874 196.266,17.5541 198.5,19.5 Z"/></g>
<g><path style="opacity:1" fill="#e9e4ea" d="M 139.5,9.5 C 138.761,9.36899 138.094,9.53566 137.5,10C 138.198,10.9707 138.198,12.1374 137.5,13.5C 137.833,14.1667 138.167,14.8333 138.5,15.5C 139.333,14.5 140.167,13.5 141,12.5C 141.167,13.5 141.333,14.5 141.5,15.5C 137.976,22.0443 136.81,29.0443 138,36.5C 139.162,38.8384 140.996,40.1717 143.5,40.5C 140.696,42.4046 137.696,44.0713 134.5,45.5C 132.805,44.9886 131.139,44.3219 129.5,43.5C 125.297,34.867 123.297,25.7003 123.5,16C 125.788,13.6379 126.788,10.8046 126.5,7.5C 126.56,6.95691 126.893,6.62358 127.5,6.5C 131.739,7.01601 135.739,8.01601 139.5,9.5 Z"/></g>
<g><path style="opacity:1" fill="#edc168" d="M 48.5,25.5 C 49.5,25.8333 50.1667,26.5 50.5,27.5C 49.391,27.4431 48.391,27.1098 47.5,26.5C 45.5,26.5 43.5,26.5 41.5,26.5C 40.1667,26.8333 38.8333,27.1667 37.5,27.5C 40.6479,24.5383 44.3146,23.8716 48.5,25.5 Z"/></g>
<g><path style="opacity:1" fill="#f7f5fa" d="M 139.5,9.5 C 142.757,10.4617 145.757,11.9617 148.5,14C 151.729,17.3986 155.062,20.5653 158.5,23.5C 157.512,28.6405 157.179,33.9738 157.5,39.5C 153.958,39.1872 150.625,39.5206 147.5,40.5C 146.167,40.5 144.833,40.5 143.5,40.5C 140.996,40.1717 139.162,38.8384 138,36.5C 136.81,29.0443 137.976,22.0443 141.5,15.5C 141.333,14.5 141.167,13.5 141,12.5C 140.167,13.5 139.333,14.5 138.5,15.5C 138.167,14.8333 137.833,14.1667 137.5,13.5C 138.198,12.1374 138.198,10.9707 137.5,10C 138.094,9.53566 138.761,9.36899 139.5,9.5 Z"/></g>
<g><path style="opacity:0.935" fill="#faf9fa" d="M 198.5,19.5 C 210.353,25.8606 216.019,35.8606 215.5,49.5C 214.033,49.1062 212.533,48.7728 211,48.5C 208.58,50.3979 205.746,51.3979 202.5,51.5C 202.806,48.6146 202.473,45.9479 201.5,43.5C 199.833,42.1667 198.167,40.8333 196.5,39.5C 196.389,38.8826 196.056,38.3826 195.5,38C 192.5,37.3333 189.5,37.3333 186.5,38C 185.944,38.3826 185.611,38.8826 185.5,39.5C 185.167,39.5 184.833,39.5 184.5,39.5C 184.557,38.391 184.89,37.391 185.5,36.5C 188.518,36.6646 191.518,36.498 194.5,36C 194.684,32.3903 194.684,28.7236 194.5,25C 195.735,22.9736 197.068,21.1403 198.5,19.5 Z"/></g>
<g><path style="opacity:1" fill="#e3d4dd" d="M 67.5,15.5 C 68.8333,15.5 70.1667,15.5 71.5,15.5C 71.0825,16.2216 70.4158,16.7216 69.5,17C 72.6238,18.5415 72.9571,20.3748 70.5,22.5C 71.1555,28.511 71.9889,34.511 73,40.5C 73.9408,43.3926 75.6074,45.7259 78,47.5C 79.7659,46.7665 81.5992,46.4332 83.5,46.5C 83.5,46.8333 83.5,47.1667 83.5,47.5C 81.5201,48.4839 79.8534,49.8173 78.5,51.5C 75.6755,51.9193 73.5088,50.9193 72,48.5C 71.0467,46.5448 69.7134,44.8782 68,43.5C 67.7655,39.6858 66.9322,36.0192 65.5,32.5C 64.675,31.6143 63.675,31.281 62.5,31.5C 62.2641,28.3915 62.5975,25.3915 63.5,22.5C 64.9574,20.1511 66.2908,17.8178 67.5,15.5 Z"/></g>
<g><path style="opacity:1" fill="#ebe4eb" d="M 71.5,15.5 C 79.654,15.995 86.9873,18.6616 93.5,23.5C 94.6793,28.9138 95.6793,34.4138 96.5,40C 91.7188,41.3132 87.3855,43.4799 83.5,46.5C 81.5992,46.4332 79.7659,46.7665 78,47.5C 75.6074,45.7259 73.9408,43.3926 73,40.5C 71.9889,34.511 71.1555,28.511 70.5,22.5C 72.9571,20.3748 72.6238,18.5415 69.5,17C 70.4158,16.7216 71.0825,16.2216 71.5,15.5 Z"/></g>
<g><path style="opacity:1" fill="#fdde5c" d="M 47.5,26.5 C 48.391,27.1098 49.391,27.4431 50.5,27.5C 51.1667,27.5 51.5,27.8333 51.5,28.5C 53.2681,31.1625 53.9347,34.1625 53.5,37.5C 51.2436,36.5615 48.9103,36.5615 46.5,37.5C 45.3096,33.7206 45.6429,30.054 47.5,26.5 Z"/></g>
<g><path style="opacity:1" fill="#efcf8b" d="M 51.5,28.5 C 53.4109,28.5743 54.5776,29.5743 55,31.5C 55.8371,35.1476 55.3371,38.481 53.5,41.5C 53.5,40.1667 53.5,38.8333 53.5,37.5C 53.9347,34.1625 53.2681,31.1625 51.5,28.5 Z"/></g>
<g><path style="opacity:1" fill="#ddc4cf" d="M 63.5,22.5 C 62.5975,25.3915 62.2641,28.3915 62.5,31.5C 63.675,31.281 64.675,31.6143 65.5,32.5C 66.9322,36.0192 67.7655,39.6858 68,43.5C 69.7134,44.8782 71.0467,46.5448 72,48.5C 73.5088,50.9193 75.6755,51.9193 78.5,51.5C 77.7515,53.3325 76.7515,54.9991 75.5,56.5C 73.8828,55.962 72.2161,55.6287 70.5,55.5C 70.6713,52.2027 70.0046,51.8694 68.5,54.5C 66.386,51.9302 64.0527,49.5968 61.5,47.5C 60.2636,40.448 58.2636,33.6147 55.5,27C 57.4865,24.283 60.1532,22.783 63.5,22.5 Z"/></g>
<g><path style="opacity:1" fill="#f6aa38" d="M 41.5,26.5 C 39.877,29.2153 39.2104,32.2153 39.5,35.5C 42.967,35.4457 45.6337,36.9457 47.5,40C 49.0249,41.0086 50.6916,41.5086 52.5,41.5C 51.3646,43.2132 49.698,43.8799 47.5,43.5C 47.4894,41.9826 46.8228,40.8159 45.5,40C 42.854,39.5026 40.1873,39.3359 37.5,39.5C 34.8355,35.4929 34.8355,31.4929 37.5,27.5C 38.8333,27.1667 40.1667,26.8333 41.5,26.5 Z"/></g>
<g><path style="opacity:1" fill="#fac33c" d="M 41.5,26.5 C 43.5,26.5 45.5,26.5 47.5,26.5C 45.6429,30.054 45.3096,33.7206 46.5,37.5C 48.9103,36.5615 51.2436,36.5615 53.5,37.5C 53.5,38.8333 53.5,40.1667 53.5,41.5C 53.1667,41.5 52.8333,41.5 52.5,41.5C 50.6916,41.5086 49.0249,41.0086 47.5,40C 45.6337,36.9457 42.967,35.4457 39.5,35.5C 39.2104,32.2153 39.877,29.2153 41.5,26.5 Z"/></g>
<g><path style="opacity:1" fill="#cdc3ca" d="M 174.5,17.5 C 176.467,17.2606 178.301,17.5939 180,18.5C 180.701,21.9283 180.368,25.2617 179,28.5C 178.667,28.1667 178.333,27.8333 178,27.5C 177.016,32.6996 177.516,37.6996 179.5,42.5C 181.978,41.2776 182.978,39.2776 182.5,36.5C 183.5,36.5 184.5,36.5 185.5,36.5C 184.89,37.391 184.557,38.391 184.5,39.5C 183.5,40.8333 182.5,42.1667 181.5,43.5C 180.833,47.5 180.167,51.5 179.5,55.5C 176.478,50.8129 172.478,47.1462 167.5,44.5C 165.026,42.7601 162.359,41.2601 159.5,40C 161.237,34.6771 161.904,29.1771 161.5,23.5C 165.751,21.2063 170.084,19.2063 174.5,17.5 Z"/></g>
<g><path style="opacity:1" fill="#e3c582" d="M 196.5,39.5 C 196.167,39.5 195.833,39.5 195.5,39.5C 193.389,38.2584 191.389,38.2584 189.5,39.5C 188.167,39.5 186.833,39.5 185.5,39.5C 185.611,38.8826 185.944,38.3826 186.5,38C 189.5,37.3333 192.5,37.3333 195.5,38C 196.056,38.3826 196.389,38.8826 196.5,39.5 Z"/></g>
<g><path style="opacity:1" fill="#eb9440" d="M 37.5,27.5 C 34.8355,31.4929 34.8355,35.4929 37.5,39.5C 40.1873,39.3359 42.854,39.5026 45.5,40C 46.8228,40.8159 47.4894,41.9826 47.5,43.5C 43.5483,42.8042 39.5483,42.3042 35.5,42C 34.0085,39.3788 33.3418,36.5455 33.5,33.5C 33.6845,30.6627 35.0178,28.6627 37.5,27.5 Z"/></g>
<g><path style="opacity:1" fill="#fddd6d" d="M 195.5,39.5 C 195.833,39.5 196.167,39.5 196.5,39.5C 198.167,40.8333 199.833,42.1667 201.5,43.5C 201.664,46.1873 201.497,48.854 201,51.5C 200.617,52.056 200.117,52.3893 199.5,52.5C 200.038,50.8828 200.371,49.2161 200.5,47.5C 198.5,47.5 196.5,47.5 194.5,47.5C 194.575,44.7938 194.908,42.1272 195.5,39.5 Z"/></g>
<g><path style="opacity:1" fill="#d3b6be" d="M 67.5,15.5 C 66.2908,17.8178 64.9574,20.1511 63.5,22.5C 60.1532,22.783 57.4865,24.283 55.5,27C 58.2636,33.6147 60.2636,40.448 61.5,47.5C 64.0527,49.5968 66.386,51.9302 68.5,54.5C 70.0046,51.8694 70.6713,52.2027 70.5,55.5C 72.2161,55.6287 73.8828,55.962 75.5,56.5C 75.5,56.8333 75.5,57.1667 75.5,57.5C 74.1806,58.8968 72.5139,59.5635 70.5,59.5C 67.0474,57.8499 63.3807,56.6832 59.5,56C 57.0216,51.96 53.6883,49.1267 49.5,47.5C 49.5,46.5 49.5,45.5 49.5,44.5C 51.9726,44.9118 53.3059,43.9118 53.5,41.5C 55.3371,38.481 55.8371,35.1476 55,31.5C 54.5776,29.5743 53.4109,28.5743 51.5,28.5C 51.5,27.8333 51.1667,27.5 50.5,27.5C 50.1667,26.5 49.5,25.8333 48.5,25.5C 53.5178,19.8228 59.8511,16.4895 67.5,15.5 Z"/></g>
<g><path style="opacity:1" fill="#e0dbe4" d="M 158.5,23.5 C 159.5,23.5 160.5,23.5 161.5,23.5C 161.904,29.1771 161.237,34.6771 159.5,40C 162.359,41.2601 165.026,42.7601 167.5,44.5C 167.072,47.2465 165.406,48.9132 162.5,49.5C 162.167,48.8333 161.833,48.1667 161.5,47.5C 160.261,47.9424 159.261,48.6091 158.5,49.5C 157.504,49.4142 156.671,49.7476 156,50.5C 155.802,52.3817 155.302,54.0484 154.5,55.5C 152.833,55.5 151.167,55.5 149.5,55.5C 149.359,50.6519 149.359,45.9852 149.5,41.5C 149.043,40.7025 148.376,40.3691 147.5,40.5C 150.625,39.5206 153.958,39.1872 157.5,39.5C 157.179,33.9738 157.512,28.6405 158.5,23.5 Z"/></g>
<g><path style="opacity:1" fill="#fcc846" d="M 195.5,39.5 C 194.908,42.1272 194.575,44.7938 194.5,47.5C 196.5,47.5 198.5,47.5 200.5,47.5C 200.371,49.2161 200.038,50.8828 199.5,52.5C 199.167,52.5 198.833,52.5 198.5,52.5C 194.095,49.9321 190.428,46.4321 187.5,42C 188.381,41.2917 189.047,40.4584 189.5,39.5C 191.389,38.2584 193.389,38.2584 195.5,39.5 Z"/></g>
<g><path style="opacity:1" fill="#e6dfe9" d="M 113.5,41.5 C 117.854,44.1981 122.187,46.8648 126.5,49.5C 127.024,54.0703 127.024,58.7369 126.5,63.5C 126.167,63.5 125.833,63.5 125.5,63.5C 125.384,60.1401 125.051,56.8067 124.5,53.5C 122.19,52.5431 119.856,51.5431 117.5,50.5C 114.634,50.7446 112.468,52.0779 111,54.5C 108.664,53.5627 106.164,53.5627 103.5,54.5C 102.075,52.9689 101.409,53.3023 101.5,55.5C 100.71,54.3915 100.21,53.0581 100,51.5C 99.0128,55.7668 98.1795,56.1002 97.5,52.5C 97.5,49.5 97.5,46.5 97.5,43.5C 102.754,42.3169 108.088,41.6502 113.5,41.5 Z"/></g>
<g><path style="opacity:1" fill="#c9bdc8" d="M 143.5,40.5 C 144.833,40.5 146.167,40.5 147.5,40.5C 148.376,40.3691 149.043,40.7025 149.5,41.5C 149.359,45.9852 149.359,50.6519 149.5,55.5C 148.036,56.4054 146.702,56.4054 145.5,55.5C 144.215,53.9378 142.715,52.6045 141,51.5C 139.765,52.6155 138.598,52.6155 137.5,51.5C 136.203,53.3668 134.703,53.7002 133,52.5C 131.699,52.6387 130.866,53.3054 130.5,54.5C 129.596,53.791 129.263,52.791 129.5,51.5C 130.363,48.8844 132.03,46.8844 134.5,45.5C 137.696,44.0713 140.696,42.4046 143.5,40.5 Z"/></g>
<g><path style="opacity:1" fill="#e49464" d="M 33.5,33.5 C 33.3418,36.5455 34.0085,39.3788 35.5,42C 39.5483,42.3042 43.5483,42.8042 47.5,43.5C 49.698,43.8799 51.3646,43.2132 52.5,41.5C 52.8333,41.5 53.1667,41.5 53.5,41.5C 53.3059,43.9118 51.9726,44.9118 49.5,44.5C 49.5,45.5 49.5,46.5 49.5,47.5C 46.1667,47.5 42.8333,47.5 39.5,47.5C 33.7714,44.2893 31.7714,39.6226 33.5,33.5 Z"/></g>
<g><path style="opacity:1" fill="#d39656" d="M 184.5,39.5 C 184.833,39.5 185.167,39.5 185.5,39.5C 184.699,41.0418 184.366,42.7085 184.5,44.5C 182.72,45.9899 182.054,47.9899 182.5,50.5C 181.532,48.3926 181.198,46.0593 181.5,43.5C 182.5,42.1667 183.5,40.8333 184.5,39.5 Z"/></g>
<g><path style="opacity:1" fill="#f4b034" d="M 185.5,39.5 C 186.833,39.5 188.167,39.5 189.5,39.5C 189.047,40.4584 188.381,41.2917 187.5,42C 190.428,46.4321 194.095,49.9321 198.5,52.5C 197.749,53.5735 196.749,53.7401 195.5,53C 193.181,49.153 189.847,47.3197 185.5,47.5C 185.737,46.209 185.404,45.209 184.5,44.5C 184.366,42.7085 184.699,41.0418 185.5,39.5 Z"/></g>
<g><path style="opacity:1" fill="#cba3ab" d="M 39.5,47.5 C 42.8333,47.5 46.1667,47.5 49.5,47.5C 53.6883,49.1267 57.0216,51.96 59.5,56C 63.3807,56.6832 67.0474,57.8499 70.5,59.5C 72.5139,59.5635 74.1806,58.8968 75.5,57.5C 76.4048,61.3325 76.4048,65.3325 75.5,69.5C 74.5595,66.8749 73.3928,66.8749 72,69.5C 71.0106,65.7449 68.5106,64.0782 64.5,64.5C 63.1667,64.8333 61.8333,65.1667 60.5,65.5C 61.0522,67.0026 61.0522,68.6693 60.5,70.5C 58.8769,69.6843 57.3769,68.0177 56,65.5C 55.6121,66.428 54.9454,67.0946 54,67.5C 50.186,65.7012 50.0194,63.2012 53.5,60C 50.8333,59.3333 50.8333,58.6667 53.5,58C 50.5492,57.7743 48.0492,56.6077 46,54.5C 44.5603,55.1476 43.0603,55.4809 41.5,55.5C 41.5,56.8333 41.5,58.1667 41.5,59.5C 39.8643,55.7905 39.1977,51.7905 39.5,47.5 Z"/></g>
<g><path style="opacity:1" fill="#faf3fa" d="M 167.5,44.5 C 172.478,47.1462 176.478,50.8129 179.5,55.5C 182.072,62.2296 183.072,69.2296 182.5,76.5C 181.504,76.5858 180.671,76.2524 180,75.5C 179.517,76.448 179.351,77.448 179.5,78.5C 175.915,78.8476 172.582,78.181 169.5,76.5C 171.475,73.8649 174.142,72.0315 177.5,71C 173.916,69.9266 170.25,69.2599 166.5,69C 165.667,68.1667 164.833,67.3333 164,66.5C 162.965,62.301 162.798,58.1343 163.5,54C 162.597,50.9328 161.43,50.4328 160,52.5C 159.487,51.4734 158.987,50.4734 158.5,49.5C 159.261,48.6091 160.261,47.9424 161.5,47.5C 161.833,48.1667 162.167,48.8333 162.5,49.5C 165.406,48.9132 167.072,47.2465 167.5,44.5 Z"/></g>
<g><path style="opacity:1" fill="#e68d4d" d="M 182.5,50.5 C 185.747,51.2515 189.081,51.7515 192.5,52C 192.915,54.0263 193.915,55.5263 195.5,56.5C 195.5,57.1667 195.167,57.5 194.5,57.5C 187.859,59.1931 183.859,56.8598 182.5,50.5 Z"/></g>
<g><path style="opacity:1" fill="#f4a341" d="M 184.5,44.5 C 185.404,45.209 185.737,46.209 185.5,47.5C 189.847,47.3197 193.181,49.153 195.5,53C 196.749,53.7401 197.749,53.5735 198.5,52.5C 198.833,52.5 199.167,52.5 199.5,52.5C 199.106,54.7099 197.773,56.0432 195.5,56.5C 193.915,55.5263 192.915,54.0263 192.5,52C 189.081,51.7515 185.747,51.2515 182.5,50.5C 182.054,47.9899 182.72,45.9899 184.5,44.5 Z"/></g>
<g><path style="opacity:1" fill="#e7dfea" d="M 215.5,49.5 C 215.781,56.0803 213.781,61.7469 209.5,66.5C 208.5,65.8333 207.5,65.1667 206.5,64.5C 207.773,63.9232 207.773,63.2565 206.5,62.5C 200.734,64.5156 198.567,62.5156 200,56.5C 200.366,54.5483 201.199,52.8816 202.5,51.5C 205.746,51.3979 208.58,50.3979 211,48.5C 212.533,48.7728 214.033,49.1062 215.5,49.5 Z"/></g>
<g><path style="opacity:1" fill="#c193a7" d="M 60.5,70.5 C 63.0545,71.388 65.7212,71.7214 68.5,71.5C 68.5,72.5 68.5,73.5 68.5,74.5C 72.9939,75.1587 74.6605,77.8254 73.5,82.5C 72.8333,81.8333 72.1667,81.1667 71.5,80.5C 71.5,79.1667 71.5,77.8333 71.5,76.5C 69.4727,76.6621 67.4727,76.4955 65.5,76C 60.6571,73.8157 55.8237,71.649 51,69.5C 49.9701,69.8361 49.4701,70.5028 49.5,71.5C 45.6644,68.3217 42.9977,64.3217 41.5,59.5C 41.5,58.1667 41.5,56.8333 41.5,55.5C 43.0603,55.4809 44.5603,55.1476 46,54.5C 48.0492,56.6077 50.5492,57.7743 53.5,58C 50.8333,58.6667 50.8333,59.3333 53.5,60C 50.0194,63.2012 50.186,65.7012 54,67.5C 54.9454,67.0946 55.6121,66.428 56,65.5C 57.3769,68.0177 58.8769,69.6843 60.5,70.5 Z"/></g>
<g><path style="opacity:1" fill="#d9bfbc" d="M 181.5,43.5 C 181.198,46.0593 181.532,48.3926 182.5,50.5C 183.859,56.8598 187.859,59.1931 194.5,57.5C 194.493,62.1575 194.493,66.4908 194.5,70.5C 195.425,71.5624 196.425,71.5624 197.5,70.5C 198.401,71.2905 199.068,72.2905 199.5,73.5C 194.053,73.8897 188.72,74.8897 183.5,76.5C 183.5,77.8333 183.5,79.1667 183.5,80.5C 183.167,80.5 182.833,80.5 182.5,80.5C 182.5,79.1667 182.5,77.8333 182.5,76.5C 183.072,69.2296 182.072,62.2296 179.5,55.5C 180.167,51.5 180.833,47.5 181.5,43.5 Z"/></g>
<g><path style="opacity:1" fill="#e6cfd7" d="M 201.5,43.5 C 202.473,45.9479 202.806,48.6146 202.5,51.5C 201.199,52.8816 200.366,54.5483 200,56.5C 198.567,62.5156 200.734,64.5156 206.5,62.5C 207.773,63.2565 207.773,63.9232 206.5,64.5C 202.391,64.9587 199.391,66.9587 197.5,70.5C 196.425,71.5624 195.425,71.5624 194.5,70.5C 194.493,66.4908 194.493,62.1575 194.5,57.5C 195.167,57.5 195.5,57.1667 195.5,56.5C 197.773,56.0432 199.106,54.7099 199.5,52.5C 200.117,52.3893 200.617,52.056 201,51.5C 201.497,48.854 201.664,46.1873 201.5,43.5 Z"/></g>
<g><path style="opacity:1" fill="#d0b5d2" d="M 145.5,55.5 C 144.972,56.7206 144.305,57.8873 143.5,59C 145.604,61.0424 146.771,63.5424 147,66.5C 150.381,67.0487 152.214,69.0487 152.5,72.5C 155.83,74.1691 158.497,76.5025 160.5,79.5C 161.552,81.6551 160.886,81.9884 158.5,80.5C 158.167,81.1667 157.833,81.8333 157.5,82.5C 155.161,81.276 152.828,81.276 150.5,82.5C 151.833,83.6199 152.333,84.9532 152,86.5C 150.33,86.6563 148.663,85.9896 147,84.5C 145.908,85.2961 144.741,85.9628 143.5,86.5C 140.389,84.348 137.056,84.0147 133.5,85.5C 132.353,85.1822 131.519,84.5156 131,83.5C 130.802,85.3817 130.302,87.0484 129.5,88.5C 128.737,87.7321 127.737,87.2321 126.5,87C 127.451,82.1861 128.451,77.3528 129.5,72.5C 129.376,71.8933 129.043,71.56 128.5,71.5C 130.022,65.9483 130.689,60.2816 130.5,54.5C 130.866,53.3054 131.699,52.6387 133,52.5C 134.703,53.7002 136.203,53.3668 137.5,51.5C 138.598,52.6155 139.765,52.6155 141,51.5C 142.715,52.6045 144.215,53.9378 145.5,55.5 Z"/></g>
<g><path style="opacity:1" fill="#f0e5f9" d="M 158.5,49.5 C 158.987,50.4734 159.487,51.4734 160,52.5C 161.43,50.4328 162.597,50.9328 163.5,54C 162.798,58.1343 162.965,62.301 164,66.5C 164.833,67.3333 165.667,68.1667 166.5,69C 170.25,69.2599 173.916,69.9266 177.5,71C 174.142,72.0315 171.475,73.8649 169.5,76.5C 168.461,78.5311 166.795,79.8645 164.5,80.5C 165.303,79.5768 165.47,78.5768 165,77.5C 163,75.5 161,73.5 159,71.5C 156.722,66.3868 155.222,61.0535 154.5,55.5C 155.302,54.0484 155.802,52.3817 156,50.5C 156.671,49.7476 157.504,49.4142 158.5,49.5 Z"/></g>
<g><path style="opacity:1" fill="#f2a43f" d="M 35.5,64.5 C 34.1667,64.5 32.8333,64.5 31.5,64.5C 31.6738,70.4181 34.6738,73.4181 40.5,73.5C 39.7024,77.964 37.0358,80.2973 32.5,80.5C 31.8985,77.5963 30.0652,75.9297 27,75.5C 25.7475,72.9865 25.2475,70.3198 25.5,67.5C 28.1029,63.7415 31.4362,62.7415 35.5,64.5 Z"/></g>
<g><path style="opacity:0.937" fill="#b889b9" d="M 71.5,80.5 C 62.7742,80.599 55.4408,77.599 49.5,71.5C 49.4701,70.5028 49.9701,69.8361 51,69.5C 55.8237,71.649 60.6571,73.8157 65.5,76C 67.4727,76.4955 69.4727,76.6621 71.5,76.5C 71.5,77.8333 71.5,79.1667 71.5,80.5 Z"/></g>
<g><path style="opacity:1" fill="#fbcf57" d="M 35.5,64.5 C 40.0183,66.1268 41.685,69.1268 40.5,73.5C 34.6738,73.4181 31.6738,70.4181 31.5,64.5C 32.8333,64.5 34.1667,64.5 35.5,64.5 Z"/></g>
<g><path style="opacity:1" fill="#d3bdd7" d="M 206.5,64.5 C 207.5,65.1667 208.5,65.8333 209.5,66.5C 207.906,69.7642 205.573,72.4309 202.5,74.5C 201.791,73.596 200.791,73.2627 199.5,73.5C 199.068,72.2905 198.401,71.2905 197.5,70.5C 199.391,66.9587 202.391,64.9587 206.5,64.5 Z"/></g>
<g><path style="opacity:1" fill="#e1ceea" d="M 145.5,55.5 C 146.702,56.4054 148.036,56.4054 149.5,55.5C 151.167,55.5 152.833,55.5 154.5,55.5C 155.222,61.0535 156.722,66.3868 159,71.5C 161,73.5 163,75.5 165,77.5C 165.47,78.5768 165.303,79.5768 164.5,80.5C 162.983,80.4894 161.816,79.8228 161,78.5C 160.601,78.7284 160.435,79.0618 160.5,79.5C 158.497,76.5025 155.83,74.1691 152.5,72.5C 152.214,69.0487 150.381,67.0487 147,66.5C 146.771,63.5424 145.604,61.0424 143.5,59C 144.305,57.8873 144.972,56.7206 145.5,55.5 Z"/></g>
<g><path style="opacity:1" fill="#e2cce4" d="M 97.5,52.5 C 98.1795,56.1002 99.0128,55.7668 100,51.5C 100.21,53.0581 100.71,54.3915 101.5,55.5C 101.072,62.2315 103.072,68.0648 107.5,73C 110.281,74.4471 112.781,76.2804 115,78.5C 117.907,77.5695 120.74,76.5695 123.5,75.5C 123.5,74.1667 123.5,72.8333 123.5,71.5C 124.5,71.5 125.5,71.5 126.5,71.5C 126.5,68.8333 126.5,66.1667 126.5,63.5C 127.024,58.7369 127.024,54.0703 126.5,49.5C 127.778,49.7822 128.778,50.4489 129.5,51.5C 129.263,52.791 129.596,53.791 130.5,54.5C 130.689,60.2816 130.022,65.9483 128.5,71.5C 126.477,74.631 124.644,77.9643 123,81.5C 121.29,83.3798 119.457,85.0465 117.5,86.5C 114.102,83.4677 110.102,81.4677 105.5,80.5C 103.672,75.5562 101.172,70.8896 98,66.5C 97.0723,68.3348 95.9056,68.6682 94.5,67.5C 92.9172,65.01 91.9172,62.3433 91.5,59.5C 90.0413,59.5674 88.7079,59.2341 87.5,58.5C 86.3399,56.8308 86.3399,54.9975 87.5,53C 88.736,50.6787 90.0694,48.512 91.5,46.5C 92.172,45.7326 93.0053,45.0659 94,44.5C 94.6172,45.4491 94.4506,46.2825 93.5,47C 94.7473,49.0156 96.0806,50.8489 97.5,52.5 Z"/></g>
<g><path style="opacity:1" fill="#eddcf5" d="M 103.5,54.5 C 103.662,56.8244 104.828,58.4911 107,59.5C 107.535,57.7295 108.369,57.3961 109.5,58.5C 110.022,68.1918 114.689,71.0251 123.5,67C 124.085,65.6976 124.751,64.531 125.5,63.5C 125.833,63.5 126.167,63.5 126.5,63.5C 126.5,66.1667 126.5,68.8333 126.5,71.5C 125.5,71.5 124.5,71.5 123.5,71.5C 123.5,72.8333 123.5,74.1667 123.5,75.5C 120.74,76.5695 117.907,77.5695 115,78.5C 112.781,76.2804 110.281,74.4471 107.5,73C 103.072,68.0648 101.072,62.2315 101.5,55.5C 101.409,53.3023 102.075,52.9689 103.5,54.5 Z"/></g>
<g><path style="opacity:1" fill="#f6ebfd" d="M 125.5,63.5 C 124.751,64.531 124.085,65.6976 123.5,67C 114.689,71.0251 110.022,68.1918 109.5,58.5C 108.369,57.3961 107.535,57.7295 107,59.5C 104.828,58.4911 103.662,56.8244 103.5,54.5C 106.164,53.5627 108.664,53.5627 111,54.5C 112.468,52.0779 114.634,50.7446 117.5,50.5C 119.856,51.5431 122.19,52.5431 124.5,53.5C 125.051,56.8067 125.384,60.1401 125.5,63.5 Z"/></g>
<g><path style="opacity:1" fill="#dabddc" d="M 87.5,58.5 C 88.7079,59.2341 90.0413,59.5674 91.5,59.5C 91.9172,62.3433 92.9172,65.01 94.5,67.5C 95.9056,68.6682 97.0723,68.3348 98,66.5C 101.172,70.8896 103.672,75.5562 105.5,80.5C 103.821,80.8923 102.154,81.3923 100.5,82C 100.957,82.414 101.291,82.914 101.5,83.5C 100.726,84.7112 99.8928,84.7112 99,83.5C 98.5357,84.0944 98.369,84.7611 98.5,85.5C 96.5165,85.6168 94.8498,84.9501 93.5,83.5C 88.0502,75.9591 86.0502,67.6257 87.5,58.5 Z"/></g>
<g><path style="opacity:1" fill="#c7a2c8" d="M 199.5,73.5 C 200.791,73.2627 201.791,73.596 202.5,74.5C 196.852,78.4928 190.519,80.4928 183.5,80.5C 183.5,79.1667 183.5,77.8333 183.5,76.5C 188.72,74.8897 194.053,73.8897 199.5,73.5 Z"/></g>
<g><path style="opacity:1" fill="#db8554" d="M 25.5,67.5 C 25.2475,70.3198 25.7475,72.9865 27,75.5C 30.0652,75.9297 31.8985,77.5963 32.5,80.5C 26.7957,80.6259 23.7957,77.7926 23.5,72C 23.5247,70.124 24.1914,68.624 25.5,67.5 Z"/></g>
<g><path style="opacity:1" fill="#f5d263" d="M 213.5,72.5 C 221.882,71.56 224.882,75.2267 222.5,83.5C 220.492,81.6364 218.159,79.9697 215.5,78.5C 218.586,75.0898 217.92,73.0898 213.5,72.5 Z"/></g>
<g><path style="opacity:1" fill="#f5ad41" d="M 212.5,72.5 C 212.833,72.5 213.167,72.5 213.5,72.5C 217.92,73.0898 218.586,75.0898 215.5,78.5C 218.159,79.9697 220.492,81.6364 222.5,83.5C 222.5,83.8333 222.5,84.1667 222.5,84.5C 219.393,84.8259 217.06,83.6592 215.5,81C 213.527,80.5045 211.527,80.3379 209.5,80.5C 209.016,77.2118 210.016,74.5452 212.5,72.5 Z"/></g>
<g><path style="opacity:1" fill="#e9d6e2" d="M 182.5,76.5 C 182.5,77.8333 182.5,79.1667 182.5,80.5C 182.5,81.1667 182.167,81.5 181.5,81.5C 180.749,80.4265 179.749,80.2599 178.5,81C 177.167,82.6667 175.833,84.3333 174.5,86C 173.197,86.2098 171.864,86.0431 170.5,85.5C 169.214,85.8515 168.381,86.5182 168,87.5C 167.5,87.3333 167,87.1667 166.5,87C 167.694,84.3422 166.694,83.1756 163.5,83.5C 164.11,82.609 164.443,81.609 164.5,80.5C 166.795,79.8645 168.461,78.5311 169.5,76.5C 172.582,78.181 175.915,78.8476 179.5,78.5C 179.351,77.448 179.517,76.448 180,75.5C 180.671,76.2524 181.504,76.5858 182.5,76.5 Z"/></g>
<g><path style="opacity:1" fill="#d19b8d" d="M 94.5,101.5 C 89.6252,99.6357 84.9585,97.3024 80.5,94.5C 79.6922,92.5767 79.1922,90.5767 79,88.5C 77.6134,86.9535 76.4467,85.2868 75.5,83.5C 77.1368,82.7822 78.8034,82.6155 80.5,83C 82.6213,85.198 84.288,87.698 85.5,90.5C 90.0493,91.217 92.2159,93.8837 92,98.5C 93.045,99.3734 93.8783,100.373 94.5,101.5 Z"/></g>
<g><path style="opacity:1" fill="#d0a2a1" d="M 75.5,69.5 C 76.3414,71.3792 76.6747,73.3792 76.5,75.5C 77.8734,75.3433 79.2068,75.51 80.5,76C 81.6966,79.7683 84.03,82.435 87.5,84C 91.8799,88.7114 95.8799,93.7114 99.5,99C 98.1667,99.3333 96.8333,99.6667 95.5,100C 99.0281,101.814 102.695,101.981 106.5,100.5C 107.389,102.007 108.389,103.34 109.5,104.5C 104.231,104.261 99.2307,103.261 94.5,101.5C 93.8783,100.373 93.045,99.3734 92,98.5C 92.2159,93.8837 90.0493,91.217 85.5,90.5C 84.288,87.698 82.6213,85.198 80.5,83C 78.8034,82.6155 77.1368,82.7822 75.5,83.5C 74.8333,83.5 74.1667,83.5 73.5,83.5C 73.5,83.1667 73.5,82.8333 73.5,82.5C 74.6605,77.8254 72.9939,75.1587 68.5,74.5C 68.5,73.5 68.5,72.5 68.5,71.5C 65.7212,71.7214 63.0545,71.388 60.5,70.5C 61.0522,68.6693 61.0522,67.0026 60.5,65.5C 61.8333,65.1667 63.1667,64.8333 64.5,64.5C 68.5106,64.0782 71.0106,65.7449 72,69.5C 73.3928,66.8749 74.5595,66.8749 75.5,69.5 Z"/></g>
<g><path style="opacity:1" fill="#e78f4f" d="M 212.5,72.5 C 210.016,74.5452 209.016,77.2118 209.5,80.5C 211.527,80.3379 213.527,80.5045 215.5,81C 217.06,83.6592 219.393,84.8259 222.5,84.5C 218.401,89.3084 213.901,89.6417 209,85.5C 207.543,82.634 207.21,79.634 208,76.5C 208.748,74.249 210.248,72.9156 212.5,72.5 Z"/></g>
<g><path style="opacity:1" fill="#d4b1c2" d="M 164.5,80.5 C 164.443,81.609 164.11,82.609 163.5,83.5C 162.209,84.5417 162.209,85.7083 163.5,87C 161.699,87.3173 161.366,87.984 162.5,89C 159.071,89.8712 155.738,91.0379 152.5,92.5C 154.95,94.5029 157.283,96.5029 159.5,98.5C 156.078,97.9566 152.411,97.7899 148.5,98C 147.891,99.9483 147.224,101.782 146.5,103.5C 143.968,102.404 141.635,101.071 139.5,99.5C 140.239,99.631 140.906,99.4643 141.5,99C 139.396,98.2092 138.063,96.7092 137.5,94.5C 134.315,93.0263 131.649,91.0263 129.5,88.5C 130.302,87.0484 130.802,85.3817 131,83.5C 131.519,84.5156 132.353,85.1822 133.5,85.5C 137.056,84.0147 140.389,84.348 143.5,86.5C 144.741,85.9628 145.908,85.2961 147,84.5C 148.663,85.9896 150.33,86.6563 152,86.5C 152.333,84.9532 151.833,83.6199 150.5,82.5C 152.828,81.276 155.161,81.276 157.5,82.5C 157.833,81.8333 158.167,81.1667 158.5,80.5C 160.886,81.9884 161.552,81.6551 160.5,79.5C 160.435,79.0618 160.601,78.7284 161,78.5C 161.816,79.8228 162.983,80.4894 164.5,80.5 Z"/></g>
<g><path style="opacity:1" fill="#e0c1d3" d="M 128.5,71.5 C 129.043,71.56 129.376,71.8933 129.5,72.5C 128.451,77.3528 127.451,82.1861 126.5,87C 127.737,87.2321 128.737,87.7321 129.5,88.5C 131.649,91.0263 134.315,93.0263 137.5,94.5C 138.063,96.7092 139.396,98.2092 141.5,99C 140.906,99.4643 140.239,99.631 139.5,99.5C 135.277,98.5553 131.277,97.2219 127.5,95.5C 127.762,96.9778 127.429,98.3112 126.5,99.5C 125.859,97.7045 124.859,96.2045 123.5,95C 118.492,94.4992 113.492,93.9992 108.5,93.5C 107.527,94.7914 106.527,94.7914 105.5,93.5C 104.081,91.6641 102.914,89.6641 102,87.5C 100.887,86.695 99.7206,86.0283 98.5,85.5C 98.369,84.7611 98.5357,84.0944 99,83.5C 99.8928,84.7112 100.726,84.7112 101.5,83.5C 101.291,82.914 100.957,82.414 100.5,82C 102.154,81.3923 103.821,80.8923 105.5,80.5C 110.102,81.4677 114.102,83.4677 117.5,86.5C 119.457,85.0465 121.29,83.3798 123,81.5C 124.644,77.9643 126.477,74.631 128.5,71.5 Z"/></g>
<g><path style="opacity:1" fill="#eeb652" d="M 195.5,96.5 C 194.292,95.7659 192.959,95.4326 191.5,95.5C 190.5,95.5 189.5,95.5 188.5,95.5C 188.389,94.8826 188.056,94.3826 187.5,94C 184.421,93.3146 181.421,92.4812 178.5,91.5C 178.557,90.391 178.89,89.391 179.5,88.5C 182.066,88.6556 184.566,88.3223 187,87.5C 189.795,88.1852 192.628,88.6852 195.5,89C 195.473,91.599 195.473,94.099 195.5,96.5 Z"/></g>
<g><path style="opacity:1" fill="#d39347" d="M 74.5,111.5 C 75.7095,111.932 76.7095,112.599 77.5,113.5C 74.0314,113.453 70.698,112.787 67.5,111.5C 61.214,109.881 57.214,105.881 55.5,99.5C 51.144,99.4992 48.4773,97.1659 47.5,92.5C 49.9267,92.477 52.26,91.977 54.5,91C 53.944,90.6174 53.6107,90.1174 53.5,89.5C 60.588,87.7611 67.9213,87.0944 75.5,87.5C 75.7852,89.288 75.4519,90.9547 74.5,92.5C 70.8454,93.332 67.1788,94.1654 63.5,95C 59.5823,97.4765 58.2489,100.81 59.5,105C 60.7839,105.684 61.9505,105.517 63,104.5C 64.1711,105.893 65.6711,106.727 67.5,107C 67.1667,107.333 66.8333,107.667 66.5,108C 68.7037,110.234 71.3704,111.401 74.5,111.5 Z"/></g>
<g><path style="opacity:1" fill="#d7bac2" d="M 181.5,81.5 C 181.567,82.9587 181.234,84.2921 180.5,85.5C 179.391,85.5569 178.391,85.8902 177.5,86.5C 177.565,86.0618 177.399,85.7284 177,85.5C 176.024,87.8872 174.191,89.0539 171.5,89C 171.833,89.3333 172.167,89.6667 172.5,90C 171.033,91.0975 170.199,92.5975 170,94.5C 169.667,93.8333 169.333,93.1667 169,92.5C 166.536,95.6467 163.37,97.6467 159.5,98.5C 157.283,96.5029 154.95,94.5029 152.5,92.5C 155.738,91.0379 159.071,89.8712 162.5,89C 161.366,87.984 161.699,87.3173 163.5,87C 162.209,85.7083 162.209,84.5417 163.5,83.5C 166.694,83.1756 167.694,84.3422 166.5,87C 167,87.1667 167.5,87.3333 168,87.5C 168.381,86.5182 169.214,85.8515 170.5,85.5C 171.864,86.0431 173.197,86.2098 174.5,86C 175.833,84.3333 177.167,82.6667 178.5,81C 179.749,80.2599 180.749,80.4265 181.5,81.5 Z"/></g>
<g><path style="opacity:1" fill="#daa569" d="M 180.5,85.5 C 181.5,85.5 182.5,85.5 183.5,85.5C 181.781,86.0221 180.448,87.0221 179.5,88.5C 178.89,89.391 178.557,90.391 178.5,91.5C 176.037,93.4611 173.703,95.6278 171.5,98C 170.207,98.49 168.873,98.6567 167.5,98.5C 169.707,96.5545 171.707,94.3878 173.5,92C 176.876,91.6929 178.21,89.8595 177.5,86.5C 178.391,85.8902 179.391,85.5569 180.5,85.5 Z"/></g>
<g><path style="opacity:1" fill="#d9afba" d="M 91.5,46.5 C 90.0694,48.512 88.736,50.6787 87.5,53C 86.3399,54.9975 86.3399,56.8308 87.5,58.5C 86.0502,67.6257 88.0502,75.9591 93.5,83.5C 94.8498,84.9501 96.5165,85.6168 98.5,85.5C 99.7206,86.0283 100.887,86.695 102,87.5C 102.914,89.6641 104.081,91.6641 105.5,93.5C 106.527,94.7914 107.527,94.7914 108.5,93.5C 111.997,95.8033 115.664,97.9699 119.5,100C 118.692,100.308 118.025,100.808 117.5,101.5C 118.489,102.468 119.156,103.635 119.5,105C 118.656,107.095 117.656,109.095 116.5,111C 117.23,113.154 117.897,115.321 118.5,117.5C 116.833,117.5 115.167,117.5 113.5,117.5C 113.167,117.5 112.833,117.5 112.5,117.5C 113.262,112.607 112.262,108.274 109.5,104.5C 108.389,103.34 107.389,102.007 106.5,100.5C 102.695,101.981 99.0281,101.814 95.5,100C 96.8333,99.6667 98.1667,99.3333 99.5,99C 95.8799,93.7114 91.8799,88.7114 87.5,84C 84.03,82.435 81.6966,79.7683 80.5,76C 79.2068,75.51 77.8734,75.3433 76.5,75.5C 76.6747,73.3792 76.3414,71.3792 75.5,69.5C 76.4048,65.3325 76.4048,61.3325 75.5,57.5C 75.5,57.1667 75.5,56.8333 75.5,56.5C 76.7515,54.9991 77.7515,53.3325 78.5,51.5C 79.8534,49.8173 81.5201,48.4839 83.5,47.5C 86.2062,47.4249 88.8728,47.0916 91.5,46.5 Z"/></g>
<g><path style="opacity:1" fill="#e2a555" d="M 47.5,88.5 C 49.2646,89.4614 51.2646,89.7947 53.5,89.5C 53.6107,90.1174 53.944,90.6174 54.5,91C 52.26,91.977 49.9267,92.477 47.5,92.5C 48.4773,97.1659 51.144,99.4992 55.5,99.5C 57.214,105.881 61.214,109.881 67.5,111.5C 64.0649,111.688 61.0649,110.688 58.5,108.5C 57.3405,105.822 55.5072,103.822 53,102.5C 46.5621,101.892 40.2287,100.892 34,99.5C 31.2751,101.758 28.2751,102.091 25,100.5C 23.317,101.887 22.1504,103.553 21.5,105.5C 21.5674,104.041 21.2341,102.708 20.5,101.5C 27.4784,93.1788 36.4784,88.8454 47.5,88.5 Z"/></g>
<g><path style="opacity:1" fill="#e0c3ce" d="M 108.5,93.5 C 113.492,93.9992 118.492,94.4992 123.5,95C 124.859,96.2045 125.859,97.7045 126.5,99.5C 127.429,98.3112 127.762,96.9778 127.5,95.5C 131.277,97.2219 135.277,98.5553 139.5,99.5C 141.635,101.071 143.968,102.404 146.5,103.5C 146.5,104.167 146.5,104.833 146.5,105.5C 144.938,105.733 143.605,106.4 142.5,107.5C 139.761,103.991 136.094,102.657 131.5,103.5C 130.441,108.265 129.108,112.931 127.5,117.5C 124.5,117.5 121.5,117.5 118.5,117.5C 117.897,115.321 117.23,113.154 116.5,111C 117.656,109.095 118.656,107.095 119.5,105C 119.156,103.635 118.489,102.468 117.5,101.5C 118.025,100.808 118.692,100.308 119.5,100C 115.664,97.9699 111.997,95.8033 108.5,93.5 Z"/></g>
<g><path style="opacity:1" fill="#e0b0b2" d="M 177.5,86.5 C 178.21,89.8595 176.876,91.6929 173.5,92C 171.707,94.3878 169.707,96.5545 167.5,98.5C 166.192,99.2323 164.858,100.066 163.5,101C 157.609,102.072 151.942,103.572 146.5,105.5C 146.5,104.833 146.5,104.167 146.5,103.5C 147.224,101.782 147.891,99.9483 148.5,98C 152.411,97.7899 156.078,97.9566 159.5,98.5C 163.37,97.6467 166.536,95.6467 169,92.5C 169.333,93.1667 169.667,93.8333 170,94.5C 170.199,92.5975 171.033,91.0975 172.5,90C 172.167,89.6667 171.833,89.3333 171.5,89C 174.191,89.0539 176.024,87.8872 177,85.5C 177.399,85.7284 177.565,86.0618 177.5,86.5 Z"/></g>
<g><path style="opacity:1" fill="#f4c56e" d="M 183.5,85.5 C 195.622,86.3484 207.622,88.0151 219.5,90.5C 219.184,93.9783 219.684,97.3117 221,100.5C 221.333,100.167 221.667,99.8333 222,99.5C 223.156,103.418 223.656,107.418 223.5,111.5C 222.508,111.328 221.842,111.662 221.5,112.5C 214.891,115.614 208.224,116.28 201.5,114.5C 202.26,113.107 202.926,111.607 203.5,110C 203.245,108.674 202.578,107.674 201.5,107C 204.288,104.626 203.954,103.293 200.5,103C 199.001,100.672 197.334,98.5054 195.5,96.5C 195.473,94.099 195.473,91.599 195.5,89C 192.628,88.6852 189.795,88.1852 187,87.5C 184.566,88.3223 182.066,88.6556 179.5,88.5C 180.448,87.0221 181.781,86.0221 183.5,85.5 Z"/></g>
<g><path style="opacity:1" fill="#edae54" d="M 58.5,108.5 C 57.3734,109.122 56.3734,109.955 55.5,111C 47.5228,111.932 39.5228,112.598 31.5,113C 32.4158,113.278 33.0825,113.778 33.5,114.5C 30.8333,114.5 28.1667,114.5 25.5,114.5C 25.44,113.957 25.1067,113.624 24.5,113.5C 23.265,114.34 22.265,115.34 21.5,116.5C 21.5,115.833 21.5,115.167 21.5,114.5C 22.3719,111.579 22.3719,108.579 21.5,105.5C 22.1504,103.553 23.317,101.887 25,100.5C 28.2751,102.091 31.2751,101.758 34,99.5C 40.2287,100.892 46.5621,101.892 53,102.5C 55.5072,103.822 57.3405,105.822 58.5,108.5 Z"/></g>
<g><path style="opacity:1" fill="#ca8b4d" d="M 73.5,83.5 C 74.1667,83.5 74.8333,83.5 75.5,83.5C 76.4467,85.2868 77.6134,86.9535 79,88.5C 79.1922,90.5767 79.6922,92.5767 80.5,94.5C 84.9585,97.3024 89.6252,99.6357 94.5,101.5C 99.2307,103.261 104.231,104.261 109.5,104.5C 112.262,108.274 113.262,112.607 112.5,117.5C 112.167,117.5 111.833,117.5 111.5,117.5C 110.98,114.092 109.98,110.759 108.5,107.5C 101.476,103.906 94.1428,102.906 86.5,104.5C 86.1667,104.833 85.8333,105.167 85.5,105.5C 87.1174,107.632 87.6174,109.965 87,112.5C 84.0656,112.055 80.8989,111.388 77.5,110.5C 76.2739,110.52 75.2739,110.853 74.5,111.5C 71.3704,111.401 68.7037,110.234 66.5,108C 66.8333,107.667 67.1667,107.333 67.5,107C 65.6711,106.727 64.1711,105.893 63,104.5C 61.9505,105.517 60.7839,105.684 59.5,105C 58.2489,100.81 59.5823,97.4765 63.5,95C 67.1788,94.1654 70.8454,93.332 74.5,92.5C 75.4519,90.9547 75.7852,89.288 75.5,87.5C 67.9213,87.0944 60.588,87.7611 53.5,89.5C 51.2646,89.7947 49.2646,89.4614 47.5,88.5C 56.4231,87.1263 65.4231,85.9596 74.5,85C 73.944,84.6174 73.6107,84.1174 73.5,83.5 Z"/></g>
<g><path style="opacity:1" fill="#c58748" d="M 188.5,95.5 C 189.5,95.5 190.5,95.5 191.5,95.5C 193.355,97.0331 195.188,98.6997 197,100.5C 198.041,103.636 197.207,106.136 194.5,108C 190.925,109.801 187.258,111.301 183.5,112.5C 183.183,109.428 183.516,106.428 184.5,103.5C 186.394,101.176 187.727,98.5091 188.5,95.5 Z"/></g>
<g><path style="opacity:1" fill="#fdd87f" d="M 219.5,90.5 C 231.443,94.6075 237.943,102.941 239,115.5C 239.823,124.01 239.657,132.344 238.5,140.5C 238.825,133.313 238.491,126.313 237.5,119.5C 236.077,116.043 234.077,112.71 231.5,109.5C 228.979,110.785 226.313,111.452 223.5,111.5C 223.656,107.418 223.156,103.418 222,99.5C 221.667,99.8333 221.333,100.167 221,100.5C 219.684,97.3117 219.184,93.9783 219.5,90.5 Z"/></g>
<g><path style="opacity:1" fill="#c48139" d="M 111.5,117.5 C 111.5,117.833 111.5,118.167 111.5,118.5C 99.8636,117.965 88.5303,116.298 77.5,113.5C 76.7095,112.599 75.7095,111.932 74.5,111.5C 75.2739,110.853 76.2739,110.52 77.5,110.5C 80.8989,111.388 84.0656,112.055 87,112.5C 87.6174,109.965 87.1174,107.632 85.5,105.5C 85.8333,105.167 86.1667,104.833 86.5,104.5C 94.1428,102.906 101.476,103.906 108.5,107.5C 109.98,110.759 110.98,114.092 111.5,117.5 Z"/></g>
<g><path style="opacity:1" fill="#d6933f" d="M 178.5,91.5 C 181.421,92.4812 184.421,93.3146 187.5,94C 188.056,94.3826 188.389,94.8826 188.5,95.5C 187.727,98.5091 186.394,101.176 184.5,103.5C 183.516,106.428 183.183,109.428 183.5,112.5C 170.72,115.796 157.72,117.463 144.5,117.5C 144.5,114.5 144.5,111.5 144.5,108.5C 145.167,107.5 145.833,106.5 146.5,105.5C 151.942,103.572 157.609,102.072 163.5,101C 164.858,100.066 166.192,99.2323 167.5,98.5C 168.873,98.6567 170.207,98.49 171.5,98C 173.703,95.6278 176.037,93.4611 178.5,91.5 Z"/></g>
<g><path style="opacity:1" fill="#f8e0e9" d="M 142.5,107.5 C 142.5,110.833 142.5,114.167 142.5,117.5C 137.5,117.5 132.5,117.5 127.5,117.5C 129.108,112.931 130.441,108.265 131.5,103.5C 136.094,102.657 139.761,103.991 142.5,107.5 Z"/></g>
<g><path style="opacity:1" fill="#f0ba65" d="M 191.5,95.5 C 192.959,95.4326 194.292,95.7659 195.5,96.5C 197.334,98.5054 199.001,100.672 200.5,103C 203.954,103.293 204.288,104.626 201.5,107C 202.578,107.674 203.245,108.674 203.5,110C 202.926,111.607 202.26,113.107 201.5,114.5C 195.83,115.703 190.164,116.87 184.5,118C 171.66,118.573 158.993,119.406 146.5,120.5C 143.167,120.5 139.833,120.5 136.5,120.5C 127.983,120.826 119.65,120.493 111.5,119.5C 122.884,120.144 133.884,119.477 144.5,117.5C 157.72,117.463 170.72,115.796 183.5,112.5C 187.258,111.301 190.925,109.801 194.5,108C 197.207,106.136 198.041,103.636 197,100.5C 195.188,98.6997 193.355,97.0331 191.5,95.5 Z"/></g>
<g><path style="opacity:1" fill="#f3b450" d="M 58.5,108.5 C 61.0649,110.688 64.0649,111.688 67.5,111.5C 70.698,112.787 74.0314,113.453 77.5,113.5C 88.5303,116.298 99.8636,117.965 111.5,118.5C 111.5,118.833 111.5,119.167 111.5,119.5C 119.65,120.493 127.983,120.826 136.5,120.5C 125.346,121.495 114.012,121.828 102.5,121.5C 81.6455,120.189 60.6455,118.856 39.5,117.5C 37.8439,115.94 35.8439,114.94 33.5,114.5C 33.0825,113.778 32.4158,113.278 31.5,113C 39.5228,112.598 47.5228,111.932 55.5,111C 56.3734,109.955 57.3734,109.122 58.5,108.5 Z"/></g>
<g><path style="opacity:1" fill="#f9d8c0" d="M 146.5,105.5 C 145.833,106.5 145.167,107.5 144.5,108.5C 143.521,111.625 143.187,114.958 143.5,118.5C 133.319,118.827 123.319,118.494 113.5,117.5C 115.167,117.5 116.833,117.5 118.5,117.5C 121.5,117.5 124.5,117.5 127.5,117.5C 132.5,117.5 137.5,117.5 142.5,117.5C 142.5,114.167 142.5,110.833 142.5,107.5C 143.605,106.4 144.938,105.733 146.5,105.5 Z"/></g>
<g><path style="opacity:1" fill="#e9b983" d="M 144.5,108.5 C 144.5,111.5 144.5,114.5 144.5,117.5C 133.884,119.477 122.884,120.144 111.5,119.5C 111.5,119.167 111.5,118.833 111.5,118.5C 111.5,118.167 111.5,117.833 111.5,117.5C 111.833,117.5 112.167,117.5 112.5,117.5C 112.833,117.5 113.167,117.5 113.5,117.5C 123.319,118.494 133.319,118.827 143.5,118.5C 143.187,114.958 143.521,111.625 144.5,108.5 Z"/></g>
<g><path style="opacity:1" fill="#f8c15b" d="M 221.5,112.5 C 220.257,114.164 218.59,115.331 216.5,116C 210.616,116.315 204.949,117.149 199.5,118.5C 198.609,119.11 197.609,119.443 196.5,119.5C 179.831,119.735 163.164,120.068 146.5,120.5C 158.993,119.406 171.66,118.573 184.5,118C 190.164,116.87 195.83,115.703 201.5,114.5C 208.224,116.28 214.891,115.614 221.5,112.5 Z"/></g>
<g><path style="opacity:1" fill="#f0a627" d="M 37.5,118.5 C 50.0168,122.451 62.6834,125.784 75.5,128.5C 68.9093,130.927 62.2426,132.261 55.5,132.5C 54.8826,132.611 54.3826,132.944 54,133.5C 49.1265,132.313 44.2932,130.98 39.5,129.5C 38.9146,126.751 38.9146,124.084 39.5,121.5C 37.7801,120.066 35.7801,119.233 33.5,119C 34.7932,118.51 36.1266,118.343 37.5,118.5 Z"/></g>
<g><path style="opacity:1" fill="#fdc839" d="M 191.5,125.5 C 189.383,124.986 187.216,124.653 185,124.5C 180.633,125.85 176.133,126.517 171.5,126.5C 160.254,126.249 159.921,124.749 170.5,122C 179.341,121.396 188.008,120.563 196.5,119.5C 197.609,119.443 198.609,119.11 199.5,118.5C 207.583,118.316 215.583,118.316 223.5,118.5C 212.91,121.351 202.244,123.684 191.5,125.5 Z"/></g>
<g><path style="opacity:1" fill="#f8b430" d="M 37.5,118.5 C 37.8417,117.662 38.5084,117.328 39.5,117.5C 60.6455,118.856 81.6455,120.189 102.5,121.5C 103.263,122.268 104.263,122.768 105.5,123C 104.333,123.167 103.167,123.333 102,123.5C 96.5294,122.682 91.0294,122.348 85.5,122.5C 85.5,123.5 85.5,124.5 85.5,125.5C 88.838,126.716 92.838,128.049 97.5,129.5C 99.4531,128.976 101.12,127.976 102.5,126.5C 122.164,127.303 141.831,127.636 161.5,127.5C 161.5,128.167 161.167,128.5 160.5,128.5C 142.934,127.688 125.434,128.688 108,131.5C 104.183,130.931 100.349,130.597 96.5,130.5C 94.5648,129.85 92.5648,129.517 90.5,129.5C 85.6946,128.513 80.6946,128.179 75.5,128.5C 62.6834,125.784 50.0168,122.451 37.5,118.5 Z"/></g>
<g><path style="opacity:1" fill="#fcbd32" d="M 196.5,119.5 C 188.008,120.563 179.341,121.396 170.5,122C 159.921,124.749 160.254,126.249 171.5,126.5C 176.133,126.517 180.633,125.85 185,124.5C 187.216,124.653 189.383,124.986 191.5,125.5C 191.5,125.833 191.5,126.167 191.5,126.5C 181.524,127.332 171.524,127.666 161.5,127.5C 141.831,127.636 122.164,127.303 102.5,126.5C 101.12,127.976 99.4531,128.976 97.5,129.5C 92.838,128.049 88.838,126.716 85.5,125.5C 85.5,124.5 85.5,123.5 85.5,122.5C 91.0294,122.348 96.5294,122.682 102,123.5C 103.167,123.333 104.333,123.167 105.5,123C 104.263,122.768 103.263,122.268 102.5,121.5C 114.012,121.828 125.346,121.495 136.5,120.5C 139.833,120.5 143.167,120.5 146.5,120.5C 163.164,120.068 179.831,119.735 196.5,119.5 Z"/></g>
<g><path style="opacity:1" fill="#fed75b" d="M 237.5,119.5 C 237.321,128.068 236.321,136.401 234.5,144.5C 234.818,139.968 234.485,135.634 233.5,131.5C 231.672,123.16 227.005,121.326 219.5,126C 217.043,127.512 217.043,128.846 219.5,130C 218.096,132.324 216.096,133.824 213.5,134.5C 212.167,134.5 210.833,134.5 209.5,134.5C 209.158,133.662 208.492,133.328 207.5,133.5C 202.869,132.671 198.202,132.004 193.5,131.5C 195.401,128.672 194.734,127.006 191.5,126.5C 191.5,126.167 191.5,125.833 191.5,125.5C 202.244,123.684 212.91,121.351 223.5,118.5C 215.583,118.316 207.583,118.316 199.5,118.5C 204.949,117.149 210.616,116.315 216.5,116C 218.59,115.331 220.257,114.164 221.5,112.5C 221.842,111.662 222.508,111.328 223.5,111.5C 226.313,111.452 228.979,110.785 231.5,109.5C 234.077,112.71 236.077,116.043 237.5,119.5 Z"/></g>
<g><path style="opacity:1" fill="#f9c85d" d="M 191.5,126.5 C 194.734,127.006 195.401,128.672 193.5,131.5C 198.202,132.004 202.869,132.671 207.5,133.5C 206.992,135.233 206.159,135.566 205,134.5C 201.791,136.312 198.791,136.312 196,134.5C 195.821,138.535 197.655,141.535 201.5,143.5C 202.421,145.777 203.087,148.11 203.5,150.5C 200.191,144.192 195.524,139.192 189.5,135.5C 180.725,129.644 171.059,127.977 160.5,130.5C 160.5,129.833 160.5,129.167 160.5,128.5C 161.167,128.5 161.5,128.167 161.5,127.5C 171.524,127.666 181.524,127.332 191.5,126.5 Z"/></g>
<g><path style="opacity:1" fill="#ed992b" d="M 25.5,114.5 C 28.1667,114.5 30.8333,114.5 33.5,114.5C 35.8439,114.94 37.8439,115.94 39.5,117.5C 38.5084,117.328 37.8417,117.662 37.5,118.5C 36.1266,118.343 34.7932,118.51 33.5,119C 35.7801,119.233 37.7801,120.066 39.5,121.5C 38.9146,124.084 38.9146,126.751 39.5,129.5C 44.2932,130.98 49.1265,132.313 54,133.5C 54.3826,132.944 54.8826,132.611 55.5,132.5C 56.2778,133.156 56.9444,133.989 57.5,135C 56.6854,136.643 55.6854,138.143 54.5,139.5C 50.8183,139.335 47.1516,139.501 43.5,140C 43,140.5 42.5,141 42,141.5C 40.5806,140.54 39.0806,139.707 37.5,139C 38.8333,138.333 39.8333,137.333 40.5,136C 38.4132,136.218 36.4132,136.051 34.5,135.5C 33.2532,133.958 33.2532,132.458 34.5,131C 32.4155,129.229 30.0822,127.896 27.5,127C 28.0418,124.073 27.3752,121.24 25.5,118.5C 26.6682,117.094 26.3348,115.928 24.5,115C 24.7284,114.601 25.0618,114.435 25.5,114.5 Z"/></g>
<g><path style="opacity:1" fill="#feb846" d="M 160.5,128.5 C 160.5,129.167 160.5,129.833 160.5,130.5C 160.167,130.5 159.833,130.5 159.5,130.5C 155.077,130.357 151.577,132.024 149,135.5C 147.176,134.251 147.343,133.085 149.5,132C 137.924,133.254 126.091,134.754 114,136.5C 112.343,135.516 110.677,134.516 109,133.5C 108.311,134.357 107.478,135.023 106.5,135.5C 104.827,133.914 102.827,133.247 100.5,133.5C 99.4097,132.143 98.0764,131.143 96.5,130.5C 100.349,130.597 104.183,130.931 108,131.5C 125.434,128.688 142.934,127.688 160.5,128.5 Z"/></g>
<g><path style="opacity:1" fill="#fef4d4" d="M 189.5,135.5 C 183.95,132.986 178.116,131.319 172,130.5C 165.129,131.075 158.629,132.741 152.5,135.5C 154.576,133.416 156.91,131.749 159.5,130.5C 159.833,130.5 160.167,130.5 160.5,130.5C 171.059,127.977 180.725,129.644 189.5,135.5 Z"/></g>
<g><path style="opacity:1" fill="#fdfcfa" d="M 101.5,135.5 C 104.987,136.745 107.987,138.745 110.5,141.5C 116.695,150.114 119.028,159.781 117.5,170.5C 114.138,179.207 108.804,186.541 101.5,192.5C 98.2558,193.463 95.2558,194.796 92.5,196.5C 82.0149,197.79 72.3483,195.79 63.5,190.5C 60.5,187.167 57.5,183.833 54.5,180.5C 50.9232,172.938 49.5898,164.938 50.5,156.5C 50.5,155.833 50.5,155.167 50.5,154.5C 52.6316,149.575 55.2983,144.908 58.5,140.5C 61.705,136.626 65.705,133.96 70.5,132.5C 74.3052,131.733 78.1385,131.067 82,130.5C 88.3222,132.578 94.8222,134.244 101.5,135.5 Z"/></g>
<g><path style="opacity:1" fill="#f2c979" d="M 90.5,129.5 C 92.5648,129.517 94.5648,129.85 96.5,130.5C 98.0764,131.143 99.4097,132.143 100.5,133.5C 96.8512,132.733 93.5178,131.4 90.5,129.5 Z"/></g>
<g><path style="opacity:1" fill="#fdfcfa" d="M 189.5,135.5 C 195.524,139.192 200.191,144.192 203.5,150.5C 203.448,152.903 203.781,155.236 204.5,157.5C 204.587,162.537 204.254,167.537 203.5,172.5C 201.782,175.983 200.449,179.649 199.5,183.5C 195.344,186.811 191.01,189.977 186.5,193C 183.338,194.027 180.338,195.194 177.5,196.5C 172.5,196.5 167.5,196.5 162.5,196.5C 153.136,193.15 145.803,187.15 140.5,178.5C 137.87,171.099 136.87,163.432 137.5,155.5C 139.47,149.558 142.47,144.225 146.5,139.5C 148.246,137.748 150.246,136.415 152.5,135.5C 158.629,132.741 165.129,131.075 172,130.5C 178.116,131.319 183.95,132.986 189.5,135.5 Z"/></g>
<g><path style="opacity:1" fill="#fdf9e3" d="M 90.5,129.5 C 93.5178,131.4 96.8512,132.733 100.5,133.5C 100.833,134.167 101.167,134.833 101.5,135.5C 94.8222,134.244 88.3222,132.578 82,130.5C 78.1385,131.067 74.3052,131.733 70.5,132.5C 72.0188,131.59 73.6854,130.757 75.5,130C 80.4889,129.501 85.4889,129.334 90.5,129.5 Z"/></g>
<g><path style="opacity:1" fill="#fdd344" d="M 233.5,131.5 C 231.896,132.287 231.229,133.62 231.5,135.5C 229.516,135.383 227.85,136.05 226.5,137.5C 222.893,138.489 219.226,138.823 215.5,138.5C 215.473,136.801 214.806,135.467 213.5,134.5C 216.096,133.824 218.096,132.324 219.5,130C 217.043,128.846 217.043,127.512 219.5,126C 227.005,121.326 231.672,123.16 233.5,131.5 Z"/></g>
<g><path style="opacity:1" fill="#d4993a" d="M 75.5,128.5 C 80.6946,128.179 85.6946,128.513 90.5,129.5C 85.4889,129.334 80.4889,129.501 75.5,130C 73.6854,130.757 72.0188,131.59 70.5,132.5C 65.705,133.96 61.705,136.626 58.5,140.5C 55.5161,142.09 53.1828,144.423 51.5,147.5C 50.4017,146.399 50.235,145.066 51,143.5C 52.6268,142.468 53.7934,141.134 54.5,139.5C 55.6854,138.143 56.6854,136.643 57.5,135C 56.9444,133.989 56.2778,133.156 55.5,132.5C 62.2426,132.261 68.9093,130.927 75.5,128.5 Z"/></g>
<g><path style="opacity:1" fill="#fdb250" d="M 159.5,130.5 C 156.91,131.749 154.576,133.416 152.5,135.5C 150.246,136.415 148.246,137.748 146.5,139.5C 145.078,139.75 144.078,140.583 143.5,142C 138.342,142.558 135.509,146.058 135,152.5C 134.333,151.833 133.667,151.167 133,150.5C 131.028,151.305 129.528,152.639 128.5,154.5C 127.571,153.311 127.238,151.978 127.5,150.5C 125.801,150.34 124.134,150.506 122.5,151C 122.026,152.729 121.026,153.895 119.5,154.5C 116.648,152.427 115.982,149.761 117.5,146.5C 116.726,145.289 115.893,145.289 115,146.5C 114.329,144 112.829,142.333 110.5,141.5C 107.987,138.745 104.987,136.745 101.5,135.5C 101.167,134.833 100.833,134.167 100.5,133.5C 102.827,133.247 104.827,133.914 106.5,135.5C 107.478,135.023 108.311,134.357 109,133.5C 110.677,134.516 112.343,135.516 114,136.5C 126.091,134.754 137.924,133.254 149.5,132C 147.343,133.085 147.176,134.251 149,135.5C 151.577,132.024 155.077,130.357 159.5,130.5 Z"/></g>
<g><path style="opacity:1" fill="#dc8f55" d="M 20.5,101.5 C 21.2341,102.708 21.5674,104.041 21.5,105.5C 22.3719,108.579 22.3719,111.579 21.5,114.5C 20.8826,114.611 20.3826,114.944 20,115.5C 19.6218,128.875 20.2885,142.208 22,155.5C 23.1232,161.398 25.2898,166.732 28.5,171.5C 28.5,173.5 28.5,175.5 28.5,177.5C 29.5,177.5 30.5,177.5 31.5,177.5C 31.5,178.167 31.5,178.833 31.5,179.5C 30.1667,179.5 28.8333,179.5 27.5,179.5C 27.6621,177.473 27.4955,175.473 27,173.5C 25.8545,172.316 24.6879,172.316 23.5,173.5C 22.7659,172.292 22.4326,170.959 22.5,169.5C 22.5191,167.94 22.8524,166.44 23.5,165C 22.6831,163.51 21.8498,162.01 21,160.5C 17.9644,143.668 16.7977,126.668 17.5,109.5C 17.7329,106.458 18.7329,103.792 20.5,101.5 Z"/></g>
<g><path style="opacity:0.783" fill="#d39773" d="M 17.5,109.5 C 16.7977,126.668 17.9644,143.668 21,160.5C 21.8498,162.01 22.6831,163.51 23.5,165C 22.8524,166.44 22.5191,167.94 22.5,169.5C 15.4661,149.907 13.7994,129.907 17.5,109.5 Z"/></g>
<g><path style="opacity:1" fill="#e38c2e" d="M 25.5,114.5 C 25.0618,114.435 24.7284,114.601 24.5,115C 26.3348,115.928 26.6682,117.094 25.5,118.5C 27.3752,121.24 28.0418,124.073 27.5,127C 30.0822,127.896 32.4155,129.229 34.5,131C 33.2532,132.458 33.2532,133.958 34.5,135.5C 36.4132,136.051 38.4132,136.218 40.5,136C 39.8333,137.333 38.8333,138.333 37.5,139C 39.0806,139.707 40.5806,140.54 42,141.5C 42.5,141 43,140.5 43.5,140C 47.1516,139.501 50.8183,139.335 54.5,139.5C 53.7934,141.134 52.6268,142.468 51,143.5C 50.235,145.066 50.4017,146.399 51.5,147.5C 51.5,147.833 51.5,148.167 51.5,148.5C 49.6527,151.171 46.986,152.171 43.5,151.5C 43.67,152.822 43.3366,153.989 42.5,155C 38.4044,155.626 34.4044,157.126 30.5,159.5C 29.8676,156.898 28.8676,154.564 27.5,152.5C 27.5356,146.774 25.8689,141.607 22.5,137C 22.6448,136.228 22.9781,135.561 23.5,135C 21.5698,129.126 20.9032,122.96 21.5,116.5C 22.265,115.34 23.265,114.34 24.5,113.5C 25.1067,113.624 25.44,113.957 25.5,114.5 Z"/></g>
<g><path style="opacity:1" fill="#fdc447" d="M 207.5,133.5 C 208.492,133.328 209.158,133.662 209.5,134.5C 208.485,135.46 208.485,136.627 209.5,138C 208.978,138.95 208.311,139.784 207.5,140.5C 209.155,143.153 211.155,145.486 213.5,147.5C 211.89,149.725 210.557,152.059 209.5,154.5C 208.504,154.414 207.671,154.748 207,155.5C 206.501,159.486 206.334,163.486 206.5,167.5C 206.167,167.5 205.833,167.5 205.5,167.5C 205.813,163.958 205.479,160.625 204.5,157.5C 203.781,155.236 203.448,152.903 203.5,150.5C 203.087,148.11 202.421,145.777 201.5,143.5C 197.655,141.535 195.821,138.535 196,134.5C 198.791,136.312 201.791,136.312 205,134.5C 206.159,135.566 206.992,135.233 207.5,133.5 Z"/></g>
<g><path style="opacity:1" fill="#bb8243" d="M 58.5,140.5 C 55.2983,144.908 52.6316,149.575 50.5,154.5C 50.5,153.833 50.5,153.167 50.5,152.5C 51.2341,151.292 51.5674,149.959 51.5,148.5C 51.5,148.167 51.5,147.833 51.5,147.5C 53.1828,144.423 55.5161,142.09 58.5,140.5 Z"/></g>
<g><path style="opacity:1" fill="#fec539" d="M 233.5,131.5 C 234.485,135.634 234.818,139.968 234.5,144.5C 233.077,147.957 231.077,151.29 228.5,154.5C 229.015,157.157 228.515,159.823 227,162.5C 224.852,163.805 223.352,165.638 222.5,168C 221.552,168.483 220.552,168.649 219.5,168.5C 219.719,169.675 219.386,170.675 218.5,171.5C 214.683,169.024 212.016,165.69 210.5,161.5C 210.875,159.541 211.541,157.707 212.5,156C 211.756,154.961 210.756,154.461 209.5,154.5C 210.557,152.059 211.89,149.725 213.5,147.5C 211.155,145.486 209.155,143.153 207.5,140.5C 208.311,139.784 208.978,138.95 209.5,138C 208.485,136.627 208.485,135.46 209.5,134.5C 210.833,134.5 212.167,134.5 213.5,134.5C 214.806,135.467 215.473,136.801 215.5,138.5C 219.226,138.823 222.893,138.489 226.5,137.5C 227.85,136.05 229.516,135.383 231.5,135.5C 231.229,133.62 231.896,132.287 233.5,131.5 Z"/></g>
<g><path style="opacity:1" fill="#d87e2f" d="M 51.5,148.5 C 51.5674,149.959 51.2341,151.292 50.5,152.5C 49.5416,152.953 48.7083,153.619 48,154.5C 45.6551,159.206 44.3218,164.206 44,169.5C 41.3456,169.746 38.679,169.079 36,167.5C 34.951,169.107 33.451,169.773 31.5,169.5C 29.1725,168.264 28.0058,166.264 28,163.5C 27.5014,159.848 27.3347,156.182 27.5,152.5C 28.8676,154.564 29.8676,156.898 30.5,159.5C 34.4044,157.126 38.4044,155.626 42.5,155C 43.3366,153.989 43.67,152.822 43.5,151.5C 46.986,152.171 49.6527,151.171 51.5,148.5 Z"/></g>
<g><path style="opacity:1" fill="#3f2b31" d="M 91.5,147.5 C 105.313,147.145 111.813,153.812 111,167.5C 105.792,178.46 97.6255,181.293 86.5,176C 79.3748,168.54 78.7081,160.54 84.5,152C 86.8981,150.476 89.2314,148.976 91.5,147.5 Z"/></g>
<g><path style="opacity:1" fill="#fba655" d="M 146.5,139.5 C 142.47,144.225 139.47,149.558 137.5,155.5C 137.167,155.5 136.833,155.5 136.5,155.5C 136.167,155.5 135.833,155.5 135.5,155.5C 135.44,154.957 135.107,154.624 134.5,154.5C 131.196,154.678 129.529,156.344 129.5,159.5C 128.127,159.343 126.793,159.51 125.5,160C 124.449,161.385 123.116,162.385 121.5,163C 121.833,163.333 122.167,163.667 122.5,164C 121.809,165.067 121.309,166.234 121,167.5C 119.569,163.365 119.069,159.032 119.5,154.5C 121.026,153.895 122.026,152.729 122.5,151C 124.134,150.506 125.801,150.34 127.5,150.5C 127.238,151.978 127.571,153.311 128.5,154.5C 129.528,152.639 131.028,151.305 133,150.5C 133.667,151.167 134.333,151.833 135,152.5C 135.509,146.058 138.342,142.558 143.5,142C 144.078,140.583 145.078,139.75 146.5,139.5 Z"/></g>
<g><path style="opacity:1" fill="#f8c170" d="M 237.5,119.5 C 238.491,126.313 238.825,133.313 238.5,140.5C 237.776,155.07 234.109,168.737 227.5,181.5C 227.18,178.102 227.513,174.768 228.5,171.5C 230.483,169.19 231.483,166.523 231.5,163.5C 233.256,157.299 234.256,150.965 234.5,144.5C 236.321,136.401 237.321,128.068 237.5,119.5 Z"/></g>
<g><path style="opacity:1" fill="#de853f" d="M 21.5,114.5 C 21.5,115.167 21.5,115.833 21.5,116.5C 20.9032,122.96 21.5698,129.126 23.5,135C 22.9781,135.561 22.6448,136.228 22.5,137C 25.8689,141.607 27.5356,146.774 27.5,152.5C 27.3347,156.182 27.5014,159.848 28,163.5C 28.0058,166.264 29.1725,168.264 31.5,169.5C 30.7095,170.401 29.7095,171.068 28.5,171.5C 25.2898,166.732 23.1232,161.398 22,155.5C 20.2885,142.208 19.6218,128.875 20,115.5C 20.3826,114.944 20.8826,114.611 21.5,114.5 Z"/></g>
<g><path style="opacity:1" fill="#402a32" d="M 154.5,147.5 C 169.509,146.674 176.009,153.674 174,168.5C 169.154,178.168 161.654,181.001 151.5,177C 143.512,171.032 141.679,163.532 146,154.5C 148.441,151.546 151.275,149.213 154.5,147.5 Z"/></g>
<g><path style="opacity:1" fill="#efc679" d="M 204.5,157.5 C 205.479,160.625 205.813,163.958 205.5,167.5C 205.204,169.403 204.537,171.07 203.5,172.5C 204.254,167.537 204.587,162.537 204.5,157.5 Z"/></g>
<g><path style="opacity:1" fill="#feba3c" d="M 234.5,144.5 C 234.256,150.965 233.256,157.299 231.5,163.5C 230.639,166.04 228.972,168.04 226.5,169.5C 225.391,171.385 224.557,173.385 224,175.5C 223.329,176.252 222.496,176.586 221.5,176.5C 220.5,176.5 219.5,176.5 218.5,176.5C 218.649,177.552 218.483,178.552 218,179.5C 217.259,178.359 216.425,178.359 215.5,179.5C 213.695,177.407 211.362,176.24 208.5,176C 207.518,173.262 206.852,170.428 206.5,167.5C 206.334,163.486 206.501,159.486 207,155.5C 207.671,154.748 208.504,154.414 209.5,154.5C 210.756,154.461 211.756,154.961 212.5,156C 211.541,157.707 210.875,159.541 210.5,161.5C 212.016,165.69 214.683,169.024 218.5,171.5C 219.386,170.675 219.719,169.675 219.5,168.5C 220.552,168.649 221.552,168.483 222.5,168C 223.352,165.638 224.852,163.805 227,162.5C 228.515,159.823 229.015,157.157 228.5,154.5C 231.077,151.29 233.077,147.957 234.5,144.5 Z"/></g>
<g><path style="opacity:1" fill="#f79f59" d="M 110.5,141.5 C 112.829,142.333 114.329,144 115,146.5C 115.893,145.289 116.726,145.289 117.5,146.5C 115.982,149.761 116.648,152.427 119.5,154.5C 119.069,159.032 119.569,163.365 121,167.5C 121.309,166.234 121.809,165.067 122.5,164C 122.167,163.667 121.833,163.333 121.5,163C 123.116,162.385 124.449,161.385 125.5,160C 126.793,159.51 128.127,159.343 129.5,159.5C 129.529,156.344 131.196,154.678 134.5,154.5C 135.107,154.624 135.44,154.957 135.5,155.5C 135.5,160.833 135.5,166.167 135.5,171.5C 133.326,171.08 131.326,171.08 129.5,171.5C 128.281,170.737 127.281,169.737 126.5,168.5C 124.907,170.806 123.407,173.139 122,175.5C 120.382,171.189 118.882,170.855 117.5,174.5C 117.5,173.167 117.5,171.833 117.5,170.5C 119.028,159.781 116.695,150.114 110.5,141.5 Z"/></g>
<g><path style="opacity:1" fill="#bf7643" d="M 50.5,156.5 C 49.5898,164.938 50.9232,172.938 54.5,180.5C 53.5041,180.586 52.6708,180.252 52,179.5C 51.479,176.126 50.1457,173.126 48,170.5C 47.6096,167.161 47.7762,163.827 48.5,160.5C 48.5854,158.667 49.2521,157.334 50.5,156.5 Z"/></g>
<g><path style="opacity:1" fill="#d57538" d="M 50.5,152.5 C 50.5,153.167 50.5,153.833 50.5,154.5C 50.5,155.167 50.5,155.833 50.5,156.5C 49.2521,157.334 48.5854,158.667 48.5,160.5C 47.7762,163.827 47.6096,167.161 48,170.5C 50.1457,173.126 51.479,176.126 52,179.5C 52.6708,180.252 53.5041,180.586 54.5,180.5C 52.8597,182.169 51.5263,184.169 50.5,186.5C 49.2643,187.357 47.931,188.023 46.5,188.5C 44.2241,187.787 41.8907,187.287 39.5,187C 37.1532,183.413 34.4866,180.246 31.5,177.5C 30.5,177.5 29.5,177.5 28.5,177.5C 28.5,175.5 28.5,173.5 28.5,171.5C 29.7095,171.068 30.7095,170.401 31.5,169.5C 33.451,169.773 34.951,169.107 36,167.5C 38.679,169.079 41.3456,169.746 44,169.5C 44.3218,164.206 45.6551,159.206 48,154.5C 48.7083,153.619 49.5416,152.953 50.5,152.5 Z"/></g>
<g><path style="opacity:1" fill="#e99c72" d="M 117.5,170.5 C 117.5,171.833 117.5,173.167 117.5,174.5C 117.662,176.527 117.495,178.527 117,180.5C 116.586,180.043 116.086,179.709 115.5,179.5C 115.025,182.155 113.691,184.155 111.5,185.5C 108.701,188.637 105.368,190.971 101.5,192.5C 108.804,186.541 114.138,179.207 117.5,170.5 Z"/></g>
<g><path style="opacity:1" fill="#fdaf41" d="M 205.5,167.5 C 205.833,167.5 206.167,167.5 206.5,167.5C 206.852,170.428 207.518,173.262 208.5,176C 211.362,176.24 213.695,177.407 215.5,179.5C 216.425,178.359 217.259,178.359 218,179.5C 218.483,178.552 218.649,177.552 218.5,176.5C 219.5,176.5 220.5,176.5 221.5,176.5C 219.069,178.068 219.069,179.568 221.5,181C 219.381,184.43 216.381,186.597 212.5,187.5C 211.268,191.397 208.601,193.397 204.5,193.5C 200.636,191.974 196.636,191.308 192.5,191.5C 194.833,188.833 197.167,186.167 199.5,183.5C 200.449,179.649 201.782,175.983 203.5,172.5C 204.537,171.07 205.204,169.403 205.5,167.5 Z"/></g>
<g><path style="opacity:1" fill="#e5865a" d="M 136.5,155.5 C 136.833,155.5 137.167,155.5 137.5,155.5C 136.87,163.432 137.87,171.099 140.5,178.5C 139.681,181.305 139.181,184.305 139,187.5C 137.442,188.345 136.442,187.679 136,185.5C 134.989,186.337 133.822,186.67 132.5,186.5C 132.062,186.565 131.728,186.399 131.5,186C 133.004,184.509 133.837,182.676 134,180.5C 134.333,180.833 134.667,181.167 135,181.5C 136.145,172.87 136.645,164.203 136.5,155.5 Z"/></g>
<g><path style="opacity:1" fill="#f6935a" d="M 135.5,155.5 C 135.833,155.5 136.167,155.5 136.5,155.5C 136.645,164.203 136.145,172.87 135,181.5C 134.667,181.167 134.333,180.833 134,180.5C 133.837,182.676 133.004,184.509 131.5,186C 131.728,186.399 132.062,186.565 132.5,186.5C 130.143,188.098 127.477,189.098 124.5,189.5C 122.958,190.301 121.292,190.634 119.5,190.5C 116.746,190.784 114.08,191.451 111.5,192.5C 114.081,194.171 113.748,194.671 110.5,194C 109.833,192.667 108.833,191.667 107.5,191C 109.464,189.549 110.797,187.716 111.5,185.5C 113.691,184.155 115.025,182.155 115.5,179.5C 116.086,179.709 116.586,180.043 117,180.5C 117.495,178.527 117.662,176.527 117.5,174.5C 118.882,170.855 120.382,171.189 122,175.5C 123.407,173.139 124.907,170.806 126.5,168.5C 127.281,169.737 128.281,170.737 129.5,171.5C 131.326,171.08 133.326,171.08 135.5,171.5C 135.5,166.167 135.5,160.833 135.5,155.5 Z"/></g>
<g><path style="opacity:1" fill="#d67248" d="M 31.5,177.5 C 34.4866,180.246 37.1532,183.413 39.5,187C 41.8907,187.287 44.2241,187.787 46.5,188.5C 47.931,188.023 49.2643,187.357 50.5,186.5C 51.5263,184.169 52.8597,182.169 54.5,180.5C 57.5,183.833 60.5,187.167 63.5,190.5C 63.5,190.833 63.5,191.167 63.5,191.5C 61.0459,191.679 58.8792,191.013 57,189.5C 54.5364,190.763 53.3697,192.763 53.5,195.5C 49.4037,196.285 46.0704,195.118 43.5,192C 41.7525,191.648 40.0858,191.148 38.5,190.5C 36.5107,188.01 34.3441,185.677 32,183.5C 31.51,182.207 31.3433,180.873 31.5,179.5C 31.5,178.833 31.5,178.167 31.5,177.5 Z"/></g>
<g><path style="opacity:1" fill="#efb376" d="M 199.5,183.5 C 197.167,186.167 194.833,188.833 192.5,191.5C 190.326,191.75 188.659,192.75 187.5,194.5C 186.292,195.234 184.959,195.567 183.5,195.5C 181.565,196.15 179.565,196.483 177.5,196.5C 180.338,195.194 183.338,194.027 186.5,193C 191.01,189.977 195.344,186.811 199.5,183.5 Z"/></g>
<g><path style="opacity:1" fill="#c97c5f" d="M 31.5,179.5 C 31.3433,180.873 31.51,182.207 32,183.5C 34.3441,185.677 36.5107,188.01 38.5,190.5C 38.5,190.833 38.5,191.167 38.5,191.5C 37.6618,191.842 37.3284,192.508 37.5,193.5C 36.1805,192.058 34.5138,191.392 32.5,191.5C 28.9728,185.779 25.9728,179.779 23.5,173.5C 24.6879,172.316 25.8545,172.316 27,173.5C 27.4955,175.473 27.6621,177.473 27.5,179.5C 28.8333,179.5 30.1667,179.5 31.5,179.5 Z"/></g>
<g><path style="opacity:1" fill="#df5279" d="M 124.5,189.5 C 127.518,189.335 130.518,189.502 133.5,190C 135.426,190.422 136.426,191.589 136.5,193.5C 130.677,191.294 124.677,190.961 118.5,192.5C 118.833,191.833 119.167,191.167 119.5,190.5C 121.292,190.634 122.958,190.301 124.5,189.5 Z"/></g>
<g><path style="opacity:1" fill="#e87860" d="M 140.5,178.5 C 145.803,187.15 153.136,193.15 162.5,196.5C 162.918,197.222 163.584,197.722 164.5,198C 159.191,199.926 154.024,199.76 149,197.5C 148.056,198.263 147.556,199.263 147.5,200.5C 149.049,202.902 149.716,205.568 149.5,208.5C 149.119,212.119 148.119,215.452 146.5,218.5C 148.368,211.709 147.701,205.375 144.5,199.5C 144.167,199.5 143.833,199.5 143.5,199.5C 142.388,196.054 140.055,194.054 136.5,193.5C 136.426,191.589 135.426,190.422 133.5,190C 130.518,189.502 127.518,189.335 124.5,189.5C 127.477,189.098 130.143,188.098 132.5,186.5C 133.822,186.67 134.989,186.337 136,185.5C 136.442,187.679 137.442,188.345 139,187.5C 139.181,184.305 139.681,181.305 140.5,178.5 Z"/></g>
<g><path style="opacity:1" fill="#fda650" d="M 231.5,163.5 C 231.483,166.523 230.483,169.19 228.5,171.5C 227.513,174.768 227.18,178.102 227.5,181.5C 226.448,181.351 225.448,181.517 224.5,182C 222.71,185.987 220.21,189.487 217,192.5C 213.053,194.618 209.553,197.285 206.5,200.5C 200.647,202.399 194.647,202.899 188.5,202C 188.833,201.667 189.167,201.333 189.5,201C 187.771,199.211 187.104,197.044 187.5,194.5C 188.659,192.75 190.326,191.75 192.5,191.5C 196.636,191.308 200.636,191.974 204.5,193.5C 208.601,193.397 211.268,191.397 212.5,187.5C 216.381,186.597 219.381,184.43 221.5,181C 219.069,179.568 219.069,178.068 221.5,176.5C 222.496,176.586 223.329,176.252 224,175.5C 224.557,173.385 225.391,171.385 226.5,169.5C 228.972,168.04 230.639,166.04 231.5,163.5 Z"/></g>
<g><path style="opacity:1" fill="#cd7677" d="M 32.5,191.5 C 34.5138,191.392 36.1805,192.058 37.5,193.5C 39.7563,195.917 42.2563,198.251 45,200.5C 45.49,201.793 45.6567,203.127 45.5,204.5C 45.6716,205.492 45.3382,206.158 44.5,206.5C 39.7705,202.102 35.7705,197.102 32.5,191.5 Z"/></g>
<g><path style="opacity:1" fill="#d87a5f" d="M 63.5,190.5 C 72.3483,195.79 82.0149,197.79 92.5,196.5C 93.675,196.281 94.675,196.614 95.5,197.5C 94.3984,198.176 93.3984,198.842 92.5,199.5C 87.4889,199.666 82.4889,199.499 77.5,199C 76.6721,198.085 75.6721,197.419 74.5,197C 71.8333,196.667 69.1667,196.333 66.5,196C 65.1667,195.333 65.1667,194.667 66.5,194C 65.0577,193.623 64.0577,192.79 63.5,191.5C 63.5,191.167 63.5,190.833 63.5,190.5 Z"/></g>
<g><path style="opacity:1" fill="#fe9955" d="M 187.5,194.5 C 187.104,197.044 187.771,199.211 189.5,201C 189.167,201.333 188.833,201.667 188.5,202C 194.647,202.899 200.647,202.399 206.5,200.5C 204.5,202.5 202.5,204.5 200.5,206.5C 199.391,206.557 198.391,206.89 197.5,207.5C 194.774,207.264 192.441,208.097 190.5,210C 186.848,210.499 183.182,210.665 179.5,210.5C 178.448,205.462 179.948,201.462 184,198.5C 184.692,197.563 184.525,196.897 183.5,196.5C 183.5,196.167 183.5,195.833 183.5,195.5C 184.959,195.567 186.292,195.234 187.5,194.5 Z"/></g>
<g><path style="opacity:1" fill="#f7a56d" d="M 227.5,181.5 C 226.025,185.783 224.025,189.783 221.5,193.5C 217.5,192.833 215.833,194.5 216.5,198.5C 214.486,198.392 212.82,199.058 211.5,200.5C 207.833,202.5 204.167,204.5 200.5,206.5C 202.5,204.5 204.5,202.5 206.5,200.5C 209.553,197.285 213.053,194.618 217,192.5C 220.21,189.487 222.71,185.987 224.5,182C 225.448,181.517 226.448,181.351 227.5,181.5 Z"/></g>
<g><path style="opacity:1" fill="#f28459" d="M 111.5,185.5 C 110.797,187.716 109.464,189.549 107.5,191C 108.833,191.667 109.833,192.667 110.5,194C 113.748,194.671 114.081,194.171 111.5,192.5C 114.08,191.451 116.746,190.784 119.5,190.5C 119.167,191.167 118.833,191.833 118.5,192.5C 116.405,193.412 114.405,194.579 112.5,196C 111.663,197.011 111.33,198.178 111.5,199.5C 111.167,199.5 110.833,199.5 110.5,199.5C 109.167,199.5 107.833,199.5 106.5,199.5C 106.607,201.903 105.607,203.736 103.5,205C 104.517,206.049 104.684,207.216 104,208.5C 99.9215,207.371 95.7548,207.204 91.5,208C 90.244,208.417 89.5774,209.25 89.5,210.5C 86.8281,210.172 85.1615,208.672 84.5,206C 87.3807,204.065 90.0474,201.898 92.5,199.5C 93.3984,198.842 94.3984,198.176 95.5,197.5C 94.675,196.614 93.675,196.281 92.5,196.5C 95.2558,194.796 98.2558,193.463 101.5,192.5C 105.368,190.971 108.701,188.637 111.5,185.5 Z"/></g>
<g><path style="opacity:1" fill="#c20b91" d="M 136.5,193.5 C 140.055,194.054 142.388,196.054 143.5,199.5C 143.813,202.247 143.48,204.914 142.5,207.5C 141.264,208.246 139.93,208.579 138.5,208.5C 138.321,210.606 137.321,212.272 135.5,213.5C 131.566,211.238 127.399,210.905 123,212.5C 119.436,211.921 115.936,211.087 112.5,210C 111.139,208.416 110.472,206.582 110.5,204.5C 110.629,202.784 110.962,201.117 111.5,199.5C 111.33,198.178 111.663,197.011 112.5,196C 114.405,194.579 116.405,193.412 118.5,192.5C 124.677,190.961 130.677,191.294 136.5,193.5 Z"/></g>
<g><path style="opacity:1" fill="#f5865c" d="M 183.5,195.5 C 183.5,195.833 183.5,196.167 183.5,196.5C 179.681,197.981 175.681,198.814 171.5,199C 166.015,202.99 160.015,205.824 153.5,207.5C 153.351,208.552 153.517,209.552 154,210.5C 160.015,217.856 167.515,220.023 176.5,217C 177.543,215.024 178.877,214.524 180.5,215.5C 183.021,214.215 185.687,213.548 188.5,213.5C 185.796,215.171 183.129,216.837 180.5,218.5C 175.426,219.651 170.426,220.984 165.5,222.5C 161.684,219.84 157.517,219.173 153,220.5C 149.903,217.14 148.736,213.14 149.5,208.5C 149.716,205.568 149.049,202.902 147.5,200.5C 147.556,199.263 148.056,198.263 149,197.5C 154.024,199.76 159.191,199.926 164.5,198C 163.584,197.722 162.918,197.222 162.5,196.5C 167.5,196.5 172.5,196.5 177.5,196.5C 179.565,196.483 181.565,196.15 183.5,195.5 Z"/></g>
<g><path style="opacity:1" fill="#fd9059" d="M 183.5,196.5 C 184.525,196.897 184.692,197.563 184,198.5C 179.948,201.462 178.448,205.462 179.5,210.5C 183.182,210.665 186.848,210.499 190.5,210C 192.441,208.097 194.774,207.264 197.5,207.5C 195.691,211.241 192.691,213.241 188.5,213.5C 185.687,213.548 183.021,214.215 180.5,215.5C 178.877,214.524 177.543,215.024 176.5,217C 167.515,220.023 160.015,217.856 154,210.5C 153.517,209.552 153.351,208.552 153.5,207.5C 160.015,205.824 166.015,202.99 171.5,199C 175.681,198.814 179.681,197.981 183.5,196.5 Z"/></g>
<g><path style="opacity:1" fill="#f87f5c" d="M 110.5,199.5 C 109.471,201.517 108.471,203.517 107.5,205.5C 106.514,209.97 106.181,214.637 106.5,219.5C 103.048,219.18 99.7145,219.18 96.5,219.5C 95.2954,217.862 93.9621,217.529 92.5,218.5C 88.376,218.369 85.7093,216.369 84.5,212.5C 85.2216,212.082 85.7216,211.416 86,210.5C 88.5003,216.676 89.6669,216.676 89.5,210.5C 89.5774,209.25 90.244,208.417 91.5,208C 95.7548,207.204 99.9215,207.371 104,208.5C 104.684,207.216 104.517,206.049 103.5,205C 105.607,203.736 106.607,201.903 106.5,199.5C 107.833,199.5 109.167,199.5 110.5,199.5 Z"/></g>
<g><path style="opacity:1" fill="#e47350" d="M 63.5,191.5 C 64.0577,192.79 65.0577,193.623 66.5,194C 65.1667,194.667 65.1667,195.333 66.5,196C 69.1667,196.333 71.8333,196.667 74.5,197C 75.6721,197.419 76.6721,198.085 77.5,199C 82.4889,199.499 87.4889,199.666 92.5,199.5C 90.0474,201.898 87.3807,204.065 84.5,206C 85.1615,208.672 86.8281,210.172 89.5,210.5C 89.6669,216.676 88.5003,216.676 86,210.5C 85.7216,211.416 85.2216,212.082 84.5,212.5C 84.189,211.522 83.5223,210.855 82.5,210.5C 79.1309,211.903 75.7976,212.57 72.5,212.5C 68.3976,212.097 66.731,210.097 67.5,206.5C 54.9818,205.752 45.3151,200.752 38.5,191.5C 38.5,191.167 38.5,190.833 38.5,190.5C 40.0858,191.148 41.7525,191.648 43.5,192C 46.0704,195.118 49.4037,196.285 53.5,195.5C 53.3697,192.763 54.5364,190.763 57,189.5C 58.8792,191.013 61.0459,191.679 63.5,191.5 Z"/></g>
<g><path style="opacity:1" fill="#f0998a" d="M 221.5,193.5 C 217.506,200.154 212.506,205.821 206.5,210.5C 203.549,210.287 200.882,210.954 198.5,212.5C 199.504,209.007 201.837,207.173 205.5,207C 207.678,204.989 209.678,202.823 211.5,200.5C 212.82,199.058 214.486,198.392 216.5,198.5C 215.833,194.5 217.5,192.833 221.5,193.5 Z"/></g>
<g><path style="opacity:1" fill="#c90a88" d="M 143.5,199.5 C 143.833,199.5 144.167,199.5 144.5,199.5C 145.267,203.305 145.933,207.139 146.5,211C 146.146,214.178 145.146,217.011 143.5,219.5C 141.338,219.103 140.005,217.769 139.5,215.5C 135.738,219.862 132.071,220.028 128.5,216C 122.959,215.933 117.625,215.1 112.5,213.5C 111.228,213.57 110.062,213.903 109,214.5C 108.333,211.833 108.333,209.167 109,206.5C 109.278,205.584 109.778,204.918 110.5,204.5C 110.472,206.582 111.139,208.416 112.5,210C 115.936,211.087 119.436,211.921 123,212.5C 127.399,210.905 131.566,211.238 135.5,213.5C 137.321,212.272 138.321,210.606 138.5,208.5C 139.93,208.579 141.264,208.246 142.5,207.5C 143.48,204.914 143.813,202.247 143.5,199.5 Z"/></g>
<g><path style="opacity:1" fill="#d21081" d="M 110.5,199.5 C 110.833,199.5 111.167,199.5 111.5,199.5C 110.962,201.117 110.629,202.784 110.5,204.5C 109.778,204.918 109.278,205.584 109,206.5C 108.333,209.167 108.333,211.833 109,214.5C 110.062,213.903 111.228,213.57 112.5,213.5C 117.625,215.1 122.959,215.933 128.5,216C 132.071,220.028 135.738,219.862 139.5,215.5C 140.005,217.769 141.338,219.103 143.5,219.5C 140.147,226.012 134.814,228.845 127.5,228C 130.121,227.094 129.954,226.594 127,226.5C 121.27,228.863 116.77,227.529 113.5,222.5C 112.583,221.873 111.583,221.539 110.5,221.5C 110.068,220.29 109.401,219.29 108.5,218.5C 107.627,214.232 107.294,209.898 107.5,205.5C 108.471,203.517 109.471,201.517 110.5,199.5 Z"/></g>
<g><path style="opacity:0.992" fill="#f093a4" d="M 206.5,210.5 C 200.268,217.289 192.934,222.622 184.5,226.5C 184.848,223.981 186.181,222.147 188.5,221C 187.906,220.536 187.239,220.369 186.5,220.5C 188.833,219.167 191.167,217.833 193.5,216.5C 194.945,214.937 196.611,213.604 198.5,212.5C 200.882,210.954 203.549,210.287 206.5,210.5 Z"/></g>
<g><path style="opacity:1" fill="#eb7262" d="M 38.5,191.5 C 45.3151,200.752 54.9818,205.752 67.5,206.5C 66.731,210.097 68.3976,212.097 72.5,212.5C 75.7976,212.57 79.1309,211.903 82.5,210.5C 83.5223,210.855 84.189,211.522 84.5,212.5C 85.7093,216.369 88.376,218.369 92.5,218.5C 93.9621,217.529 95.2954,217.862 96.5,219.5C 99.7145,219.18 103.048,219.18 106.5,219.5C 106.181,214.637 106.514,209.97 107.5,205.5C 107.294,209.898 107.627,214.232 108.5,218.5C 108.62,221.48 109.287,224.313 110.5,227C 99.8008,228.052 89.8008,225.885 80.5,220.5C 79.914,220.709 79.414,221.043 79,221.5C 77.103,219.984 74.9363,219.317 72.5,219.5C 70.8967,216.438 68.23,214.938 64.5,215C 58.6976,210.462 52.3643,206.962 45.5,204.5C 45.6567,203.127 45.49,201.793 45,200.5C 42.2563,198.251 39.7563,195.917 37.5,193.5C 37.3284,192.508 37.6618,191.842 38.5,191.5 Z"/></g>
<g><path style="opacity:1" fill="#fb7d60" d="M 149.5,208.5 C 148.736,213.14 149.903,217.14 153,220.5C 157.517,219.173 161.684,219.84 165.5,222.5C 159.682,223.889 153.682,224.889 147.5,225.5C 146.532,223.393 146.198,221.059 146.5,218.5C 148.119,215.452 149.119,212.119 149.5,208.5 Z"/></g>
<g><path style="opacity:1" fill="#fa9076" d="M 211.5,200.5 C 209.678,202.823 207.678,204.989 205.5,207C 201.837,207.173 199.504,209.007 198.5,212.5C 196.611,213.604 194.945,214.937 193.5,216.5C 189.369,217.901 185.036,218.567 180.5,218.5C 183.129,216.837 185.796,215.171 188.5,213.5C 192.691,213.241 195.691,211.241 197.5,207.5C 198.391,206.89 199.391,206.557 200.5,206.5C 204.167,204.5 207.833,202.5 211.5,200.5 Z"/></g>
<g><path style="opacity:1" fill="#de779b" d="M 44.5,207.5 C 50.1386,207.926 54.8053,210.426 58.5,215C 61.2478,217.041 64.2478,218.541 67.5,219.5C 69.6572,221.412 71.9906,223.079 74.5,224.5C 73.0695,224.579 71.7362,224.246 70.5,223.5C 69.913,224.233 69.913,225.233 70.5,226.5C 60.6875,221.681 52.0209,215.347 44.5,207.5 Z"/></g>
<g><path style="opacity:1" fill="#e56b7c" d="M 45.5,204.5 C 52.3643,206.962 58.6976,210.462 64.5,215C 68.23,214.938 70.8967,216.438 72.5,219.5C 77.7146,221.621 83.0479,223.621 88.5,225.5C 89.7133,225.747 90.38,226.414 90.5,227.5C 86.4142,226.917 82.4142,225.917 78.5,224.5C 74.898,222.53 71.2313,220.863 67.5,219.5C 64.2478,218.541 61.2478,217.041 58.5,215C 54.8053,210.426 50.1386,207.926 44.5,207.5C 44.5,207.167 44.5,206.833 44.5,206.5C 45.3382,206.158 45.6716,205.492 45.5,204.5 Z"/></g>
<g><path style="opacity:1" fill="#f87e73" d="M 193.5,216.5 C 191.167,217.833 188.833,219.167 186.5,220.5C 175.07,223.544 163.57,226.544 152,229.5C 151.167,229.333 150.333,229.167 149.5,229C 150.938,228.781 152.271,228.281 153.5,227.5C 151.369,226.831 149.369,226.165 147.5,225.5C 153.682,224.889 159.682,223.889 165.5,222.5C 170.426,220.984 175.426,219.651 180.5,218.5C 185.036,218.567 189.369,217.901 193.5,216.5 Z"/></g>
<g><path style="opacity:1" fill="#eb6c92" d="M 67.5,219.5 C 71.2313,220.863 74.898,222.53 78.5,224.5C 82.4142,225.917 86.4142,226.917 90.5,227.5C 95.4284,229.439 100.428,231.106 105.5,232.5C 98.7107,232.311 92.044,231.644 85.5,230.5C 82.0283,228.262 78.3617,226.262 74.5,224.5C 71.9906,223.079 69.6572,221.412 67.5,219.5 Z"/></g>
<g><path style="opacity:1" fill="#d31e6f" d="M 144.5,199.5 C 147.701,205.375 148.368,211.709 146.5,218.5C 144.021,223.143 140.355,226.643 135.5,229C 129.098,229.818 122.765,229.484 116.5,228C 114.294,225.963 112.294,223.797 110.5,221.5C 111.583,221.539 112.583,221.873 113.5,222.5C 116.77,227.529 121.27,228.863 127,226.5C 129.954,226.594 130.121,227.094 127.5,228C 134.814,228.845 140.147,226.012 143.5,219.5C 145.146,217.011 146.146,214.178 146.5,211C 145.933,207.139 145.267,203.305 144.5,199.5 Z"/></g>
<g><path style="opacity:1" fill="#f56f7e" d="M 108.5,218.5 C 109.401,219.29 110.068,220.29 110.5,221.5C 112.294,223.797 114.294,225.963 116.5,228C 122.765,229.484 129.098,229.818 135.5,229C 140.355,226.643 144.021,223.143 146.5,218.5C 146.198,221.059 146.532,223.393 147.5,225.5C 149.369,226.165 151.369,226.831 153.5,227.5C 152.271,228.281 150.938,228.781 149.5,229C 150.333,229.167 151.167,229.333 152,229.5C 163.57,226.544 175.07,223.544 186.5,220.5C 185.013,221.804 183.346,222.97 181.5,224C 176.519,224.796 171.852,226.462 167.5,229C 163,230.792 158.333,231.625 153.5,231.5C 140.134,234.003 126.801,234.003 113.5,231.5C 111.028,232.992 108.361,233.658 105.5,233.5C 105.5,233.167 105.5,232.833 105.5,232.5C 100.428,231.106 95.4284,229.439 90.5,227.5C 90.38,226.414 89.7133,225.747 88.5,225.5C 83.0479,223.621 77.7146,221.621 72.5,219.5C 74.9363,219.317 77.103,219.984 79,221.5C 79.414,221.043 79.914,220.709 80.5,220.5C 89.8008,225.885 99.8008,228.052 110.5,227C 109.287,224.313 108.62,221.48 108.5,218.5 Z"/></g>
<g><path style="opacity:1" fill="#f67ea8" d="M 186.5,220.5 C 187.239,220.369 187.906,220.536 188.5,221C 186.181,222.147 184.848,223.981 184.5,226.5C 184.167,226.5 183.833,226.5 183.5,226.5C 183.083,225.876 182.416,225.543 181.5,225.5C 178.14,226.519 174.807,227.519 171.5,228.5C 171.5,229.5 171.5,230.5 171.5,231.5C 164.311,233.309 156.978,234.643 149.5,235.5C 145.833,235.5 142.167,235.5 138.5,235.5C 143.648,234.698 148.648,233.365 153.5,231.5C 158.333,231.625 163,230.792 167.5,229C 171.852,226.462 176.519,224.796 181.5,224C 183.346,222.97 185.013,221.804 186.5,220.5 Z"/></g>
<g><path style="opacity:0.993" fill="#f188c2" d="M 74.5,224.5 C 78.3617,226.262 82.0283,228.262 85.5,230.5C 85.6107,231.117 85.944,231.617 86.5,232C 100.686,236.027 115.186,237.86 130,237.5C 136.738,237.686 143.238,237.019 149.5,235.5C 156.978,234.643 164.311,233.309 171.5,231.5C 171.5,230.5 171.5,229.5 171.5,228.5C 174.807,227.519 178.14,226.519 181.5,225.5C 182.416,225.543 183.083,225.876 183.5,226.5C 166.057,235.525 147.391,239.859 127.5,239.5C 107.409,239.726 88.4088,235.393 70.5,226.5C 69.913,225.233 69.913,224.233 70.5,223.5C 71.7362,224.246 73.0695,224.579 74.5,224.5 Z"/></g>
<g><path style="opacity:1" fill="#f27094" d="M 153.5,231.5 C 148.648,233.365 143.648,234.698 138.5,235.5C 127.116,236.144 116.116,235.477 105.5,233.5C 108.361,233.658 111.028,232.992 113.5,231.5C 126.801,234.003 140.134,234.003 153.5,231.5 Z"/></g>
<g><path style="opacity:1" fill="#f577b3" d="M 85.5,230.5 C 92.044,231.644 98.7107,232.311 105.5,232.5C 105.5,232.833 105.5,233.167 105.5,233.5C 116.116,235.477 127.116,236.144 138.5,235.5C 142.167,235.5 145.833,235.5 149.5,235.5C 143.238,237.019 136.738,237.686 130,237.5C 115.186,237.86 100.686,236.027 86.5,232C 85.944,231.617 85.6107,231.117 85.5,230.5 Z"/></g>
</svg>
