<?xml version="1.0" encoding="UTF-8"?>
<!DOCTYPE svg PUBLIC "-//W3C//DTD SVG 1.1//EN" "http://www.w3.org/Graphics/SVG/1.1/DTD/svg11.dtd">
<svg xmlns="http://www.w3.org/2000/svg" version="1.1" width="256px" height="256px" style="shape-rendering:geometricPrecision; text-rendering:geometricPrecision; image-rendering:optimizeQuality; fill-rule:evenodd; clip-rule:evenodd" xmlns:xlink="http://www.w3.org/1999/xlink">
<g><path style="opacity:1" fill="#ecc16f" d="M 154.5,18.5 C 152.167,18.5 149.833,18.5 147.5,18.5C 132.824,18.5118 118.158,18.8452 103.5,19.5C 101.143,19.3367 98.8098,19.5034 96.5,20C 93.7992,22.1366 90.6325,23.3032 87,23.5C 86.2352,23.4301 85.7352,23.0967 85.5,22.5C 103.523,16.0816 122.19,13.915 141.5,16C 146.076,16.2715 150.409,17.1049 154.5,18.5 Z"/></g>
<g><path style="opacity:1" fill="#fcca4a" d="M 147.5,18.5 C 149.158,19.1814 150.825,20.0147 152.5,21C 157.458,21.0291 162.124,21.8624 166.5,23.5C 157.52,23.7376 148.686,22.7376 140,20.5C 137.167,21.4966 134.334,22.4966 131.5,23.5C 131.5,24.5 131.5,25.5 131.5,26.5C 128.833,26.8333 126.167,27.1667 123.5,27.5C 120.904,26.7347 118.237,26.4013 115.5,26.5C 115.36,24.8762 116.027,23.7096 117.5,23C 114.546,23.5607 111.546,23.394 108.5,22.5C 107.791,21.596 106.791,21.2627 105.5,21.5C 104.167,21.5 103.5,20.8333 103.5,19.5C 118.158,18.8452 132.824,18.5118 147.5,18.5 Z"/></g>
<g><path style="opacity:1" fill="#fed54d" d="M 166.5,23.5 C 168.288,23.2148 169.955,23.5481 171.5,24.5C 181.486,30.6589 191.82,35.9922 202.5,40.5C 202.366,42.2915 202.699,43.9582 203.5,45.5C 200.397,43.5767 197.397,41.41 194.5,39C 191.929,37.5462 189.262,36.3795 186.5,35.5C 184.526,33.7069 182.36,32.0402 180,30.5C 177.88,31.4589 175.713,31.6256 173.5,31C 170.667,29.2188 167.667,27.7188 164.5,26.5C 162.664,27.0276 160.997,27.6942 159.5,28.5C 150.185,27.6678 140.852,27.0011 131.5,26.5C 131.5,25.5 131.5,24.5 131.5,23.5C 134.334,22.4966 137.167,21.4966 140,20.5C 148.686,22.7376 157.52,23.7376 166.5,23.5 Z"/></g>
<g><path style="opacity:1" fill="#eab252" d="M 103.5,19.5 C 103.5,20.8333 104.167,21.5 105.5,21.5C 105.389,22.1174 105.056,22.6174 104.5,23C 90.415,24.2536 77.7483,29.2536 66.5,38C 64.8659,38.4935 63.1992,38.6602 61.5,38.5C 61.5,38.1667 61.5,37.8333 61.5,37.5C 65.4779,34.7051 69.8112,32.5384 74.5,31C 77.9655,28.5885 80.9655,25.7552 83.5,22.5C 84.1667,22.5 84.8333,22.5 85.5,22.5C 85.7352,23.0967 86.2352,23.4301 87,23.5C 90.6325,23.3032 93.7992,22.1366 96.5,20C 98.8098,19.5034 101.143,19.3367 103.5,19.5 Z"/></g>
<g><path style="opacity:1" fill="#f4b935" d="M 108.5,22.5 C 111.546,23.394 114.546,23.5607 117.5,23C 116.027,23.7096 115.36,24.8762 115.5,26.5C 112.552,26.7771 109.719,26.4438 107,25.5C 104.667,27.1667 102.333,28.8333 100,30.5C 99.586,30.0426 99.086,29.7093 98.5,29.5C 96.2241,30.2132 93.8907,30.7132 91.5,31C 89.6567,33.1735 87.4901,35.0068 85,36.5C 79.5917,34.1316 76.4251,35.7983 75.5,41.5C 80.1444,42.3261 84.8111,43.1595 89.5,44C 91.9096,44.5995 93.9096,45.7662 95.5,47.5C 92.9214,47.6061 90.588,46.9395 88.5,45.5C 82.69,44.5104 76.69,44.1771 70.5,44.5C 70.6816,42.4086 70.3482,40.4086 69.5,38.5C 72.2573,37.2468 74.5906,35.4135 76.5,33C 87.1729,29.3068 97.8395,25.8068 108.5,22.5 Z"/></g>
<g><path style="opacity:1" fill="#fecb30" d="M 115.5,26.5 C 118.237,26.4013 120.904,26.7347 123.5,27.5C 123.5,31.1667 123.5,34.8333 123.5,38.5C 124.833,38.5 126.167,38.5 127.5,38.5C 127.5,37.5 127.5,36.5 127.5,35.5C 128.833,35.5 130.167,35.5 131.5,35.5C 131.5,36.8333 131.5,38.1667 131.5,39.5C 132.833,39.5 134.167,39.5 135.5,39.5C 135.5,40.8333 135.5,42.1667 135.5,43.5C 138.106,44.1359 140.606,44.1359 143,43.5C 143.333,44.5 143.667,45.5 144,46.5C 146.836,44.9627 149.836,43.6294 153,42.5C 157.335,43.0084 161.501,43.6751 165.5,44.5C 163.973,44.427 162.973,45.0937 162.5,46.5C 162.167,46.5 161.833,46.5 161.5,46.5C 159.088,46.3305 156.921,46.9972 155,48.5C 149.664,45.3088 145.164,46.1422 141.5,51C 135.422,52.9127 129.422,52.7461 123.5,50.5C 121.156,46.506 118.49,42.8394 115.5,39.5C 114.167,39.5 112.833,39.5 111.5,39.5C 110.254,36.2668 109.754,32.9335 110,29.5C 112.058,28.7709 113.891,27.7709 115.5,26.5 Z"/></g>
<g><path style="opacity:1" fill="#fed331" d="M 131.5,26.5 C 140.852,27.0011 150.185,27.6678 159.5,28.5C 159.423,29.7498 158.756,30.5831 157.5,31C 158.167,31.3333 158.833,31.6667 159.5,32C 158.167,32.3333 156.833,32.6667 155.5,33C 158.526,35.6954 161.526,38.3621 164.5,41C 167.281,41.5218 169.615,42.6885 171.5,44.5C 169.5,44.5 167.5,44.5 165.5,44.5C 161.501,43.6751 157.335,43.0084 153,42.5C 149.836,43.6294 146.836,44.9627 144,46.5C 143.667,45.5 143.333,44.5 143,43.5C 140.606,44.1359 138.106,44.1359 135.5,43.5C 135.5,42.1667 135.5,40.8333 135.5,39.5C 134.167,39.5 132.833,39.5 131.5,39.5C 131.5,38.1667 131.5,36.8333 131.5,35.5C 130.167,35.5 128.833,35.5 127.5,35.5C 127.5,36.5 127.5,37.5 127.5,38.5C 126.167,38.5 124.833,38.5 123.5,38.5C 123.5,34.8333 123.5,31.1667 123.5,27.5C 126.167,27.1667 128.833,26.8333 131.5,26.5 Z"/></g>
<g><path style="opacity:1" fill="#fedf40" d="M 186.5,35.5 C 188.428,37.4741 190.761,38.9741 193.5,40C 194.304,41.7713 195.471,43.2713 197,44.5C 197.536,46.5672 197.036,48.4006 195.5,50C 190.04,49.6285 185.374,47.4618 181.5,43.5C 178.242,44.4173 174.909,44.7507 171.5,44.5C 169.615,42.6885 167.281,41.5218 164.5,41C 161.526,38.3621 158.526,35.6954 155.5,33C 156.833,32.6667 158.167,32.3333 159.5,32C 158.833,31.6667 158.167,31.3333 157.5,31C 158.756,30.5831 159.423,29.7498 159.5,28.5C 160.997,27.6942 162.664,27.0276 164.5,26.5C 167.667,27.7188 170.667,29.2188 173.5,31C 175.713,31.6256 177.88,31.4589 180,30.5C 182.36,32.0402 184.526,33.7069 186.5,35.5 Z"/></g>
<g><path style="opacity:1" fill="#fbd971" d="M 147.5,18.5 C 149.833,18.5 152.167,18.5 154.5,18.5C 172.667,21.4298 188.667,28.7631 202.5,40.5C 191.82,35.9922 181.486,30.6589 171.5,24.5C 169.955,23.5481 168.288,23.2148 166.5,23.5C 162.124,21.8624 157.458,21.0291 152.5,21C 150.825,20.0147 149.158,19.1814 147.5,18.5 Z"/></g>
<g><path style="opacity:1" fill="#efaf3b" d="M 105.5,21.5 C 106.791,21.2627 107.791,21.596 108.5,22.5C 97.8395,25.8068 87.1729,29.3068 76.5,33C 74.5906,35.4135 72.2573,37.2468 69.5,38.5C 70.3482,40.4086 70.6816,42.4086 70.5,44.5C 76.69,44.1771 82.69,44.5104 88.5,45.5C 84.2984,45.1832 80.2984,45.5166 76.5,46.5C 69.8248,47.6701 64.1581,50.6701 59.5,55.5C 59.33,54.1779 59.6634,53.0113 60.5,52C 59.1059,51.044 58.4393,49.7106 58.5,48C 59.6025,44.8595 60.6025,41.6928 61.5,38.5C 63.1992,38.6602 64.8659,38.4935 66.5,38C 77.7483,29.2536 90.415,24.2536 104.5,23C 105.056,22.6174 105.389,22.1174 105.5,21.5 Z"/></g>
<g><path style="opacity:1" fill="#e7a863" d="M 83.5,22.5 C 80.9655,25.7552 77.9655,28.5885 74.5,31C 69.8112,32.5384 65.4779,34.7051 61.5,37.5C 57.596,40.1217 53.596,42.6217 49.5,45C 50.2524,45.6708 50.5858,46.5041 50.5,47.5C 48.9273,49.2062 46.9273,50.3728 44.5,51C 43.7809,53.5562 42.1142,54.7229 39.5,54.5C 37.9555,58.4232 36.4555,62.4232 35,66.5C 33.2962,68.3734 31.4628,70.0401 29.5,71.5C 28.8333,71.5 28.5,71.1667 28.5,70.5C 40.4629,47.3297 58.7962,31.3297 83.5,22.5 Z"/></g>
<g><path style="opacity:1" fill="#f7bf2b" d="M 115.5,26.5 C 113.891,27.7709 112.058,28.7709 110,29.5C 109.754,32.9335 110.254,36.2668 111.5,39.5C 112.833,39.5 114.167,39.5 115.5,39.5C 118.49,42.8394 121.156,46.506 123.5,50.5C 122.419,52.764 121.085,54.9307 119.5,57C 118.551,57.6172 117.718,57.4506 117,56.5C 116.313,58.5675 116.48,60.5675 117.5,62.5C 117.167,62.8333 116.833,63.1667 116.5,63.5C 115.818,62.7573 115.151,62.0906 114.5,61.5C 113.791,60.596 112.791,60.2627 111.5,60.5C 107.563,54.554 102.23,50.554 95.5,48.5C 95.5,48.1667 95.5,47.8333 95.5,47.5C 93.9096,45.7662 91.9096,44.5995 89.5,44C 84.8111,43.1595 80.1444,42.3261 75.5,41.5C 76.4251,35.7983 79.5917,34.1316 85,36.5C 87.4901,35.0068 89.6567,33.1735 91.5,31C 93.8907,30.7132 96.2241,30.2132 98.5,29.5C 99.086,29.7093 99.586,30.0426 100,30.5C 102.333,28.8333 104.667,27.1667 107,25.5C 109.719,26.4438 112.552,26.7771 115.5,26.5 Z"/></g>
<g><path style="opacity:1" fill="#fcf0a6" d="M 181.5,47.5 C 174.833,46.1667 168.167,46.1667 161.5,47.5C 161.5,47.1667 161.5,46.8333 161.5,46.5C 161.833,46.5 162.167,46.5 162.5,46.5C 168.115,45.4265 173.782,45.2599 179.5,46C 180.416,46.2784 181.082,46.7784 181.5,47.5 Z"/></g>
<g><path style="opacity:1" fill="#fcfaf6" d="M 76.5,46.5 C 83.0336,46.2367 89.3669,46.9033 95.5,48.5C 102.23,50.554 107.563,54.554 111.5,60.5C 120.127,74.7057 119.293,88.3724 109,101.5C 105.679,104.082 102.513,106.749 99.5,109.5C 97.8333,109.5 96.1667,109.5 94.5,109.5C 92.4375,108.224 90.1042,107.39 87.5,107C 79.4845,106.669 71.4845,106.669 63.5,107C 60.9638,104.295 58.2971,101.795 55.5,99.5C 46.9902,84.9796 47.6569,70.9796 57.5,57.5C 57.8333,56.5 58.5,55.8333 59.5,55.5C 64.1581,50.6701 69.8248,47.6701 76.5,46.5 Z"/></g>
<g><path style="opacity:1" fill="#fbf3cb" d="M 76.5,46.5 C 80.2984,45.5166 84.2984,45.1832 88.5,45.5C 90.588,46.9395 92.9214,47.6061 95.5,47.5C 95.5,47.8333 95.5,48.1667 95.5,48.5C 89.3669,46.9033 83.0336,46.2367 76.5,46.5 Z"/></g>
<g><path style="opacity:1" fill="#fdfbf7" d="M 181.5,47.5 C 186.92,49.6862 191.92,52.5195 196.5,56C 198.311,58.4712 199.978,60.9712 201.5,63.5C 201.833,64.8333 202.167,66.1667 202.5,67.5C 204.672,75.4105 205.005,83.4105 203.5,91.5C 200.519,97.3313 196.519,102.498 191.5,107C 190.207,107.49 188.873,107.657 187.5,107.5C 177.342,105.76 167.342,106.427 157.5,109.5C 150.952,106.952 145.952,102.619 142.5,96.5C 138.456,87.21 137.456,77.5433 139.5,67.5C 141.982,63.4059 144.649,59.4059 147.5,55.5C 149.63,53.8729 151.63,52.0396 153.5,50C 156.279,49.439 158.946,48.6056 161.5,47.5C 168.167,46.1667 174.833,46.1667 181.5,47.5 Z"/></g>
<g><path style="opacity:1" fill="#fee85e" d="M 186.5,35.5 C 189.262,36.3795 191.929,37.5462 194.5,39C 197.397,41.41 200.397,43.5767 203.5,45.5C 204.833,45.5 206.167,45.5 207.5,45.5C 208.639,48.0037 209.306,50.6703 209.5,53.5C 211.292,53.366 212.958,53.6993 214.5,54.5C 216.525,59.5889 218.025,64.9222 219,70.5C 221.423,71.785 223.256,73.6183 224.5,76C 224.003,79.3247 223.003,82.4914 221.5,85.5C 223.939,88.8503 223.606,92.017 220.5,95C 218.866,95.4935 217.199,95.6602 215.5,95.5C 215.813,92.7531 215.48,90.0865 214.5,87.5C 212.45,86.9234 211.45,85.5901 211.5,83.5C 210.167,83.5 208.833,83.5 207.5,83.5C 206.496,78.3188 206.496,73.1521 207.5,68C 207.32,65.7586 206.487,65.2586 205,66.5C 204.517,65.552 204.351,64.552 204.5,63.5C 203.5,63.5 202.5,63.5 201.5,63.5C 199.978,60.9712 198.311,58.4712 196.5,56C 191.92,52.5195 186.92,49.6862 181.5,47.5C 181.082,46.7784 180.416,46.2784 179.5,46C 173.782,45.2599 168.115,45.4265 162.5,46.5C 162.973,45.0937 163.973,44.427 165.5,44.5C 167.5,44.5 169.5,44.5 171.5,44.5C 174.909,44.7507 178.242,44.4173 181.5,43.5C 185.374,47.4618 190.04,49.6285 195.5,50C 197.036,48.4006 197.536,46.5672 197,44.5C 195.471,43.2713 194.304,41.7713 193.5,40C 190.761,38.9741 188.428,37.4741 186.5,35.5 Z"/></g>
<g><path style="opacity:1" fill="#3f2b31" d="M 181.5,98.5 C 181.48,96.857 182.147,95.5237 183.5,94.5C 182.311,93.5713 180.978,93.238 179.5,93.5C 179.328,91.5082 179.995,89.8415 181.5,88.5C 180.833,87.8333 180.167,87.1667 179.5,86.5C 180.544,85.3774 181.21,84.0441 181.5,82.5C 180.178,77.5721 179.178,72.5721 178.5,67.5C 176.423,66.0124 175.423,64.0124 175.5,61.5C 172.833,62.1667 170.167,62.8333 167.5,63.5C 167.5,68.8333 167.5,74.1667 167.5,79.5C 164.833,79.5 162.167,79.5 159.5,79.5C 159.5,80.8333 159.5,82.1667 159.5,83.5C 156.167,83.5 152.833,83.5 149.5,83.5C 147.683,86.3359 147.017,89.3359 147.5,92.5C 139.764,77.2053 143.43,65.372 158.5,57C 174.51,53.2545 185.343,59.0878 191,74.5C 192.229,84.3255 189.062,92.3255 181.5,98.5 Z"/></g>
<g><path style="opacity:1" fill="#fbbf3c" d="M 161.5,46.5 C 161.5,46.8333 161.5,47.1667 161.5,47.5C 158.946,48.6056 156.279,49.439 153.5,50C 151.63,52.0396 149.63,53.8729 147.5,55.5C 146.127,55.3433 144.793,55.51 143.5,56C 138.856,59.9643 135.022,64.4643 132,69.5C 129.402,68.9021 127.569,70.0688 126.5,73C 124.22,73.2117 122.22,74.0451 120.5,75.5C 117.492,71.3329 115.492,66.6663 114.5,61.5C 115.151,62.0906 115.818,62.7573 116.5,63.5C 116.833,63.1667 117.167,62.8333 117.5,62.5C 116.48,60.5675 116.313,58.5675 117,56.5C 117.718,57.4506 118.551,57.6172 119.5,57C 121.085,54.9307 122.419,52.764 123.5,50.5C 129.422,52.7461 135.422,52.9127 141.5,51C 145.164,46.1422 149.664,45.3088 155,48.5C 156.921,46.9972 159.088,46.3305 161.5,46.5 Z"/></g>
<g><path style="opacity:1" fill="#3f2831" d="M 181.5,98.5 C 168.348,106.699 157.015,104.699 147.5,92.5C 147.017,89.3359 147.683,86.3359 149.5,83.5C 152.833,83.5 156.167,83.5 159.5,83.5C 159.5,82.1667 159.5,80.8333 159.5,79.5C 162.167,79.5 164.833,79.5 167.5,79.5C 167.5,74.1667 167.5,68.8333 167.5,63.5C 170.167,62.8333 172.833,62.1667 175.5,61.5C 175.423,64.0124 176.423,66.0124 178.5,67.5C 179.178,72.5721 180.178,77.5721 181.5,82.5C 181.21,84.0441 180.544,85.3774 179.5,86.5C 180.167,87.1667 180.833,87.8333 181.5,88.5C 179.995,89.8415 179.328,91.5082 179.5,93.5C 180.978,93.238 182.311,93.5713 183.5,94.5C 182.147,95.5237 181.48,96.857 181.5,98.5 Z"/></g>
<g><path style="opacity:1" fill="#fee464" d="M 214.5,54.5 C 216.837,56.9647 218.337,59.9647 219,63.5C 221.793,65.7794 223.96,68.446 225.5,71.5C 226.273,73.813 226.94,76.1463 227.5,78.5C 228.325,79.3857 229.325,79.719 230.5,79.5C 231.114,83.1352 231.448,86.8019 231.5,90.5C 229.958,91.3007 228.292,91.634 226.5,91.5C 226.5,94.1667 226.5,96.8333 226.5,99.5C 225.5,99.5 224.5,99.5 223.5,99.5C 223.67,100.822 223.337,101.989 222.5,103C 220.5,103.333 218.5,103.667 216.5,104C 218.064,106.744 217.564,107.577 215,106.5C 213.662,105.494 212.329,104.494 211,103.5C 208.848,98.2023 207.015,92.869 205.5,87.5C 205.666,82.1563 205.499,76.8229 205,71.5C 204.392,69.9336 203.558,68.6002 202.5,67.5C 202.167,66.1667 201.833,64.8333 201.5,63.5C 202.5,63.5 203.5,63.5 204.5,63.5C 204.351,64.552 204.517,65.552 205,66.5C 206.487,65.2586 207.32,65.7586 207.5,68C 206.496,73.1521 206.496,78.3188 207.5,83.5C 208.833,83.5 210.167,83.5 211.5,83.5C 211.45,85.5901 212.45,86.9234 214.5,87.5C 215.48,90.0865 215.813,92.7531 215.5,95.5C 217.199,95.6602 218.866,95.4935 220.5,95C 223.606,92.017 223.939,88.8503 221.5,85.5C 223.003,82.4914 224.003,79.3247 224.5,76C 223.256,73.6183 221.423,71.785 219,70.5C 218.025,64.9222 216.525,59.5889 214.5,54.5 Z"/></g>
<g><path style="opacity:1" fill="#f0a138" d="M 61.5,37.5 C 61.5,37.8333 61.5,38.1667 61.5,38.5C 60.6025,41.6928 59.6025,44.8595 58.5,48C 58.4393,49.7106 59.1059,51.044 60.5,52C 59.6634,53.0113 59.33,54.1779 59.5,55.5C 58.5,55.8333 57.8333,56.5 57.5,57.5C 53.6482,57.4887 51.8149,59.4887 52,63.5C 51.2597,65.3187 50.0931,66.6521 48.5,67.5C 47.0695,67.4208 45.7362,67.7542 44.5,68.5C 44.0615,71.2949 43.0615,73.6283 41.5,75.5C 39.0882,75.6941 38.0882,77.0274 38.5,79.5C 35.4424,79.3743 35.1091,77.8743 37.5,75C 36.9186,74.1074 36.5852,73.1074 36.5,72C 37.6166,69.2687 38.2833,66.4353 38.5,63.5C 39.8118,61.359 41.6451,59.6924 44,58.5C 44.3599,56.3921 45.0266,54.3921 46,52.5C 48.3913,51.61 49.8913,49.9433 50.5,47.5C 50.5858,46.5041 50.2524,45.6708 49.5,45C 53.596,42.6217 57.596,40.1217 61.5,37.5 Z"/></g>
<g><path style="opacity:1" fill="#3f2b30" d="M 105.5,94.5 C 104.722,93.8444 104.056,93.0111 103.5,92C 104.482,91.6192 105.148,90.7859 105.5,89.5C 104.246,87.6663 103.579,85.6663 103.5,83.5C 101.856,83.2865 100.356,83.6198 99,84.5C 98.2747,82.842 97.108,82.342 95.5,83C 95.9662,84.2988 95.9662,85.7988 95.5,87.5C 92.8333,87.5 90.1667,87.5 87.5,87.5C 87.5,89.5 87.5,91.5 87.5,93.5C 84.8333,93.5 82.1667,93.5 79.5,93.5C 79.5,88.8333 79.5,84.1667 79.5,79.5C 78.1667,79.5 76.8333,79.5 75.5,79.5C 75.6602,77.8008 75.4935,76.1341 75,74.5C 73.9887,75.3366 72.8221,75.67 71.5,75.5C 71.5,76.8333 71.5,78.1667 71.5,79.5C 70.1667,79.5 68.8333,79.5 67.5,79.5C 67.7683,82.1194 67.435,84.6194 66.5,87C 68.2024,89.2354 69.2024,91.7354 69.5,94.5C 60.5422,81.9562 61.8755,70.4562 73.5,60C 85.1609,53.3495 95.9942,54.5162 106,63.5C 112.505,72.7246 113.171,82.3913 108,92.5C 107.292,93.3805 106.458,94.0472 105.5,94.5 Z"/></g>
<g><path style="opacity:1" fill="#fce17a" d="M 202.5,40.5 C 215.667,50.6794 225.001,63.6794 230.5,79.5C 229.325,79.719 228.325,79.3857 227.5,78.5C 226.94,76.1463 226.273,73.813 225.5,71.5C 223.96,68.446 221.793,65.7794 219,63.5C 218.337,59.9647 216.837,56.9647 214.5,54.5C 212.958,53.6993 211.292,53.366 209.5,53.5C 209.306,50.6703 208.639,48.0037 207.5,45.5C 206.167,45.5 204.833,45.5 203.5,45.5C 202.699,43.9582 202.366,42.2915 202.5,40.5 Z"/></g>
<g><path style="opacity:1" fill="#e29e71" d="M 28.5,70.5 C 28.5,71.1667 28.8333,71.5 29.5,71.5C 27.5,76.8333 25.5,82.1667 23.5,87.5C 22.207,88.842 21.3736,90.5087 21,92.5C 20.8343,99.0508 19.8343,105.384 18,111.5C 17.3333,122.833 17.3333,134.167 18,145.5C 19.0386,146.244 19.5386,147.244 19.5,148.5C 19.5029,153.527 19.8363,158.527 20.5,163.5C 14.0109,139.691 13.8442,115.691 20,91.5C 21.9798,84.0393 24.8132,77.0393 28.5,70.5 Z"/></g>
<g><path style="opacity:1" fill="#dba460" d="M 139.5,67.5 C 137.456,77.5433 138.456,87.21 142.5,96.5C 141.265,96.2786 140.265,95.6119 139.5,94.5C 136.787,86.7681 135.787,78.7681 136.5,70.5C 137.728,69.6935 138.728,68.6935 139.5,67.5 Z"/></g>
<g><path style="opacity:1" fill="#fcf7c8" d="M 202.5,67.5 C 203.558,68.6002 204.392,69.9336 205,71.5C 205.499,76.8229 205.666,82.1563 205.5,87.5C 205.34,89.153 204.674,90.4863 203.5,91.5C 205.005,83.4105 204.672,75.4105 202.5,67.5 Z"/></g>
<g><path style="opacity:1" fill="#3e2731" d="M 105.5,94.5 C 96.1748,104.484 85.5082,105.984 73.5,99C 71.9586,97.6288 70.6253,96.1288 69.5,94.5C 69.2024,91.7354 68.2024,89.2354 66.5,87C 67.435,84.6194 67.7683,82.1194 67.5,79.5C 68.8333,79.5 70.1667,79.5 71.5,79.5C 71.5,78.1667 71.5,76.8333 71.5,75.5C 72.8221,75.67 73.9887,75.3366 75,74.5C 75.4935,76.1341 75.6602,77.8008 75.5,79.5C 76.8333,79.5 78.1667,79.5 79.5,79.5C 79.5,84.1667 79.5,88.8333 79.5,93.5C 82.1667,93.5 84.8333,93.5 87.5,93.5C 87.5,91.5 87.5,89.5 87.5,87.5C 90.1667,87.5 92.8333,87.5 95.5,87.5C 95.9662,85.7988 95.9662,84.2988 95.5,83C 97.108,82.342 98.2747,82.842 99,84.5C 100.356,83.6198 101.856,83.2865 103.5,83.5C 103.579,85.6663 104.246,87.6663 105.5,89.5C 105.148,90.7859 104.482,91.6192 103.5,92C 104.056,93.0111 104.722,93.8444 105.5,94.5 Z"/></g>
<g><path style="opacity:1" fill="#fab244" d="M 147.5,55.5 C 144.649,59.4059 141.982,63.4059 139.5,67.5C 138.728,68.6935 137.728,69.6935 136.5,70.5C 135.292,71.2341 133.959,71.5674 132.5,71.5C 131.608,78.1862 131.608,84.8529 132.5,91.5C 133.814,92.3128 134.981,93.3128 136,94.5C 135.935,99.8719 138.102,104.039 142.5,107C 140.561,107.908 139.561,109.408 139.5,111.5C 138.167,111.5 136.833,111.5 135.5,111.5C 135.5,112.833 135.5,114.167 135.5,115.5C 134.167,115.5 132.833,115.5 131.5,115.5C 131.67,116.822 131.337,117.989 130.5,119C 128.744,119.202 127.078,119.702 125.5,120.5C 129.833,121.167 134.167,121.833 138.5,122.5C 135.572,123.484 132.572,123.817 129.5,123.5C 126.042,122.961 122.709,121.794 119.5,120C 115.778,119.762 112.111,119.262 108.5,118.5C 107.534,116.604 107.201,114.604 107.5,112.5C 108.833,112.5 110.167,112.5 111.5,112.5C 111.5,111.5 111.5,110.5 111.5,109.5C 109.174,110.151 106.841,110.818 104.5,111.5C 103.075,111.377 101.742,111.043 100.5,110.5C 100.5,109.833 100.167,109.5 99.5,109.5C 102.513,106.749 105.679,104.082 109,101.5C 119.293,88.3724 120.127,74.7057 111.5,60.5C 112.791,60.2627 113.791,60.596 114.5,61.5C 115.492,66.6663 117.492,71.3329 120.5,75.5C 122.22,74.0451 124.22,73.2117 126.5,73C 127.569,70.0688 129.402,68.9021 132,69.5C 135.022,64.4643 138.856,59.9643 143.5,56C 144.793,55.51 146.127,55.3433 147.5,55.5 Z"/></g>
<g><path style="opacity:1" fill="#e49129" d="M 48.5,67.5 C 48.3336,75.84 48.5003,84.1733 49,92.5C 50.6583,95.3243 52.825,97.6576 55.5,99.5C 55.8521,102.149 56.1854,104.815 56.5,107.5C 57.2508,106.624 57.7508,105.624 58,104.5C 58.8333,106 60,107.167 61.5,108C 70.8274,108.5 80.1607,108.666 89.5,108.5C 88.6661,109.748 87.3328,110.415 85.5,110.5C 79.4279,110.945 73.4279,111.778 67.5,113C 60.8417,113.5 54.175,113.666 47.5,113.5C 47.5,112.167 47.5,110.833 47.5,109.5C 46.5,109.5 45.5,109.5 44.5,109.5C 44.6715,107.508 44.0049,105.842 42.5,104.5C 43.5896,103.391 43.5896,102.391 42.5,101.5C 41.224,106.682 40.5573,106.682 40.5,101.5C 39.5,101.5 38.5,101.5 37.5,101.5C 36.7605,92.4672 38.0939,83.8006 41.5,75.5C 43.0615,73.6283 44.0615,71.2949 44.5,68.5C 45.7362,67.7542 47.0695,67.4208 48.5,67.5 Z"/></g>
<g><path style="opacity:1" fill="#cd8c3c" d="M 57.5,57.5 C 47.6569,70.9796 46.9902,84.9796 55.5,99.5C 52.825,97.6576 50.6583,95.3243 49,92.5C 48.5003,84.1733 48.3336,75.84 48.5,67.5C 50.0931,66.6521 51.2597,65.3187 52,63.5C 51.8149,59.4887 53.6482,57.4887 57.5,57.5 Z"/></g>
<g><path style="opacity:1" fill="#f9d475" d="M 203.5,91.5 C 203.5,93.5 203.5,95.5 203.5,97.5C 204.833,97.5 206.167,97.5 207.5,97.5C 207.67,98.8221 207.337,99.9887 206.5,101C 204.052,102.475 201.719,103.308 199.5,103.5C 196.545,103.981 194.211,105.481 192.5,108C 191.207,108.49 189.873,108.657 188.5,108.5C 187.833,108.5 187.5,108.167 187.5,107.5C 188.873,107.657 190.207,107.49 191.5,107C 196.519,102.498 200.519,97.3313 203.5,91.5 Z"/></g>
<g><path style="opacity:1" fill="#fed671" d="M 230.5,79.5 C 235.315,90.2231 237.981,101.556 238.5,113.5C 238.749,123.379 238.083,133.046 236.5,142.5C 236.942,129.083 236.275,115.75 234.5,102.5C 233.5,102.5 232.5,102.5 231.5,102.5C 231.5,98.5 231.5,94.5 231.5,90.5C 231.448,86.8019 231.114,83.1352 230.5,79.5 Z"/></g>
<g><path style="opacity:1" fill="#d38f4c" d="M 55.5,99.5 C 58.2971,101.795 60.9638,104.295 63.5,107C 71.4845,106.669 79.4845,106.669 87.5,107C 90.1042,107.39 92.4375,108.224 94.5,109.5C 92.7085,109.634 91.0418,109.301 89.5,108.5C 80.1607,108.666 70.8274,108.5 61.5,108C 60,107.167 58.8333,106 58,104.5C 57.7508,105.624 57.2508,106.624 56.5,107.5C 56.1854,104.815 55.8521,102.149 55.5,99.5 Z"/></g>
<g><path style="opacity:1" fill="#f8ad53" d="M 136.5,70.5 C 135.787,78.7681 136.787,86.7681 139.5,94.5C 140.265,95.6119 141.265,96.2786 142.5,96.5C 145.952,102.619 150.952,106.952 157.5,109.5C 167.342,106.427 177.342,105.76 187.5,107.5C 187.5,108.167 187.833,108.5 188.5,108.5C 187.335,111.59 185.002,112.924 181.5,112.5C 181.5,113.5 181.5,114.5 181.5,115.5C 178.412,115.377 175.745,116.377 173.5,118.5C 174.376,119.251 175.376,119.751 176.5,120C 176.167,120.333 175.833,120.667 175.5,121C 183.322,123.154 191.322,124.321 199.5,124.5C 199.5,125.5 199.5,126.5 199.5,127.5C 196.5,127.5 193.5,127.5 190.5,127.5C 149.5,127.5 108.5,127.5 67.5,127.5C 66.5,127.5 65.5,127.5 64.5,127.5C 61.5,127.5 58.5,127.5 55.5,127.5C 62.4743,125.616 69.8077,124.283 77.5,123.5C 94.7311,124.175 112.064,124.175 129.5,123.5C 132.572,123.817 135.572,123.484 138.5,122.5C 134.167,121.833 129.833,121.167 125.5,120.5C 127.078,119.702 128.744,119.202 130.5,119C 131.337,117.989 131.67,116.822 131.5,115.5C 132.833,115.5 134.167,115.5 135.5,115.5C 135.5,114.167 135.5,112.833 135.5,111.5C 136.833,111.5 138.167,111.5 139.5,111.5C 139.561,109.408 140.561,107.908 142.5,107C 138.102,104.039 135.935,99.8719 136,94.5C 134.981,93.3128 133.814,92.3128 132.5,91.5C 131.608,84.8529 131.608,78.1862 132.5,71.5C 133.959,71.5674 135.292,71.2341 136.5,70.5 Z"/></g>
<g><path style="opacity:1" fill="#fedb58" d="M 205.5,87.5 C 207.015,92.869 208.848,98.2023 211,103.5C 212.329,104.494 213.662,105.494 215,106.5C 217.564,107.577 218.064,106.744 216.5,104C 218.5,103.667 220.5,103.333 222.5,103C 223.337,101.989 223.67,100.822 223.5,99.5C 224.5,99.5 225.5,99.5 226.5,99.5C 226.5,96.8333 226.5,94.1667 226.5,91.5C 228.292,91.634 229.958,91.3007 231.5,90.5C 231.5,94.5 231.5,98.5 231.5,102.5C 233.066,109.047 234.066,115.714 234.5,122.5C 233.044,123.011 231.377,123.011 229.5,122.5C 226.283,124.137 222.95,125.47 219.5,126.5C 219.192,127.308 218.692,127.975 218,128.5C 215.502,123.391 213.336,123.724 211.5,129.5C 209.946,128.086 208.612,126.419 207.5,124.5C 203.911,121.92 201.078,118.586 199,114.5C 199.009,110.765 199.176,107.098 199.5,103.5C 201.719,103.308 204.052,102.475 206.5,101C 207.337,99.9887 207.67,98.8221 207.5,97.5C 206.167,97.5 204.833,97.5 203.5,97.5C 203.5,95.5 203.5,93.5 203.5,91.5C 204.674,90.4863 205.34,89.153 205.5,87.5 Z"/></g>
<g><path style="opacity:1" fill="#fba940" d="M 129.5,123.5 C 112.064,124.175 94.7311,124.175 77.5,123.5C 79.288,123.785 80.9547,123.452 82.5,122.5C 81.6072,119.916 81.2739,117.249 81.5,114.5C 88.0918,113.906 94.4251,112.572 100.5,110.5C 101.742,111.043 103.075,111.377 104.5,111.5C 106.841,110.818 109.174,110.151 111.5,109.5C 111.5,110.5 111.5,111.5 111.5,112.5C 110.167,112.5 108.833,112.5 107.5,112.5C 107.201,114.604 107.534,116.604 108.5,118.5C 112.111,119.262 115.778,119.762 119.5,120C 122.709,121.794 126.042,122.961 129.5,123.5 Z"/></g>
<g><path style="opacity:1" fill="#fec155" d="M 199.5,103.5 C 199.176,107.098 199.009,110.765 199,114.5C 201.078,118.586 203.911,121.92 207.5,124.5C 205.611,125.401 204.278,126.901 203.5,129C 204.844,132.803 205.844,136.636 206.5,140.5C 205.167,142.167 203.833,143.833 202.5,145.5C 202.698,140.25 202.031,135.25 200.5,130.5C 200.737,129.209 200.404,128.209 199.5,127.5C 199.5,126.5 199.5,125.5 199.5,124.5C 191.322,124.321 183.322,123.154 175.5,121C 175.833,120.667 176.167,120.333 176.5,120C 175.376,119.751 174.376,119.251 173.5,118.5C 175.745,116.377 178.412,115.377 181.5,115.5C 181.5,114.5 181.5,113.5 181.5,112.5C 185.002,112.924 187.335,111.59 188.5,108.5C 189.873,108.657 191.207,108.49 192.5,108C 194.211,105.481 196.545,103.981 199.5,103.5 Z"/></g>
<g><path style="opacity:1" fill="#e29251" d="M 23.5,87.5 C 22.923,101.401 21.5897,115.234 19.5,129C 19.4944,134.222 19.9944,139.389 21,144.5C 23.9517,146.193 24.1183,148.026 21.5,150C 22.056,150.383 22.3893,150.883 22.5,151.5C 22.5,151.833 22.5,152.167 22.5,152.5C 21.1429,151.41 20.1429,150.076 19.5,148.5C 19.5386,147.244 19.0386,146.244 18,145.5C 17.3333,134.167 17.3333,122.833 18,111.5C 19.8343,105.384 20.8343,99.0508 21,92.5C 21.3736,90.5087 22.207,88.842 23.5,87.5 Z"/></g>
<g><path style="opacity:1" fill="#eb9344" d="M 50.5,47.5 C 49.8913,49.9433 48.3913,51.61 46,52.5C 45.0266,54.3921 44.3599,56.3921 44,58.5C 41.6451,59.6924 39.8118,61.359 38.5,63.5C 36.8036,67.3679 34.8036,71.2013 32.5,75C 32.8333,75.3333 33.1667,75.6667 33.5,76C 32.3415,79.9559 31.0082,83.7893 29.5,87.5C 27.3167,97.109 25.6501,106.942 24.5,117C 25.6179,121.722 26.6179,126.555 27.5,131.5C 28.4948,136.792 28.8282,142.125 28.5,147.5C 27.71,146.391 27.21,145.058 27,143.5C 25.6053,147.115 25.7719,150.782 27.5,154.5C 26.0209,153.241 24.3542,152.241 22.5,151.5C 22.3893,150.883 22.056,150.383 21.5,150C 24.1183,148.026 23.9517,146.193 21,144.5C 19.9944,139.389 19.4944,134.222 19.5,129C 21.5897,115.234 22.923,101.401 23.5,87.5C 25.5,82.1667 27.5,76.8333 29.5,71.5C 31.4628,70.0401 33.2962,68.3734 35,66.5C 36.4555,62.4232 37.9555,58.4232 39.5,54.5C 42.1142,54.7229 43.7809,53.5562 44.5,51C 46.9273,50.3728 48.9273,49.2062 50.5,47.5 Z"/></g>
<g><path style="opacity:1" fill="#ed972b" d="M 38.5,63.5 C 38.2833,66.4353 37.6166,69.2687 36.5,72C 36.5852,73.1074 36.9186,74.1074 37.5,75C 35.1091,77.8743 35.4424,79.3743 38.5,79.5C 38.0882,77.0274 39.0882,75.6941 41.5,75.5C 38.0939,83.8006 36.7605,92.4672 37.5,101.5C 38.5,101.5 39.5,101.5 40.5,101.5C 40.5573,106.682 41.224,106.682 42.5,101.5C 43.5896,102.391 43.5896,103.391 42.5,104.5C 44.0049,105.842 44.6715,107.508 44.5,109.5C 45.5,109.5 46.5,109.5 47.5,109.5C 47.5,110.833 47.5,112.167 47.5,113.5C 54.175,113.666 60.8417,113.5 67.5,113C 73.4279,111.778 79.4279,110.945 85.5,110.5C 87.3328,110.415 88.6661,109.748 89.5,108.5C 91.0418,109.301 92.7085,109.634 94.5,109.5C 96.1667,109.5 97.8333,109.5 99.5,109.5C 100.167,109.5 100.5,109.833 100.5,110.5C 94.4251,112.572 88.0918,113.906 81.5,114.5C 81.2739,117.249 81.6072,119.916 82.5,122.5C 80.9547,123.452 79.288,123.785 77.5,123.5C 69.8077,124.283 62.4743,125.616 55.5,127.5C 54.353,131.646 54.1864,135.98 55,140.5C 57.1104,145.991 58.277,151.658 58.5,157.5C 55.3699,158.851 52.7032,160.851 50.5,163.5C 49.9367,159.365 48.9367,155.365 47.5,151.5C 45.5,151.5 43.5,151.5 41.5,151.5C 41.5,148.833 41.5,146.167 41.5,143.5C 40.1667,143.5 38.8333,143.5 37.5,143.5C 37.1156,141.071 36.449,138.737 35.5,136.5C 34.0222,136.762 32.6888,136.429 31.5,135.5C 30.8286,132.663 30.8286,129.663 31.5,126.5C 30.8551,125.354 30.0217,124.354 29,123.5C 28.5551,117.828 28.0551,112.162 27.5,106.5C 28.856,100.434 29.856,94.2669 30.5,88C 30.2716,87.6012 29.9382,87.4346 29.5,87.5C 31.0082,83.7893 32.3415,79.9559 33.5,76C 33.1667,75.6667 32.8333,75.3333 32.5,75C 34.8036,71.2013 36.8036,67.3679 38.5,63.5 Z"/></g>
<g><path style="opacity:1" fill="#eeb8d5" d="M 67.5,127.5 C 108.5,127.5 149.5,127.5 190.5,127.5C 190.5,127.833 190.5,128.167 190.5,128.5C 190.672,129.492 190.338,130.158 189.5,130.5C 149.01,128.835 108.344,127.835 67.5,127.5 Z"/></g>
<g><path style="opacity:1" fill="#951e6f" d="M 190.5,128.5 C 190.5,128.167 190.5,127.833 190.5,127.5C 193.5,127.5 196.5,127.5 199.5,127.5C 198.706,135.929 197.373,144.262 195.5,152.5C 195.068,153.71 194.401,154.71 193.5,155.5C 193.629,153.784 193.962,152.117 194.5,150.5C 196.228,143.287 197.228,135.954 197.5,128.5C 195.167,128.5 192.833,128.5 190.5,128.5 Z"/></g>
<g><path style="opacity:1" fill="#f5ccfe" d="M 64.5,127.5 C 65.5,127.5 66.5,127.5 67.5,127.5C 108.344,127.835 149.01,128.835 189.5,130.5C 189.737,131.791 189.404,132.791 188.5,133.5C 188.5,132.167 188.5,130.833 188.5,129.5C 182.167,129.5 175.833,129.5 169.5,129.5C 135.486,129.184 101.486,129.684 67.5,131C 66.7476,131.671 66.4142,132.504 66.5,133.5C 65.0687,132.22 64.4021,130.553 64.5,128.5C 64.5,128.167 64.5,127.833 64.5,127.5 Z"/></g>
<g><path style="opacity:1" fill="#fed147" d="M 234.5,122.5 C 234.982,123.416 235.315,124.416 235.5,125.5C 234.118,128.466 232.785,131.466 231.5,134.5C 230.533,135.806 229.199,136.473 227.5,136.5C 227.5,137.5 227.5,138.5 227.5,139.5C 222.716,138.368 218.716,137.035 215.5,135.5C 215.646,132.446 214.313,130.446 211.5,129.5C 213.336,123.724 215.502,123.391 218,128.5C 218.692,127.975 219.192,127.308 219.5,126.5C 222.95,125.47 226.283,124.137 229.5,122.5C 231.377,123.011 233.044,123.011 234.5,122.5 Z"/></g>
<g><path style="opacity:1" fill="#f99775" d="M 199.5,127.5 C 200.404,128.209 200.737,129.209 200.5,130.5C 200.139,138.093 198.805,145.427 196.5,152.5C 196.167,152.5 195.833,152.5 195.5,152.5C 197.373,144.262 198.706,135.929 199.5,127.5 Z"/></g>
<g><path style="opacity:1" fill="#9a1e74" d="M 55.5,127.5 C 58.5,127.5 61.5,127.5 64.5,127.5C 64.5,127.833 64.5,128.167 64.5,128.5C 62.1667,128.5 59.8333,128.5 57.5,128.5C 57.8422,135.968 58.8422,143.301 60.5,150.5C 60.5,150.833 60.5,151.167 60.5,151.5C 61.2341,152.708 61.5674,154.041 61.5,155.5C 59.8916,152.79 58.7249,149.79 58,146.5C 56.6793,140.222 55.846,133.888 55.5,127.5 Z"/></g>
<g><path style="opacity:1" fill="#fdc84f" d="M 231.5,102.5 C 232.5,102.5 233.5,102.5 234.5,102.5C 236.275,115.75 236.942,129.083 236.5,142.5C 235.883,142.611 235.383,142.944 235,143.5C 234.431,149.12 233.264,154.454 231.5,159.5C 230.833,160.167 230.167,160.833 229.5,161.5C 229.973,154.999 230.973,148.666 232.5,142.5C 232.386,139.783 232.052,137.116 231.5,134.5C 232.785,131.466 234.118,128.466 235.5,125.5C 235.315,124.416 234.982,123.416 234.5,122.5C 234.066,115.714 233.066,109.047 231.5,102.5 Z"/></g>
<g><path style="opacity:1" fill="#9c09a1" d="M 64.5,128.5 C 64.4021,130.553 65.0687,132.22 66.5,133.5C 66.8333,134.167 67.1667,134.833 67.5,135.5C 68.343,137.173 69.6763,138.34 71.5,139C 108.833,139.667 146.167,139.667 183.5,139C 185.324,138.34 186.657,137.173 187.5,135.5C 187.833,134.833 188.167,134.167 188.5,133.5C 189.404,132.791 189.737,131.791 189.5,130.5C 190.338,130.158 190.672,129.492 190.5,128.5C 192.833,128.5 195.167,128.5 197.5,128.5C 197.228,135.954 196.228,143.287 194.5,150.5C 193.504,150.414 192.671,150.748 192,151.5C 191.51,150.207 191.343,148.873 191.5,147.5C 189.833,147.5 188.167,147.5 186.5,147.5C 186.719,146.325 186.386,145.325 185.5,144.5C 183.424,146.288 181.257,147.954 179,149.5C 178.612,148.572 177.945,147.905 177,147.5C 175.78,148.388 174.447,149.055 173,149.5C 166.879,147.12 160.712,147.12 154.5,149.5C 141.07,149.145 127.736,149.145 114.5,149.5C 112.885,148.846 111.218,148.346 109.5,148C 101.833,147.667 94.1667,147.333 86.5,147C 85.5838,146.626 84.7504,146.126 84,145.5C 81.9031,146.991 79.5697,147.991 77,148.5C 75.1286,146.697 72.9619,145.364 70.5,144.5C 67.7835,145.653 64.7835,145.653 61.5,144.5C 61.5,145.5 61.5,146.5 61.5,147.5C 61.7373,148.791 61.404,149.791 60.5,150.5C 58.8422,143.301 57.8422,135.968 57.5,128.5C 59.8333,128.5 62.1667,128.5 64.5,128.5 Z"/></g>
<g><path style="opacity:1" fill="#f0aef3" d="M 67.5,135.5 C 68.9217,135.709 70.255,136.209 71.5,137C 90.3333,137.167 109.167,137.333 128,137.5C 147.179,137.5 166.012,136.833 184.5,135.5C 185.5,135.5 186.5,135.5 187.5,135.5C 186.657,137.173 185.324,138.34 183.5,139C 146.167,139.667 108.833,139.667 71.5,139C 69.6763,138.34 68.343,137.173 67.5,135.5 Z"/></g>
<g><path style="opacity:1" fill="#fddefe" d="M 169.5,129.5 C 156.533,131.36 143.199,132.526 129.5,133C 130.308,133.308 130.975,133.808 131.5,134.5C 149.154,135.5 166.821,135.833 184.5,135.5C 166.012,136.833 147.179,137.5 128,137.5C 109.167,137.333 90.3333,137.167 71.5,137C 70.255,136.209 68.9217,135.709 67.5,135.5C 67.1667,134.833 66.8333,134.167 66.5,133.5C 66.4142,132.504 66.7476,131.671 67.5,131C 101.486,129.684 135.486,129.184 169.5,129.5 Z"/></g>
<g><path style="opacity:1" fill="#fdeafe" d="M 169.5,129.5 C 175.833,129.5 182.167,129.5 188.5,129.5C 188.5,130.833 188.5,132.167 188.5,133.5C 188.167,134.167 187.833,134.833 187.5,135.5C 186.5,135.5 185.5,135.5 184.5,135.5C 166.821,135.833 149.154,135.5 131.5,134.5C 130.975,133.808 130.308,133.308 129.5,133C 143.199,132.526 156.533,131.36 169.5,129.5 Z"/></g>
<g><path style="opacity:1" fill="#e98d2c" d="M 29.5,87.5 C 29.9382,87.4346 30.2716,87.6012 30.5,88C 29.856,94.2669 28.856,100.434 27.5,106.5C 28.0551,112.162 28.5551,117.828 29,123.5C 30.0217,124.354 30.8551,125.354 31.5,126.5C 30.8286,129.663 30.8286,132.663 31.5,135.5C 32.6888,136.429 34.0222,136.762 35.5,136.5C 36.449,138.737 37.1156,141.071 37.5,143.5C 38.8333,143.5 40.1667,143.5 41.5,143.5C 41.5,146.167 41.5,148.833 41.5,151.5C 43.5,151.5 45.5,151.5 47.5,151.5C 48.9367,155.365 49.9367,159.365 50.5,163.5C 50.5,164.833 50.5,166.167 50.5,167.5C 48.8561,167.714 47.3561,167.38 46,166.5C 44.8822,164.235 44.0488,161.901 43.5,159.5C 39.311,158.627 37.311,155.96 37.5,151.5C 35.1667,151.5 32.8333,151.5 30.5,151.5C 30.8432,149.517 30.1765,148.183 28.5,147.5C 28.8282,142.125 28.4948,136.792 27.5,131.5C 26.6179,126.555 25.6179,121.722 24.5,117C 25.6501,106.942 27.3167,97.109 29.5,87.5 Z"/></g>
<g><path style="opacity:1" fill="#f9c97f" d="M 238.5,113.5 C 239.658,122.657 239.824,131.991 239,141.5C 238.513,147.764 237.347,153.764 235.5,159.5C 235.447,153.804 235.78,148.138 236.5,142.5C 238.083,133.046 238.749,123.379 238.5,113.5 Z"/></g>
<g><path style="opacity:1" fill="#fec43b" d="M 207.5,124.5 C 208.612,126.419 209.946,128.086 211.5,129.5C 214.313,130.446 215.646,132.446 215.5,135.5C 218.716,137.035 222.716,138.368 227.5,139.5C 227.5,138.5 227.5,137.5 227.5,136.5C 229.199,136.473 230.533,135.806 231.5,134.5C 232.052,137.116 232.386,139.783 232.5,142.5C 230.973,148.666 229.973,154.999 229.5,161.5C 226.52,163.527 224.52,166.361 223.5,170C 219.514,170.499 215.514,170.666 211.5,170.5C 211.5,169.5 211.5,168.5 211.5,167.5C 208.794,167.425 206.127,167.092 203.5,166.5C 204.664,159.256 206.331,152.089 208.5,145C 207.901,143.378 207.234,141.878 206.5,140.5C 205.844,136.636 204.844,132.803 203.5,129C 204.278,126.901 205.611,125.401 207.5,124.5 Z"/></g>
<g><path style="opacity:1" fill="#a810a0" d="M 194.5,150.5 C 193.962,152.117 193.629,153.784 193.5,155.5C 193.167,155.5 192.833,155.5 192.5,155.5C 190.742,155.877 189.075,156.544 187.5,157.5C 184.613,155.282 181.613,155.282 178.5,157.5C 178.5,156.167 178.5,154.833 178.5,153.5C 175.592,153.262 173.258,154.262 171.5,156.5C 143.542,155.675 115.542,155.175 87.5,155C 86.062,154.781 84.7287,154.281 83.5,153.5C 83.7093,152.914 84.0426,152.414 84.5,152C 80.5787,151.797 76.7454,151.297 73,150.5C 68.6148,152.318 65.4482,150.984 63.5,146.5C 62.8165,146.863 62.1499,147.196 61.5,147.5C 61.5,146.5 61.5,145.5 61.5,144.5C 64.7835,145.653 67.7835,145.653 70.5,144.5C 72.9619,145.364 75.1286,146.697 77,148.5C 79.5697,147.991 81.9031,146.991 84,145.5C 84.7504,146.126 85.5838,146.626 86.5,147C 94.1667,147.333 101.833,147.667 109.5,148C 111.218,148.346 112.885,148.846 114.5,149.5C 127.736,149.145 141.07,149.145 154.5,149.5C 160.712,147.12 166.879,147.12 173,149.5C 174.447,149.055 175.78,148.388 177,147.5C 177.945,147.905 178.612,148.572 179,149.5C 181.257,147.954 183.424,146.288 185.5,144.5C 186.386,145.325 186.719,146.325 186.5,147.5C 188.167,147.5 189.833,147.5 191.5,147.5C 191.343,148.873 191.51,150.207 192,151.5C 192.671,150.748 193.504,150.414 194.5,150.5 Z"/></g>
<g><path style="opacity:1" fill="#b0159e" d="M 178.5,157.5 C 174.759,159.392 171.259,159.392 168,157.5C 165.144,157.871 162.311,158.371 159.5,159C 133.455,160.054 107.455,159.554 81.5,157.5C 79.0363,157.59 76.8697,158.257 75,159.5C 74.6667,159.167 74.3333,158.833 74,158.5C 72.1222,159.053 70.6222,160.053 69.5,161.5C 68.1779,161.67 67.0113,161.337 66,160.5C 65.6948,158.443 65.6948,156.443 66,154.5C 65.3109,155.357 64.4776,156.023 63.5,156.5C 62.9986,154.345 61.9986,152.678 60.5,151.5C 60.5,151.167 60.5,150.833 60.5,150.5C 61.404,149.791 61.7373,148.791 61.5,147.5C 62.1499,147.196 62.8165,146.863 63.5,146.5C 65.4482,150.984 68.6148,152.318 73,150.5C 76.7454,151.297 80.5787,151.797 84.5,152C 84.0426,152.414 83.7093,152.914 83.5,153.5C 84.7287,154.281 86.062,154.781 87.5,155C 115.542,155.175 143.542,155.675 171.5,156.5C 173.258,154.262 175.592,153.262 178.5,153.5C 178.5,154.833 178.5,156.167 178.5,157.5 Z"/></g>
<g><path style="opacity:1" fill="#b5159a" d="M 192.5,155.5 C 191.37,160.295 188.704,163.961 184.5,166.5C 185.954,168.263 185.62,169.597 183.5,170.5C 182.614,169.675 182.281,168.675 182.5,167.5C 181.167,167.5 179.833,167.5 178.5,167.5C 177.732,168.263 177.232,169.263 177,170.5C 173.79,167.757 169.956,166.423 165.5,166.5C 162.478,166.727 159.811,167.727 157.5,169.5C 157.649,168.448 157.483,167.448 157,166.5C 153.459,167.872 149.959,167.706 146.5,166C 129.5,165.667 112.5,165.333 95.5,165C 93.5413,163.904 91.3747,163.404 89,163.5C 84.7703,163.766 80.6037,164.432 76.5,165.5C 73.6657,164.99 71.3323,163.656 69.5,161.5C 70.6222,160.053 72.1222,159.053 74,158.5C 74.3333,158.833 74.6667,159.167 75,159.5C 76.8697,158.257 79.0363,157.59 81.5,157.5C 107.455,159.554 133.455,160.054 159.5,159C 162.311,158.371 165.144,157.871 168,157.5C 171.259,159.392 174.759,159.392 178.5,157.5C 181.613,155.282 184.613,155.282 187.5,157.5C 189.075,156.544 190.742,155.877 192.5,155.5 Z"/></g>
<g><path style="opacity:1" fill="#f88f4d" d="M 55.5,127.5 C 55.846,133.888 56.6793,140.222 58,146.5C 58.7249,149.79 59.8916,152.79 61.5,155.5C 62.8333,158.833 64.1667,162.167 65.5,165.5C 64.5272,164.209 63.5272,164.209 62.5,165.5C 61.5224,165.023 60.6891,164.357 60,163.5C 59.6847,161.414 59.1847,159.414 58.5,157.5C 58.277,151.658 57.1104,145.991 55,140.5C 54.1864,135.98 54.353,131.646 55.5,127.5 Z"/></g>
<g><path style="opacity:1" fill="#fd975b" d="M 195.5,152.5 C 195.833,152.5 196.167,152.5 196.5,152.5C 196.634,154.292 196.301,155.958 195.5,157.5C 193.313,163.035 190.646,168.369 187.5,173.5C 186.15,174.95 184.484,175.617 182.5,175.5C 187.031,169.304 190.697,162.637 193.5,155.5C 194.401,154.71 195.068,153.71 195.5,152.5 Z"/></g>
<g><path style="opacity:1" fill="#feb73c" d="M 206.5,140.5 C 207.234,141.878 207.901,143.378 208.5,145C 206.331,152.089 204.664,159.256 203.5,166.5C 206.127,167.092 208.794,167.425 211.5,167.5C 211.5,168.5 211.5,169.5 211.5,170.5C 215.514,170.666 219.514,170.499 223.5,170C 224.52,166.361 226.52,163.527 229.5,161.5C 230.167,160.833 230.833,160.167 231.5,159.5C 230.543,166.079 227.876,171.746 223.5,176.5C 223.103,175.475 222.437,175.308 221.5,176C 218.93,178.067 216.93,180.567 215.5,183.5C 214.562,184.553 213.395,185.22 212,185.5C 209.753,184.749 207.419,184.749 205,185.5C 203.284,185.252 201.784,184.585 200.5,183.5C 199.671,176.055 199.005,168.555 198.5,161C 200.215,160.223 201.215,158.89 201.5,157C 202.31,153.208 202.644,149.375 202.5,145.5C 203.833,143.833 205.167,142.167 206.5,140.5 Z"/></g>
<g><path style="opacity:1" fill="#c21a9a" d="M 60.5,151.5 C 61.9986,152.678 62.9986,154.345 63.5,156.5C 64.4776,156.023 65.3109,155.357 66,154.5C 65.6948,156.443 65.6948,158.443 66,160.5C 67.0113,161.337 68.1779,161.67 69.5,161.5C 71.3323,163.656 73.6657,164.99 76.5,165.5C 80.6037,164.432 84.7703,163.766 89,163.5C 91.3747,163.404 93.5413,163.904 95.5,165C 112.5,165.333 129.5,165.667 146.5,166C 149.959,167.706 153.459,167.872 157,166.5C 157.483,167.448 157.649,168.448 157.5,169.5C 152.221,172.086 146.888,172.086 141.5,169.5C 138.194,170.163 134.861,170.663 131.5,171C 135.956,170.898 139.956,171.732 143.5,173.5C 138.589,173.033 133.922,173.7 129.5,175.5C 124.084,172.846 118.751,172.846 113.5,175.5C 112.692,175.192 112.025,174.692 111.5,174C 102.702,172.956 94.0353,173.456 85.5,175.5C 83.0276,174.008 80.3609,173.342 77.5,173.5C 77.2883,177.315 76.6216,177.315 75.5,173.5C 76.1556,171.547 76.4889,169.547 76.5,167.5C 74.5328,167.261 72.6995,167.594 71,168.5C 69.6003,167.252 68.1003,166.252 66.5,165.5C 66.1667,165.5 65.8333,165.5 65.5,165.5C 64.1667,162.167 62.8333,158.833 61.5,155.5C 61.5674,154.041 61.2341,152.708 60.5,151.5 Z"/></g>
<g><path style="opacity:1" fill="#fead44" d="M 200.5,130.5 C 202.031,135.25 202.698,140.25 202.5,145.5C 202.644,149.375 202.31,153.208 201.5,157C 201.215,158.89 200.215,160.223 198.5,161C 199.005,168.555 199.671,176.055 200.5,183.5C 201.784,184.585 203.284,185.252 205,185.5C 207.419,184.749 209.753,184.749 212,185.5C 213.395,185.22 214.562,184.553 215.5,183.5C 216.93,180.567 218.93,178.067 221.5,176C 222.437,175.308 223.103,175.475 223.5,176.5C 223.5,177.5 223.5,178.5 223.5,179.5C 222.722,183.623 220.388,186.623 216.5,188.5C 215.614,189.325 215.281,190.325 215.5,191.5C 212.632,192.353 209.965,193.686 207.5,195.5C 202.983,194.834 198.317,194.167 193.5,193.5C 192.194,192.088 191.36,190.421 191,188.5C 189.989,187.663 188.822,187.33 187.5,187.5C 187.5,183.833 187.5,180.167 187.5,176.5C 188.5,176.5 189.5,176.5 190.5,176.5C 190.933,173.834 191.433,171.168 192,168.5C 195.051,165.57 196.218,161.903 195.5,157.5C 196.301,155.958 196.634,154.292 196.5,152.5C 198.805,145.427 200.139,138.093 200.5,130.5 Z"/></g>
<g><path style="opacity:1" fill="#df8037" d="M 22.5,151.5 C 24.3542,152.241 26.0209,153.241 27.5,154.5C 29.226,158.083 31.226,161.583 33.5,165C 33.3552,165.772 33.0219,166.439 32.5,167C 34.019,168.351 35.3523,169.851 36.5,171.5C 39.2121,172.067 41.8787,172.401 44.5,172.5C 45.0149,174.225 45.6816,175.892 46.5,177.5C 48.1012,178.165 49.6012,178.499 51,178.5C 51.49,179.793 51.6567,181.127 51.5,182.5C 50.5305,183.629 49.3638,184.629 48,185.5C 46.5936,184.586 45.0936,183.92 43.5,183.5C 37.5497,180.883 33.2164,176.55 30.5,170.5C 29.2921,167.956 27.2921,166.622 24.5,166.5C 24.0431,161.799 23.3764,157.132 22.5,152.5C 22.5,152.167 22.5,151.833 22.5,151.5 Z"/></g>
<g><path style="opacity:1" fill="#ed8b36" d="M 28.5,147.5 C 30.1765,148.183 30.8432,149.517 30.5,151.5C 32.8333,151.5 35.1667,151.5 37.5,151.5C 37.311,155.96 39.311,158.627 43.5,159.5C 44.0488,161.901 44.8822,164.235 46,166.5C 47.3561,167.38 48.8561,167.714 50.5,167.5C 50.5,166.167 50.5,164.833 50.5,163.5C 52.7032,160.851 55.3699,158.851 58.5,157.5C 59.1847,159.414 59.6847,161.414 60,163.5C 60.6891,164.357 61.5224,165.023 62.5,165.5C 63.5272,164.209 64.5272,164.209 65.5,165.5C 65.8096,169.108 67.143,172.274 69.5,175C 68.1667,176.667 68.1667,178.333 69.5,180C 67.3006,179.255 64.9673,178.421 62.5,177.5C 61.6922,179.423 61.1922,181.423 61,183.5C 57.9882,181.452 54.8215,181.119 51.5,182.5C 51.6567,181.127 51.49,179.793 51,178.5C 49.6012,178.499 48.1012,178.165 46.5,177.5C 45.6816,175.892 45.0149,174.225 44.5,172.5C 41.8787,172.401 39.2121,172.067 36.5,171.5C 35.3523,169.851 34.019,168.351 32.5,167C 33.0219,166.439 33.3552,165.772 33.5,165C 31.226,161.583 29.226,158.083 27.5,154.5C 25.7719,150.782 25.6053,147.115 27,143.5C 27.21,145.058 27.71,146.391 28.5,147.5 Z"/></g>
<g><path style="opacity:1" fill="#be108e" d="M 178.5,167.5 C 178.736,169.973 180.069,171.64 182.5,172.5C 181.675,173.386 180.675,173.719 179.5,173.5C 179.719,174.675 179.386,175.675 178.5,176.5C 175.833,175.167 175.167,175.833 176.5,178.5C 175.264,179.357 173.931,180.023 172.5,180.5C 171.614,181.325 171.281,182.325 171.5,183.5C 171.158,184.338 170.492,184.672 169.5,184.5C 167.599,184.567 165.766,184.233 164,183.5C 162.333,184.167 160.667,184.833 159,185.5C 156.994,184.12 154.994,182.786 153,181.5C 150.538,182.159 148.038,182.493 145.5,182.5C 144.08,179.739 143.413,176.739 143.5,173.5C 139.956,171.732 135.956,170.898 131.5,171C 134.861,170.663 138.194,170.163 141.5,169.5C 146.888,172.086 152.221,172.086 157.5,169.5C 159.811,167.727 162.478,166.727 165.5,166.5C 169.956,166.423 173.79,167.757 177,170.5C 177.232,169.263 177.732,168.263 178.5,167.5 Z"/></g>
<g><path style="opacity:1" fill="#c91994" d="M 66.5,165.5 C 68.1003,166.252 69.6003,167.252 71,168.5C 72.6995,167.594 74.5328,167.261 76.5,167.5C 76.4889,169.547 76.1556,171.547 75.5,173.5C 76.6216,177.315 77.2883,177.315 77.5,173.5C 80.3609,173.342 83.0276,174.008 85.5,175.5C 94.0353,173.456 102.702,172.956 111.5,174C 112.025,174.692 112.692,175.192 113.5,175.5C 118.751,172.846 124.084,172.846 129.5,175.5C 133.922,173.7 138.589,173.033 143.5,173.5C 143.413,176.739 144.08,179.739 145.5,182.5C 137.795,183.075 130.128,184.075 122.5,185.5C 115.493,184.207 108.493,184.207 101.5,185.5C 98.7894,184.986 96.2894,183.986 94,182.5C 92.3333,183.833 90.6667,183.833 89,182.5C 88.5172,183.448 88.3505,184.448 88.5,185.5C 87.1266,185.657 85.7932,185.49 84.5,185C 82.2295,182.218 79.5628,180.051 76.5,178.5C 74.8333,177.167 73.1667,175.833 71.5,174.5C 69.4275,171.752 67.7609,168.752 66.5,165.5 Z"/></g>
<g><path style="opacity:1" fill="#f9b95b" d="M 236.5,142.5 C 235.78,148.138 235.447,153.804 235.5,159.5C 233.171,163.642 231.505,168.142 230.5,173C 228.694,175.825 226.361,177.991 223.5,179.5C 223.5,178.5 223.5,177.5 223.5,176.5C 227.876,171.746 230.543,166.079 231.5,159.5C 233.264,154.454 234.431,149.12 235,143.5C 235.383,142.944 235.883,142.611 236.5,142.5 Z"/></g>
<g><path style="opacity:1" fill="#b00e74" d="M 192.5,155.5 C 192.833,155.5 193.167,155.5 193.5,155.5C 190.697,162.637 187.031,169.304 182.5,175.5C 180.167,177.5 177.833,179.5 175.5,181.5C 173.801,181.527 172.467,182.194 171.5,183.5C 171.281,182.325 171.614,181.325 172.5,180.5C 173.931,180.023 175.264,179.357 176.5,178.5C 175.167,175.833 175.833,175.167 178.5,176.5C 179.386,175.675 179.719,174.675 179.5,173.5C 180.675,173.719 181.675,173.386 182.5,172.5C 180.069,171.64 178.736,169.973 178.5,167.5C 179.833,167.5 181.167,167.5 182.5,167.5C 182.281,168.675 182.614,169.675 183.5,170.5C 185.62,169.597 185.954,168.263 184.5,166.5C 188.704,163.961 191.37,160.295 192.5,155.5 Z"/></g>
<g><path style="opacity:1" fill="#f18840" d="M 65.5,165.5 C 65.8333,165.5 66.1667,165.5 66.5,165.5C 67.7609,168.752 69.4275,171.752 71.5,174.5C 73.2134,176.907 74.5467,179.574 75.5,182.5C 73.0359,185.213 73.7026,187.213 77.5,188.5C 79.0564,187.453 80.7231,186.786 82.5,186.5C 82.4386,188.592 81.4386,190.092 79.5,191C 81.9458,192.483 81.6124,193.649 78.5,194.5C 74.8442,193.64 71.1775,192.64 67.5,191.5C 66.2867,191.747 65.62,192.414 65.5,193.5C 62.1609,191.958 58.8276,190.958 55.5,190.5C 55.7093,189.914 56.0426,189.414 56.5,189C 55.2986,188.097 54.4652,186.931 54,185.5C 53.3109,186.357 52.4776,187.023 51.5,187.5C 49.2241,186.787 46.8907,186.287 44.5,186C 43.7476,185.329 43.4142,184.496 43.5,183.5C 45.0936,183.92 46.5936,184.586 48,185.5C 49.3638,184.629 50.5305,183.629 51.5,182.5C 54.8215,181.119 57.9882,181.452 61,183.5C 61.1922,181.423 61.6922,179.423 62.5,177.5C 64.9673,178.421 67.3006,179.255 69.5,180C 68.1667,178.333 68.1667,176.667 69.5,175C 67.143,172.274 65.8096,169.108 65.5,165.5 Z"/></g>
<g><path style="opacity:1" fill="#f4b16a" d="M 235.5,159.5 C 233.692,168.592 230.692,177.259 226.5,185.5C 223.458,186.203 221.791,188.203 221.5,191.5C 220.398,192.176 219.398,192.842 218.5,193.5C 217.222,193.218 216.222,192.551 215.5,191.5C 215.281,190.325 215.614,189.325 216.5,188.5C 220.388,186.623 222.722,183.623 223.5,179.5C 226.361,177.991 228.694,175.825 230.5,173C 231.505,168.142 233.171,163.642 235.5,159.5 Z"/></g>
<g><path style="opacity:1" fill="#d67a4b" d="M 19.5,148.5 C 20.1429,150.076 21.1429,151.41 22.5,152.5C 23.3764,157.132 24.0431,161.799 24.5,166.5C 27.2921,166.622 29.2921,167.956 30.5,170.5C 29.7611,170.369 29.0944,170.536 28.5,171C 30.0037,172.491 30.8371,174.324 31,176.5C 36.0055,181.839 41.3389,186.839 47,191.5C 47.4643,192.094 47.631,192.761 47.5,193.5C 43.0202,192.402 39.8536,189.735 38,185.5C 35.5859,186.856 33.4193,186.522 31.5,184.5C 30.536,181.926 29.036,179.592 27,177.5C 28.4326,173.388 26.9326,170.721 22.5,169.5C 21.2616,167.786 20.595,165.786 20.5,163.5C 19.8363,158.527 19.5029,153.527 19.5,148.5 Z"/></g>
<g><path style="opacity:1" fill="#fe9e52" d="M 172.5,187.5 C 174.035,189.968 175.035,192.635 175.5,195.5C 177.833,195.5 180.167,195.5 182.5,195.5C 182.238,196.978 182.571,198.311 183.5,199.5C 187.33,200.322 191.164,201.322 195,202.5C 199.021,201.478 202.855,199.978 206.5,198C 207.252,197.329 207.586,196.496 207.5,195.5C 209.965,193.686 212.632,192.353 215.5,191.5C 215.244,193.776 213.91,194.943 211.5,195C 207.224,199.802 202.224,203.635 196.5,206.5C 192.465,204.318 188.299,203.985 184,205.5C 181.298,204.974 178.631,204.307 176,203.5C 172.969,204.154 169.802,204.154 166.5,203.5C 166.292,201.08 166.626,198.747 167.5,196.5C 166.313,195.481 165.313,194.314 164.5,193C 167.069,190.894 169.735,189.06 172.5,187.5 Z"/></g>
<g><path style="opacity:1" fill="#cc7d6b" d="M 22.5,169.5 C 26.9326,170.721 28.4326,173.388 27,177.5C 29.036,179.592 30.536,181.926 31.5,184.5C 32.7859,187.117 34.4525,189.45 36.5,191.5C 38.4279,193.781 39.4279,196.447 39.5,199.5C 38.8333,199.5 38.1667,199.5 37.5,199.5C 30.388,190.609 25.388,180.609 22.5,169.5 Z"/></g>
<g><path style="opacity:1" fill="#ce2070" d="M 76.5,178.5 C 79.5628,180.051 82.2295,182.218 84.5,185C 85.7932,185.49 87.1266,185.657 88.5,185.5C 92.9067,183.899 93.9067,184.899 91.5,188.5C 106.484,196.667 122.484,199.5 139.5,197C 143.371,195.488 147.371,194.655 151.5,194.5C 151.421,193.07 151.754,191.736 152.5,190.5C 159.25,191.628 164.916,189.628 169.5,184.5C 170.492,184.672 171.158,184.338 171.5,183.5C 172.467,182.194 173.801,181.527 175.5,181.5C 172.124,184.878 168.457,187.878 164.5,190.5C 138.316,203.11 112.649,202.443 87.5,188.5C 83.2352,185.906 79.5686,182.572 76.5,178.5 Z"/></g>
<g><path style="opacity:1" fill="#cf0d86" d="M 169.5,184.5 C 164.916,189.628 159.25,191.628 152.5,190.5C 151.754,191.736 151.421,193.07 151.5,194.5C 147.371,194.655 143.371,195.488 139.5,197C 122.484,199.5 106.484,196.667 91.5,188.5C 93.9067,184.899 92.9067,183.899 88.5,185.5C 88.3505,184.448 88.5172,183.448 89,182.5C 90.6667,183.833 92.3333,183.833 94,182.5C 96.2894,183.986 98.7894,184.986 101.5,185.5C 108.493,184.207 115.493,184.207 122.5,185.5C 130.128,184.075 137.795,183.075 145.5,182.5C 148.038,182.493 150.538,182.159 153,181.5C 154.994,182.786 156.994,184.12 159,185.5C 160.667,184.833 162.333,184.167 164,183.5C 165.766,184.233 167.599,184.567 169.5,184.5 Z"/></g>
<g><path style="opacity:1" fill="#fe975b" d="M 182.5,175.5 C 181.32,177.693 180.32,180.026 179.5,182.5C 176.964,183.938 174.631,185.605 172.5,187.5C 169.735,189.06 167.069,190.894 164.5,193C 165.313,194.314 166.313,195.481 167.5,196.5C 166.626,198.747 166.292,201.08 166.5,203.5C 169.802,204.154 172.969,204.154 176,203.5C 178.631,204.307 181.298,204.974 184,205.5C 188.299,203.985 192.465,204.318 196.5,206.5C 202.224,203.635 207.224,199.802 211.5,195C 213.91,194.943 215.244,193.776 215.5,191.5C 216.222,192.551 217.222,193.218 218.5,193.5C 217.055,195.133 215.721,196.966 214.5,199C 213.552,199.483 212.552,199.649 211.5,199.5C 211.5,200.5 211.5,201.5 211.5,202.5C 209.167,202.833 207.833,204.167 207.5,206.5C 196.974,206.711 187.307,209.545 178.5,215C 168.172,215.5 157.839,215.666 147.5,215.5C 147.369,214.624 147.702,213.957 148.5,213.5C 150.661,212.965 152.661,212.132 154.5,211C 153.552,210.517 152.552,210.351 151.5,210.5C 150.551,208.263 149.884,205.929 149.5,203.5C 147.5,203.5 145.5,203.5 143.5,203.5C 143.5,202.5 143.5,201.5 143.5,200.5C 149.756,200.766 155.756,199.766 161.5,197.5C 161.273,194.562 162.273,192.229 164.5,190.5C 168.457,187.878 172.124,184.878 175.5,181.5C 177.833,179.5 180.167,177.5 182.5,175.5 Z"/></g>
<g><path style="opacity:1" fill="#fea44c" d="M 195.5,157.5 C 196.218,161.903 195.051,165.57 192,168.5C 191.433,171.168 190.933,173.834 190.5,176.5C 189.5,176.5 188.5,176.5 187.5,176.5C 187.5,180.167 187.5,183.833 187.5,187.5C 188.822,187.33 189.989,187.663 191,188.5C 191.36,190.421 192.194,192.088 193.5,193.5C 198.317,194.167 202.983,194.834 207.5,195.5C 207.586,196.496 207.252,197.329 206.5,198C 202.855,199.978 199.021,201.478 195,202.5C 191.164,201.322 187.33,200.322 183.5,199.5C 182.571,198.311 182.238,196.978 182.5,195.5C 180.167,195.5 177.833,195.5 175.5,195.5C 175.035,192.635 174.035,189.968 172.5,187.5C 174.631,185.605 176.964,183.938 179.5,182.5C 180.32,180.026 181.32,177.693 182.5,175.5C 184.484,175.617 186.15,174.95 187.5,173.5C 190.646,168.369 193.313,163.035 195.5,157.5 Z"/></g>
<g><path style="opacity:1" fill="#f98c51" d="M 71.5,174.5 C 73.1667,175.833 74.8333,177.167 76.5,178.5C 79.5686,182.572 83.2352,185.906 87.5,188.5C 88.7937,190.296 89.7937,192.296 90.5,194.5C 93.2762,195.089 95.6096,196.422 97.5,198.5C 96.3112,199.429 94.9778,199.762 93.5,199.5C 91.0025,199.727 89.3359,201.06 88.5,203.5C 86.8662,203.032 85.6995,202.032 85,200.5C 82.2445,201.07 79.7445,202.07 77.5,203.5C 73.4602,200.156 69.4602,196.823 65.5,193.5C 65.62,192.414 66.2867,191.747 67.5,191.5C 71.1775,192.64 74.8442,193.64 78.5,194.5C 81.6124,193.649 81.9458,192.483 79.5,191C 81.4386,190.092 82.4386,188.592 82.5,186.5C 80.7231,186.786 79.0564,187.453 77.5,188.5C 73.7026,187.213 73.0359,185.213 75.5,182.5C 74.5467,179.574 73.2134,176.907 71.5,174.5 Z"/></g>
<g><path style="opacity:1" fill="#fe9062" d="M 87.5,188.5 C 112.649,202.443 138.316,203.11 164.5,190.5C 162.273,192.229 161.273,194.562 161.5,197.5C 155.756,199.766 149.756,200.766 143.5,200.5C 143.5,201.5 143.5,202.5 143.5,203.5C 145.5,203.5 147.5,203.5 149.5,203.5C 149.884,205.929 150.551,208.263 151.5,210.5C 152.552,210.351 153.552,210.517 154.5,211C 152.661,212.132 150.661,212.965 148.5,213.5C 147.702,213.957 147.369,214.624 147.5,215.5C 146.167,215.5 144.833,215.5 143.5,215.5C 143.5,214.5 143.5,213.5 143.5,212.5C 134.88,211.298 126.213,210.298 117.5,209.5C 114.42,208.211 111.586,206.545 109,204.5C 107.984,205.634 107.317,205.301 107,203.5C 106.439,204.022 105.772,204.355 105,204.5C 100.552,203.949 96.719,202.283 93.5,199.5C 94.9778,199.762 96.3112,199.429 97.5,198.5C 95.6096,196.422 93.2762,195.089 90.5,194.5C 89.7937,192.296 88.7937,190.296 87.5,188.5 Z"/></g>
<g><path style="opacity:1" fill="#f1a781" d="M 226.5,185.5 C 223.999,190.506 220.999,195.173 217.5,199.5C 215.216,199.975 213.216,200.975 211.5,202.5C 211.5,201.5 211.5,200.5 211.5,199.5C 212.552,199.649 213.552,199.483 214.5,199C 215.721,196.966 217.055,195.133 218.5,193.5C 219.398,192.842 220.398,192.176 221.5,191.5C 221.791,188.203 223.458,186.203 226.5,185.5 Z"/></g>
<g><path style="opacity:1" fill="#e67a48" d="M 30.5,170.5 C 33.2164,176.55 37.5497,180.883 43.5,183.5C 43.4142,184.496 43.7476,185.329 44.5,186C 46.8907,186.287 49.2241,186.787 51.5,187.5C 52.4776,187.023 53.3109,186.357 54,185.5C 54.4652,186.931 55.2986,188.097 56.5,189C 56.0426,189.414 55.7093,189.914 55.5,190.5C 58.8276,190.958 62.1609,191.958 65.5,193.5C 69.4602,196.823 73.4602,200.156 77.5,203.5C 77.4226,204.75 76.756,205.583 75.5,206C 78.0635,206.763 78.0635,207.263 75.5,207.5C 73.4311,207.176 73.0977,206.342 74.5,205C 70.7202,203.515 67.0535,203.348 63.5,204.5C 61.1137,203.627 59.1137,202.127 57.5,200C 56.1667,199.667 54.8333,199.333 53.5,199C 51.9552,196.62 49.9552,194.786 47.5,193.5C 47.631,192.761 47.4643,192.094 47,191.5C 41.3389,186.839 36.0055,181.839 31,176.5C 30.8371,174.324 30.0037,172.491 28.5,171C 29.0944,170.536 29.7611,170.369 30.5,170.5 Z"/></g>
<g><path style="opacity:1" fill="#e27355" d="M 31.5,184.5 C 33.4193,186.522 35.5859,186.856 38,185.5C 39.8536,189.735 43.0202,192.402 47.5,193.5C 49.9552,194.786 51.9552,196.62 53.5,199C 54.8333,199.333 56.1667,199.667 57.5,200C 59.1137,202.127 61.1137,203.627 63.5,204.5C 65.3084,204.491 66.9751,204.991 68.5,206C 69.0628,208.906 70.3961,211.406 72.5,213.5C 74.0709,212.691 75.7376,212.357 77.5,212.5C 78.4475,213.978 79.7809,214.978 81.5,215.5C 75.1773,216.997 70.0106,214.997 66,209.5C 63.8212,210.261 61.6545,209.928 59.5,208.5C 52.3522,202.306 44.6855,196.639 36.5,191.5C 34.4525,189.45 32.7859,187.117 31.5,184.5 Z"/></g>
<g><path style="opacity:0.88" fill="#ee9d95" d="M 217.5,199.5 C 213.812,205.188 209.145,209.855 203.5,213.5C 202.817,211.824 201.483,211.157 199.5,211.5C 201.572,208.802 204.238,207.135 207.5,206.5C 207.833,204.167 209.167,202.833 211.5,202.5C 213.216,200.975 215.216,199.975 217.5,199.5 Z"/></g>
<g><path style="opacity:1" fill="#f9835c" d="M 63.5,204.5 C 67.0535,203.348 70.7202,203.515 74.5,205C 73.0977,206.342 73.4311,207.176 75.5,207.5C 78.0635,207.263 78.0635,206.763 75.5,206C 76.756,205.583 77.4226,204.75 77.5,203.5C 80.8828,204.522 84.2161,205.855 87.5,207.5C 89.2743,207.113 90.941,206.447 92.5,205.5C 99.1661,209.01 106.166,211.844 113.5,214C 122.939,214.91 132.272,216.41 141.5,218.5C 149.816,219.289 158.149,219.622 166.5,219.5C 164.871,221.32 162.871,222.653 160.5,223.5C 153.849,222.318 147.182,222.318 140.5,223.5C 133.291,220.461 125.625,218.795 117.5,218.5C 115.655,219.938 114.489,219.604 114,217.5C 112.077,218.316 110.077,218.983 108,219.5C 102.645,217.781 97.145,216.614 91.5,216C 89.0324,214.697 86.699,213.197 84.5,211.5C 82.2534,212.374 79.9201,212.708 77.5,212.5C 75.7376,212.357 74.0709,212.691 72.5,213.5C 70.3961,211.406 69.0628,208.906 68.5,206C 66.9751,204.991 65.3084,204.491 63.5,204.5 Z"/></g>
<g><path style="opacity:1" fill="#fd8d5f" d="M 93.5,199.5 C 96.719,202.283 100.552,203.949 105,204.5C 105.772,204.355 106.439,204.022 107,203.5C 107.317,205.301 107.984,205.634 109,204.5C 111.586,206.545 114.42,208.211 117.5,209.5C 126.213,210.298 134.88,211.298 143.5,212.5C 143.5,213.5 143.5,214.5 143.5,215.5C 144.833,215.5 146.167,215.5 147.5,215.5C 157.839,215.666 168.172,215.5 178.5,215C 187.307,209.545 196.974,206.711 207.5,206.5C 204.238,207.135 201.572,208.802 199.5,211.5C 196.91,212.128 194.577,213.295 192.5,215C 190.866,215.494 189.199,215.66 187.5,215.5C 180.709,217.668 173.709,219.001 166.5,219.5C 158.149,219.622 149.816,219.289 141.5,218.5C 132.272,216.41 122.939,214.91 113.5,214C 106.166,211.844 99.1661,209.01 92.5,205.5C 90.941,206.447 89.2743,207.113 87.5,207.5C 84.2161,205.855 80.8828,204.522 77.5,203.5C 79.7445,202.07 82.2445,201.07 85,200.5C 85.6995,202.032 86.8662,203.032 88.5,203.5C 89.3359,201.06 91.0025,199.727 93.5,199.5 Z"/></g>
<g><path style="opacity:1" fill="#db7796" d="M 37.5,199.5 C 38.1667,199.5 38.8333,199.5 39.5,199.5C 43.7849,202.452 47.4516,206.118 50.5,210.5C 53.6303,212.286 56.9636,213.619 60.5,214.5C 61.2745,216.396 62.2745,218.063 63.5,219.5C 61.4352,219.483 59.4352,219.15 57.5,218.5C 49.544,213.545 42.8773,207.211 37.5,199.5 Z"/></g>
<g><path style="opacity:1" fill="#f78889" d="M 199.5,211.5 C 201.483,211.157 202.817,211.824 203.5,213.5C 200.99,214.783 198.323,215.783 195.5,216.5C 195.5,217.5 195.5,218.5 195.5,219.5C 191.74,218.774 189.073,220.107 187.5,223.5C 185.265,223.205 183.265,223.539 181.5,224.5C 179.901,224.768 178.568,224.434 177.5,223.5C 178.488,222.205 179.488,220.872 180.5,219.5C 182.964,218.433 185.297,217.1 187.5,215.5C 189.199,215.66 190.866,215.494 192.5,215C 194.577,213.295 196.91,212.128 199.5,211.5 Z"/></g>
<g><path style="opacity:0.825" fill="#f09ab2" d="M 203.5,213.5 C 199.366,218.293 194.366,221.96 188.5,224.5C 188.5,223.833 188.167,223.5 187.5,223.5C 189.073,220.107 191.74,218.774 195.5,219.5C 195.5,218.5 195.5,217.5 195.5,216.5C 198.323,215.783 200.99,214.783 203.5,213.5 Z"/></g>
<g><path style="opacity:1" fill="#f97e64" d="M 166.5,219.5 C 173.709,219.001 180.709,217.668 187.5,215.5C 185.297,217.1 182.964,218.433 180.5,219.5C 174.66,222.079 168.66,224.412 162.5,226.5C 156.119,225.061 149.786,225.228 143.5,227C 134.833,227.667 126.167,227.667 117.5,227C 106.656,224.598 95.9891,222.432 85.5,220.5C 85.6308,217.633 84.2974,215.967 81.5,215.5C 79.7809,214.978 78.4475,213.978 77.5,212.5C 79.9201,212.708 82.2534,212.374 84.5,211.5C 86.699,213.197 89.0324,214.697 91.5,216C 97.145,216.614 102.645,217.781 108,219.5C 110.077,218.983 112.077,218.316 114,217.5C 114.489,219.604 115.655,219.938 117.5,218.5C 125.625,218.795 133.291,220.461 140.5,223.5C 147.182,222.318 153.849,222.318 160.5,223.5C 162.871,222.653 164.871,221.32 166.5,219.5 Z"/></g>
<g><path style="opacity:1" fill="#e56b7f" d="M 39.5,199.5 C 43.9608,199.899 47.2941,202.066 49.5,206C 53.6985,208.347 58.0318,210.514 62.5,212.5C 64.6038,214.099 66.6038,215.932 68.5,218C 75.6623,220.958 82.829,223.792 90,226.5C 91.749,227.41 92.9157,228.743 93.5,230.5C 87.5076,228.861 81.5076,227.361 75.5,226C 71.8816,223.026 67.8816,220.859 63.5,219.5C 62.2745,218.063 61.2745,216.396 60.5,214.5C 56.9636,213.619 53.6303,212.286 50.5,210.5C 47.4516,206.118 43.7849,202.452 39.5,199.5 Z"/></g>
<g><path style="opacity:1" fill="#f07369" d="M 36.5,191.5 C 44.6855,196.639 52.3522,202.306 59.5,208.5C 61.6545,209.928 63.8212,210.261 66,209.5C 70.0106,214.997 75.1773,216.997 81.5,215.5C 84.2974,215.967 85.6308,217.633 85.5,220.5C 95.9891,222.432 106.656,224.598 117.5,227C 126.167,227.667 134.833,227.667 143.5,227C 149.786,225.228 156.119,225.061 162.5,226.5C 144.234,229.846 125.901,230.346 107.5,228C 100.212,227.251 93.2118,225.584 86.5,223C 83.0647,219.181 78.7314,217.515 73.5,218C 69.7802,216.14 66.1136,214.307 62.5,212.5C 58.0318,210.514 53.6985,208.347 49.5,206C 47.2941,202.066 43.9608,199.899 39.5,199.5C 39.4279,196.447 38.4279,193.781 36.5,191.5 Z"/></g>
<g><path style="opacity:1" fill="#f06f78" d="M 62.5,212.5 C 66.1136,214.307 69.7802,216.14 73.5,218C 78.7314,217.515 83.0647,219.181 86.5,223C 93.2118,225.584 100.212,227.251 107.5,228C 125.901,230.346 144.234,229.846 162.5,226.5C 168.66,224.412 174.66,222.079 180.5,219.5C 179.488,220.872 178.488,222.205 177.5,223.5C 172.355,225.942 167.022,228.109 161.5,230C 145.521,231.127 129.521,231.96 113.5,232.5C 106.928,231.054 100.262,230.387 93.5,230.5C 92.9157,228.743 91.749,227.41 90,226.5C 82.829,223.792 75.6623,220.958 68.5,218C 66.6038,215.932 64.6038,214.099 62.5,212.5 Z"/></g>
<g><path style="opacity:1" fill="#f1718a" d="M 177.5,223.5 C 178.568,224.434 179.901,224.768 181.5,224.5C 170.699,228.867 159.365,231.7 147.5,233C 146.167,233.667 144.833,234.333 143.5,235C 132.839,235.5 122.172,235.667 111.5,235.5C 105.587,233.445 99.5873,231.779 93.5,230.5C 100.262,230.387 106.928,231.054 113.5,232.5C 129.521,231.96 145.521,231.127 161.5,230C 167.022,228.109 172.355,225.942 177.5,223.5 Z"/></g>
<g><path style="opacity:1" fill="#ec77ad" d="M 57.5,218.5 C 59.4352,219.15 61.4352,219.483 63.5,219.5C 67.8816,220.859 71.8816,223.026 75.5,226C 81.5076,227.361 87.5076,228.861 93.5,230.5C 99.5873,231.779 105.587,233.445 111.5,235.5C 106.821,235.666 102.155,235.499 97.5,235C 91.6791,233.009 85.6791,231.509 79.5,230.5C 71.422,227.73 64.0887,223.73 57.5,218.5 Z"/></g>
<g><path style="opacity:1" fill="#f47aaf" d="M 187.5,223.5 C 188.167,223.5 188.5,223.833 188.5,224.5C 185.878,226.644 182.878,227.977 179.5,228.5C 167.118,232.26 154.451,235.094 141.5,237C 132.167,237.667 122.833,237.667 113.5,237C 112.584,236.722 111.918,236.222 111.5,235.5C 122.172,235.667 132.839,235.5 143.5,235C 144.833,234.333 146.167,233.667 147.5,233C 159.365,231.7 170.699,228.867 181.5,224.5C 183.265,223.539 185.265,223.205 187.5,223.5 Z"/></g>
<g><path style="opacity:1" fill="#f588c7" d="M 179.5,228.5 C 163.162,236.236 145.828,239.903 127.5,239.5C 110.754,239.816 94.7543,236.816 79.5,230.5C 85.6791,231.509 91.6791,233.009 97.5,235C 102.155,235.499 106.821,235.666 111.5,235.5C 111.918,236.222 112.584,236.722 113.5,237C 122.833,237.667 132.167,237.667 141.5,237C 154.451,235.094 167.118,232.26 179.5,228.5 Z"/></g>
</svg>
